<?xml version="1.0" encoding="UTF-8"?>
<svg width="859px" height="499px" viewBox="0 0 859 499" version="1.1" xmlns="http://www.w3.org/2000/svg" xmlns:xlink="http://www.w3.org/1999/xlink">
    <!-- Generator: Sketch 50.2 (55047) - http://www.bohemiancoding.com/sketch -->
    <title>Group</title>
    <desc>Created with Sketch.</desc>
    <defs>
        <path d="M3.59132091,190.314574 L356.561935,9.87075815 C368.978915,3.52301408 383.482692,2.64937221 396.571846,7.46074232 L817.401087,162.15105 C819.992953,163.10378 821.321735,165.977242 820.369006,168.569108 C819.934968,169.74989 819.07177,170.723664 817.951579,171.296209 L469.528917,349.379462 C453.076606,357.788448 433.852768,358.915967 416.530234,352.487946 L4.12775156,199.454222 C1.53882752,198.493528 0.21888646,195.615994 1.17958069,193.027069 C1.61535202,191.852732 2.47602444,190.88473 3.59132091,190.314574 Z" id="path-1"></path>
        <linearGradient x1="20.4410502%" y1="23.9367407%" x2="73.2362932%" y2="80.0751697%" id="linearGradient-3">
            <stop stop-color="#06249F" offset="0%"></stop>
            <stop stop-color="#062298" offset="98.5278179%"></stop>
        </linearGradient>
        <linearGradient x1="39.5413552%" y1="8.03307688%" x2="72.2412482%" y2="77.9476953%" id="linearGradient-4">
            <stop stop-color="#1237D1" offset="0%"></stop>
            <stop stop-color="#1A3CC7" offset="100%"></stop>
        </linearGradient>
        <path d="M223.018521,2.36994802 L3.24821592,115.861296 C0.303922041,117.381756 -0.850323661,121.001154 0.670135991,123.945448 C1.35387468,125.269473 2.50584235,126.291692 3.90178832,126.81311 L406.413143,277.160581 C411.198804,278.948138 416.518613,278.617984 421.046526,276.252416 L641.15229,161.260068 C644.089328,159.725638 645.226366,156.100798 643.691936,153.16376 C643.002974,151.845025 641.848611,150.82931 640.452919,150.313776 L237.514507,1.47835062 C232.771736,-0.273510812 227.510853,0.05006773 223.018521,2.36994802 Z" id="path-5"></path>
        <linearGradient x1="36.8390881%" y1="0%" x2="59.9995287%" y2="72.9797365%" id="linearGradient-7">
            <stop stop-color="#EAEEFF" stop-opacity="0.6" offset="0%"></stop>
            <stop stop-color="#E8F6FF" stop-opacity="0" offset="100%"></stop>
        </linearGradient>
        <linearGradient x1="100%" y1="100%" x2="3.65561777%" y2="93.3175641%" id="linearGradient-8">
            <stop stop-color="#000000" offset="0%"></stop>
            <stop stop-color="#FFFFFF" stop-opacity="0.70482337" offset="0%"></stop>
            <stop stop-color="#FFFFFF" stop-opacity="0.737205616" offset="22.0849892%"></stop>
            <stop stop-color="#FFFFFF" offset="46.310513%"></stop>
            <stop stop-color="#FFFFFF" stop-opacity="0" offset="100%"></stop>
        </linearGradient>
        <linearGradient x1="0%" y1="9.00693068%" x2="88.2630805%" y2="92.565582%" id="linearGradient-9">
            <stop stop-color="#1031BB" offset="0%"></stop>
            <stop stop-color="#071F87" offset="100%"></stop>
        </linearGradient>
        <linearGradient x1="12.1688326%" y1="4.65529817%" x2="97.7658111%" y2="95.3328112%" id="linearGradient-10">
            <stop stop-color="#3356E6" offset="0%"></stop>
            <stop stop-color="#0827AF" offset="100%"></stop>
        </linearGradient>
        <linearGradient x1="11.0627262%" y1="3.48353972%" x2="97.7658111%" y2="95.3328112%" id="linearGradient-11">
            <stop stop-color="#59B9FF" offset="0%"></stop>
            <stop stop-color="#118DE7" offset="100%"></stop>
        </linearGradient>
        <linearGradient x1="0%" y1="9.00693068%" x2="88.2630805%" y2="92.565582%" id="linearGradient-12">
            <stop stop-color="#0B28A2" offset="0%"></stop>
            <stop stop-color="#071F87" offset="100%"></stop>
        </linearGradient>
        <linearGradient x1="11.0627262%" y1="3.48353972%" x2="97.7658111%" y2="95.3328112%" id="linearGradient-13">
            <stop stop-color="#1E3FCC" offset="0%"></stop>
            <stop stop-color="#0827B0" offset="100%"></stop>
        </linearGradient>
        <linearGradient x1="13.8426147%" y1="17.8252832%" x2="88.2630805%" y2="92.565582%" id="linearGradient-14">
            <stop stop-color="#09228E" offset="0%"></stop>
            <stop stop-color="#071F88" offset="100%"></stop>
        </linearGradient>
        <linearGradient x1="11.0627262%" y1="3.48353972%" x2="97.7658111%" y2="95.3328112%" id="linearGradient-15">
            <stop stop-color="#0E2EB8" offset="0%"></stop>
            <stop stop-color="#0827B0" offset="100%"></stop>
        </linearGradient>
        <linearGradient x1="36.8390881%" y1="0%" x2="59.9995287%" y2="72.9797365%" id="linearGradient-16">
            <stop stop-color="#EAFBFF" stop-opacity="0.681980299" offset="0%"></stop>
            <stop stop-color="#4BCEFA" stop-opacity="0" offset="100%"></stop>
        </linearGradient>
        <linearGradient x1="20.4410502%" y1="23.9367407%" x2="73.2362932%" y2="80.0751697%" id="linearGradient-17">
            <stop stop-color="#06249F" offset="0%"></stop>
            <stop stop-color="#062298" offset="100%"></stop>
        </linearGradient>
        <linearGradient x1="82.621512%" y1="99.2536307%" x2="4.03499368%" y2="96.1493182%" id="linearGradient-18">
            <stop stop-color="#FFFFFF" offset="0%"></stop>
            <stop stop-color="#FFFFFF" stop-opacity="0" offset="16.361091%"></stop>
            <stop stop-color="#FFFFFF" offset="36.7481961%"></stop>
            <stop stop-color="#FFFFFF" stop-opacity="0.638275589" offset="53.9739507%"></stop>
            <stop stop-color="#FFFFFF" stop-opacity="0" offset="100%"></stop>
        </linearGradient>
        <path d="M57.6345485,60.4548007 C56.8310842,60.2529675 56.343366,59.4380128 56.5451993,58.6345485 C56.7470325,57.8310842 57.5619872,57.343366 58.3654515,57.5451993 C80.0804693,63.0000944 100.606105,65.7258482 119.942781,65.7258482 C135.581147,65.7258482 142.245329,68.3962803 149.552965,75.7574015 C149.910715,76.11777 150.275338,76.4908765 150.760134,76.9912102 C150.734167,76.9644103 151.702153,77.9650166 151.979961,78.2507365 C152.98642,79.2858602 153.761908,80.0609416 154.571538,80.8304136 C156.670576,82.8253385 158.749304,84.5240372 161.165181,86.1469487 C161.977237,86.6924625 162.821492,87.224522 163.703475,87.7450041 C170.678703,91.8612746 184.31467,92.3260277 206.379999,90.2678673 C209.662618,89.9616784 212.971361,89.6208564 217.550829,89.1262805 C242.527444,86.4288426 248.238,86.0488979 253.173513,87.6063697 C256.731352,88.729097 259.059606,90.811486 260.407754,93.8002282 C261.412827,96.0283986 261.794496,98.2767968 262.092853,102.299309 C262.109272,102.520669 262.120482,102.67539 262.151255,103.103138 C262.647742,110.004181 263.445567,112.452265 266.519697,114.016247 C268.144609,114.84293 271.958932,114.757822 278.028977,113.7624 C280.646278,113.333191 283.646164,112.749381 287.598871,111.915581 C289.744116,111.463053 297.553923,109.770284 298.622363,109.541682 C303.656491,108.464587 307.598994,107.667474 311.432009,106.972241 C330.468081,103.519478 343.44267,103.347236 351.710083,107.79031 C352.439806,108.182478 352.713448,109.091951 352.321281,109.821674 C351.929113,110.551397 351.01964,110.825039 350.289917,110.432871 C342.832757,106.425243 330.343387,106.591043 311.967414,109.924079 C308.170513,110.612761 304.256127,111.404188 299.250033,112.475286 C298.188982,112.702307 290.37314,114.396384 288.218077,114.850982 C284.224785,115.693345 281.185042,116.284911 278.51446,116.722857 C271.78158,117.826976 267.578329,117.920763 265.159359,116.690098 C262.705455,115.44166 261.158959,113.46198 260.281779,110.770401 C259.651621,108.836796 259.435248,107.158346 259.158989,103.318413 C259.128383,102.892995 259.117266,102.73955 259.101072,102.521215 C258.543867,95.008889 257.196411,92.0216799 252.270704,90.4673026 C247.964574,89.1084414 241.950892,89.5085542 217.872952,92.1089366 C213.280217,92.6049452 209.958659,92.9470873 206.658616,93.2549013 C183.892458,95.3784322 169.929428,94.9025318 162.178785,90.3286682 C161.246495,89.7784987 160.35282,89.2152943 159.492294,88.6372197 C156.927913,86.9145477 154.720071,85.1103395 152.504833,83.0049777 C151.661809,82.2037684 150.86069,81.4030701 149.829068,80.3420664 C149.548131,80.0531281 148.577291,79.0495716 148.605625,79.0788135 C148.128542,78.5864403 147.771583,78.2211763 147.423924,77.870973 C140.690029,71.0877915 134.795694,68.7258482 119.942781,68.7258482 C100.350034,68.7258482 79.5804833,65.9677032 57.6345485,60.4548007 Z" id="path-19"></path>
        <filter x="-4.1%" y="-13.3%" width="108.1%" height="153.3%" filterUnits="objectBoundingBox" id="filter-20">
            <feOffset dx="0" dy="12" in="SourceAlpha" result="shadowOffsetOuter1"></feOffset>
            <feGaussianBlur stdDeviation="2" in="shadowOffsetOuter1" result="shadowBlurOuter1"></feGaussianBlur>
            <feColorMatrix values="0 0 0 0 0   0 0 0 0 0.129411765   0 0 0 0 0.678431373  0 0 0 0.15 0" type="matrix" in="shadowBlurOuter1"></feColorMatrix>
        </filter>
        <filter x="-1.9%" y="-2.5%" width="103.7%" height="131.6%" filterUnits="objectBoundingBox" id="filter-21">
            <feGaussianBlur stdDeviation="1" in="SourceAlpha" result="shadowBlurInner1"></feGaussianBlur>
            <feOffset dx="0" dy="-1" in="shadowBlurInner1" result="shadowOffsetInner1"></feOffset>
            <feComposite in="shadowOffsetInner1" in2="SourceAlpha" operator="arithmetic" k2="-1" k3="1" result="shadowInnerInner1"></feComposite>
            <feColorMatrix values="0 0 0 0 0.669902146   0 0 0 0 0.861358902   0 0 0 0 1  0 0 0 1 0" type="matrix" in="shadowInnerInner1"></feColorMatrix>
        </filter>
        <path d="M35.5504542,35.9772541 C54.1971051,35.9772541 69.0504542,28.2367764 69.0504542,19.4772541 C69.0504542,10.7177318 54.1971051,2.9772541 35.5504542,2.9772541 C16.9038032,2.9772541 2.05045416,10.7177318 2.05045416,19.4772541 C2.05045416,28.2367764 16.9038032,35.9772541 35.5504542,35.9772541 Z M35.5504542,37.9772541 C15.9443455,37.9772541 0.0504541587,29.694522 0.0504541587,19.4772541 C0.0504541587,9.25998623 15.9443455,0.977254103 35.5504542,0.977254103 C55.1565628,0.977254103 71.0504542,9.25998623 71.0504542,19.4772541 C71.0504542,29.694522 55.1565628,37.9772541 35.5504542,37.9772541 Z" id="path-22"></path>
        <filter x="-11.3%" y="-16.2%" width="122.5%" height="164.9%" filterUnits="objectBoundingBox" id="filter-23">
            <feOffset dx="0" dy="10" in="SourceAlpha" result="shadowOffsetOuter1"></feOffset>
            <feGaussianBlur stdDeviation="1" in="shadowOffsetOuter1" result="shadowBlurOuter1"></feGaussianBlur>
            <feColorMatrix values="0 0 0 0 0.00784313725   0 0 0 0 0.0699062234   0 0 0 0 0.823529412  0 0 0 0.1 0" type="matrix" in="shadowBlurOuter1"></feColorMatrix>
        </filter>
        <path d="M37.2887153,32.0777956 C51.1819153,32.0777956 62.4445791,26.2085201 62.4445791,18.9684018 C62.4445791,14.2323466 57.6252863,10.0828748 50.4028909,7.77912803 L33.2943615,17.4662692 L37.2887153,32.0777956 Z" id="path-24"></path>
        <filter x="-25.7%" y="-22.6%" width="151.5%" height="190.5%" filterUnits="objectBoundingBox" id="filter-25">
            <feOffset dx="0" dy="9" in="SourceAlpha" result="shadowOffsetOuter1"></feOffset>
            <feGaussianBlur stdDeviation="1" in="shadowOffsetOuter1" result="shadowBlurOuter1"></feGaussianBlur>
            <feColorMatrix values="0 0 0 0 0   0 0 0 0 0.450980392   0 0 0 0 0.77254902  0 0 0 0.1 0" type="matrix" in="shadowBlurOuter1"></feColorMatrix>
        </filter>
        <path d="M35.5504542,35.9772541 C54.1971051,35.9772541 69.0504542,28.2367764 69.0504542,19.4772541 C69.0504542,10.7177318 54.1971051,2.9772541 35.5504542,2.9772541 C16.9038032,2.9772541 2.05045416,10.7177318 2.05045416,19.4772541 C2.05045416,28.2367764 16.9038032,35.9772541 35.5504542,35.9772541 Z M35.5504542,37.9772541 C15.9443455,37.9772541 0.0504541587,29.694522 0.0504541587,19.4772541 C0.0504541587,9.25998623 15.9443455,0.977254103 35.5504542,0.977254103 C55.1565628,0.977254103 71.0504542,9.25998623 71.0504542,19.4772541 C71.0504542,29.694522 55.1565628,37.9772541 35.5504542,37.9772541 Z" id="path-26"></path>
        <filter x="-11.3%" y="-16.2%" width="122.5%" height="164.9%" filterUnits="objectBoundingBox" id="filter-27">
            <feOffset dx="0" dy="10" in="SourceAlpha" result="shadowOffsetOuter1"></feOffset>
            <feGaussianBlur stdDeviation="1" in="shadowOffsetOuter1" result="shadowBlurOuter1"></feGaussianBlur>
            <feColorMatrix values="0 0 0 0 0   0 0 0 0 0.0378958819   0 0 0 0 0.498060162  0 0 0 0.1 0" type="matrix" in="shadowBlurOuter1"></feColorMatrix>
        </filter>
        <path d="M36.3554851,31.4090534 C22.0362718,31.4090534 10.4282559,25.4402095 10.4282559,19.0442161 L33.3636731,17.5130674 L50.3802248,7.67826461 C51.353727,8.00516094 52.2825206,8.36509648 53.1607692,8.75502973 C58.742605,11.2333069 62.2827143,14.9233181 62.2827143,19.0442161 C62.2827143,25.5755989 50.6746984,31.4090534 36.3554851,31.4090534 Z" id="path-28"></path>
        <filter x="-14.5%" y="-23.2%" width="128.9%" height="192.7%" filterUnits="objectBoundingBox" id="filter-29">
            <feOffset dx="0" dy="9" in="SourceAlpha" result="shadowOffsetOuter1"></feOffset>
            <feGaussianBlur stdDeviation="1" in="shadowOffsetOuter1" result="shadowBlurOuter1"></feGaussianBlur>
            <feColorMatrix values="0 0 0 0 0   0 0 0 0 0.450980392   0 0 0 0 0.77254902  0 0 0 0.1 0" type="matrix" in="shadowBlurOuter1"></feColorMatrix>
        </filter>
        <path d="M35.5504542,35.9772541 C54.1971051,35.9772541 69.0504542,28.2367764 69.0504542,19.4772541 C69.0504542,10.7177318 54.1971051,2.9772541 35.5504542,2.9772541 C16.9038032,2.9772541 2.05045416,10.7177318 2.05045416,19.4772541 C2.05045416,28.2367764 16.9038032,35.9772541 35.5504542,35.9772541 Z M35.5504542,37.9772541 C15.9443455,37.9772541 0.0504541587,29.694522 0.0504541587,19.4772541 C0.0504541587,9.25998623 15.9443455,0.977254103 35.5504542,0.977254103 C55.1565628,0.977254103 71.0504542,9.25998623 71.0504542,19.4772541 C71.0504542,29.694522 55.1565628,37.9772541 35.5504542,37.9772541 Z" id="path-30"></path>
        <filter x="-11.3%" y="-16.2%" width="122.5%" height="164.9%" filterUnits="objectBoundingBox" id="filter-31">
            <feOffset dx="0" dy="10" in="SourceAlpha" result="shadowOffsetOuter1"></feOffset>
            <feGaussianBlur stdDeviation="1" in="shadowOffsetOuter1" result="shadowBlurOuter1"></feGaussianBlur>
            <feColorMatrix values="0 0 0 0 0   0 0 0 0 0.0545419255   0 0 0 0 0.716836735  0 0 0 0.1 0" type="matrix" in="shadowBlurOuter1"></feColorMatrix>
        </filter>
        <path d="M62.4445791,18.9684018 C62.4445791,18.3980919 62.3746961,17.8362878 62.2391491,17.2851882 C61.2490659,13.2597623 56.7555743,9.80546046 50.4028909,7.77912803 L33.2943615,17.4662692 L62.4445791,18.9684018 Z" id="path-32"></path>
        <filter x="-25.7%" y="-49.2%" width="151.5%" height="296.6%" filterUnits="objectBoundingBox" id="filter-33">
            <feOffset dx="0" dy="9" in="SourceAlpha" result="shadowOffsetOuter1"></feOffset>
            <feGaussianBlur stdDeviation="1" in="shadowOffsetOuter1" result="shadowBlurOuter1"></feGaussianBlur>
            <feColorMatrix values="0 0 0 0 0   0 0 0 0 0.450980392   0 0 0 0 0.77254902  0 0 0 0.1 0" type="matrix" in="shadowBlurOuter1"></feColorMatrix>
        </filter>
    </defs>
    <g id="Page-1" stroke="none" stroke-width="1" fill="none" fill-rule="evenodd">
        <g id="正道官网_20180626" transform="translate(-905.000000, -300.000000)">
            <g id="Group" transform="translate(905.000000, 299.000000)">
                <path d="M41.5438314,333.098439 L387.847901,156.120325 C403.986281,147.872833 422.835191,146.737711 439.84671,152.988845 L853.918463,305.145627 C857.288019,306.38382 859.01583,310.119139 857.777637,313.488695 C857.213367,315.024272 856.090804,316.290602 854.633981,317.03496 L514.779992,490.682077 C493.396878,501.607699 468.413844,503.072683 445.900332,494.721122 L42.2410746,344.980612 C38.8753405,343.732067 37.1590196,339.991455 38.4075646,336.625721 C38.9740911,335.098521 40.0933721,333.839693 41.5438314,333.098439 Z" id="Path-5-Copy-2" fill-opacity="0.05" fill="#001D9B"></path>
                <path d="M0.968425856,252.564798 L356.561935,80.8707582 C368.978915,74.5230141 383.482692,73.6493722 396.571846,78.4607423 L820.716029,224.818005 C820.716029,230.090501 820.716029,235.521323 820.716029,238.696066 C820.716029,239.868715 819.07177,241.723664 817.951579,242.296209 L469.528917,420.379462 C453.076606,428.788448 433.852768,429.915967 416.530234,423.487946 L4.12775156,270.454222 C1.53882752,269.493528 0.968425856,266.86864 0.968425856,263.915083 C0.968425856,262.980226 0.968425856,259.196798 0.968425856,252.564798 Z" id="Path-5-Copy" fill="#C1D1E2"></path>
                <g id="Group-21" transform="translate(0.000000, 58.000000)">
                    <mask id="mask-2" fill="white">
                        <use xlink:href="#path-1"></use>
                    </mask>
                    <use id="Path-5" fill="#F4F6FF" xlink:href="#path-1"></use>
                    <path d="M338.018521,62.369948 L118.248216,175.861296 C115.303922,177.381756 114.149676,181.001154 115.670136,183.945448 C116.353875,185.269473 117.505842,186.291692 118.901788,186.81311 L521.413143,337.160581 C526.198804,338.948138 531.518613,338.617984 536.046526,336.252416 L756.15229,221.260068 C759.089328,219.725638 760.226366,216.100798 758.691936,213.16376 C758.002974,211.845025 756.848611,210.82931 755.452919,210.313776 L352.514507,61.4783506 C347.771736,59.7264892 342.510853,60.0500677 338.018521,62.369948 Z" id="Path-6-Copy-3" fill-opacity="0.05" fill="#001D9B" mask="url(#mask-2)"></path>
                </g>
                <path d="M309.116229,68 L80.33177,176.364194 L79,180.517366 L79,188.396569 C79,190.890868 80.5431724,193.125016 82.8759453,194.008021 L485.421329,346.380066 C490.228418,348.199652 495.584084,347.877389 500.138301,345.49451 L719.757596,230.584249 C722.065786,229.376547 723.512393,226.986988 723.512393,224.381938 C723.512393,222.67642 723.512393,220.970902 723.512393,219.265384 C723.512393,211.760547 723.038692,212.256663 720.238626,209.880664 C587.39815,161.533039 450.357351,114.239484 309.116229,68 Z" id="Path-6-Copy" fill="url(#linearGradient-3)"></path>
                <g id="Group-25" transform="translate(79.000000, 60.000000)">
                    <mask id="mask-6" fill="white">
                        <use xlink:href="#path-5"></use>
                    </mask>
                    <use id="Path-6" fill="url(#linearGradient-4)" xlink:href="#path-5"></use>
                    <polygon id="Path-9" fill-opacity="0.1" fill="#1B1B1B" mask="url(#mask-6)" points="583.899033 151.190466 597.694986 144.02393 562.398582 130.968017 546.203903 137.1915"></polygon>
                    <polygon id="Path-9-Copy" fill-opacity="0.1" fill="#1B1B1B" mask="url(#mask-6)" points="524.469767 127.3066 573.801856 117.1915 538.736536 105.07864 490.203903 117.1915"></polygon>
                    <path d="M208.154393,143.496442 L85.2508213,204.085038 C83.2059659,205.093104 82.365482,207.567986 83.3735481,209.612841 C83.83865,210.556298 84.6463687,211.286617 85.6317513,211.654653 L362.895528,315.211387 C366.117117,316.414635 369.693974,316.224098 372.769502,314.685405 L495.917127,253.074395 C497.956024,252.054331 498.781951,249.574553 497.761887,247.535656 C497.292673,246.597794 496.4841,245.87367 495.500367,245.51033 L217.920876,142.98711 C214.733371,141.809814 211.202145,141.993971 208.154393,143.496442 Z" id="Path-6-Copy-9" fill="#000000" opacity="0.0599999987" mask="url(#mask-6)"></path>
                </g>
                <path d="M298.596414,55.7800705 L81.3620379,168.226419 C79.2268372,169.331656 78.3918868,171.95855 79.4971241,174.093751 C79.9929439,175.051622 80.826697,175.791327 81.836809,176.169518 L479.029242,324.88015 C483.725485,326.638444 488.94826,326.313802 493.390607,323.987463 L708.836101,211.16437 C711.711492,209.658604 712.821792,206.106975 711.316026,203.231584 C710.641564,201.943641 709.513655,200.951404 708.150249,200.446608 L314.734514,54.7858955 C309.454983,52.8311686 303.596097,53.1921007 298.596414,55.7800705 Z" id="Path-6-Copy-2" fill="url(#linearGradient-7)" opacity="0.699999988"></path>
                <path d="M79.7902351,99.3630905 L406.976663,220.351527 C411.614247,222.066433 416.758814,221.755174 421.155814,219.493653 L638.423619,107.745707 C640.879273,106.482684 641.846091,103.468101 640.583068,101.012448 C640.020161,99.9180067 639.073383,99.0696204 637.923977,98.6296971 L520.56895,53.7132576" id="Path-6-Copy-7" stroke="url(#linearGradient-8)" opacity="0.699999988" transform="translate(360.463999, 137.579602) rotate(-180.000000) translate(-360.463999, -137.579602) "></path>
                <g id="Group-24" transform="translate(425.000000, 0.000000)">
                    <g id="Group-23-Copy" transform="translate(0.428298, 0.571076)">
                        <polygon id="Path-8" fill="#3E61FA" points="28.4601887 0.524025113 0.517342114 15.3735949 33.8010981 28.423027 62.5199957 13.4838888"></polygon>
                        <polygon id="Path-8-Copy-2" fill="url(#linearGradient-9)" points="61.7439447 137.738173 33.8010981 152.587743 33.8010981 28.413691 62.4962611 13.5057641"></polygon>
                        <polygon id="Path-8-Copy" fill="url(#linearGradient-10)" points="0.517342114 139.673766 0.517342114 15.3595755 33.8010981 28.426012 33.8010981 152.568906"></polygon>
                    </g>
                    <g id="Group-23" transform="translate(58.000000, 66.000000)">
                        <polygon id="Path-8" fill="#3E61FA" points="28.4601887 0.656194283 0.517342114 15.505764 33.8010981 28.5551961 62.5199957 13.616058"></polygon>
                        <polygon id="Path-8-Copy-2" fill="url(#linearGradient-9)" points="61.7439447 95.7381731 33.8010981 110.587743 33.8010981 28.5635644 62.4957007 13.6173119"></polygon>
                        <polygon id="Path-8-Copy" fill="url(#linearGradient-10)" points="0.517342114 97.6676294 0.517342114 15.5230951 33.8010981 28.5600403 33.8010981 110.568906"></polygon>
                    </g>
                    <g id="Group-23-Copy-2" transform="translate(118.000000, 94.000000)">
                        <polygon id="Path-8" fill="#3E61FA" points="28.4601887 0.15380608 0.517342114 15.0033758 33.8010981 28.0528079 62.5199957 13.1136697"></polygon>
                        <polygon id="Path-8-Copy-2" fill="url(#linearGradient-12)" points="62.5199957 92.5931226 33.8010981 107.587743 33.8010981 28.0818916 62.5199957 13.1038358"></polygon>
                        <polygon id="Path-8-Copy" fill="url(#linearGradient-13)" points="0.517342114 94.3734415 0.517342114 15.0269657 33.8010981 28.0478362 33.8010981 107.568906"></polygon>
                    </g>
                    <g id="Group-23-Copy-3" transform="translate(177.000000, 99.000000)">
                        <polygon id="Path-8" fill="#3E61FA" points="28.4601887 0.59935871 0.517342114 15.4489285 33.8010981 28.4983606 62.5199957 13.5592224"></polygon>
                        <polygon id="Path-8-Copy-2" fill="url(#linearGradient-14)" points="62.5199957 111.197983 33.8010981 126.587743 33.8010981 28.5001531 62.5199957 13.5322731"></polygon>
                        <polygon id="Path-8-Copy" fill="url(#linearGradient-15)" points="0.517342114 113.534002 0.517342114 15.4506281 33.8010981 28.5178559 33.8010981 126.568906"></polygon>
                    </g>
                </g>
                <g id="Group-22" transform="translate(171.000000, 70.000000)" fill="#FFFFFF">
                    <polygon id="Path-7" points="141.985693 0 137 2.58504831 151.128252 8.34171351 156.232043 5.57651389"></polygon>
                    <polygon id="Path-7-Copy-7" opacity="0.5" points="49.9856925 68 45 70.5850483 59.1282521 76.3417135 64.2320435 73.5765139"></polygon>
                    <polygon id="Path-7-Copy-9" opacity="0.5" points="21.0237439 84.0364687 16.0380514 86.621517 30.1663035 92.3781822 35.2700949 89.6129826"></polygon>
                    <polygon id="Path-7-Copy" points="127.985693 7 123 9.58504831 141.144734 16.8510343 146.248525 14.0858347"></polygon>
                    <polygon id="Path-7-Copy-6" opacity="0.5" points="45.9189001 52.5368218 40.9332076 55.1218701 59.0779417 62.3878561 64.1817331 59.6226565"></polygon>
                    <polygon id="Path-7-Copy-8" opacity="0.5" points="35.9856925 76 31 78.5850483 49.1447341 85.8510343 54.2485255 83.0858347"></polygon>
                    <polygon id="Path-7-Copy-2" points="129.985693 21 125 23.5850483 148.59212 32.9888908 153.695912 30.2236911"></polygon>
                    <polygon id="Path-7-Copy-4" opacity="0.699999988" points="86.4589477 29.3356616 81.4732552 31.9207099 110.490871 43.655578 115.594662 40.8903784"></polygon>
                    <polygon id="Path-7-Copy-5" opacity="0.699999988" points="72.5014955 37.2036258 67.515803 39.7886742 96.5334188 51.5235423 101.63721 48.7583427"></polygon>
                    <polygon id="Path-7-Copy-10" opacity="0.5" points="5.43896963 92.5810354 0.453277116 95.1660837 29.470893 106.900952 34.5746844 104.135752"></polygon>
                    <polygon id="Path-7-Copy-3" points="116.491906 28.2796106 111.506213 30.8646589 135.098334 40.2685014 140.202125 37.5033018"></polygon>
                </g>
                <g id="Group-26" transform="translate(138.400878, 160.019107)">
                    <path d="M135.648816,14.0155821 L413.309856,116.568922 C414.270175,116.923613 415.500156,113.114763 415.97417,114.022137 C415.97417,120.854008 415.811719,123.04444 413.791005,124.100065 L290.440436,185.522208 C287.325395,187.149511 283.665636,187.376629 280.373296,186.146955 L3.00643718,82.55172 C2.04594349,82.1929801 0.367857086,80.9238733 0.367857086,79.7715689 C0.367857086,77.7065687 0.367857086,76.2359468 0.367857086,72.0308752 L125.676202,14.6289315 C128.766764,13.0330585 132.385985,12.8104642 135.648816,14.0155821 Z" id="Path-6" fill="url(#linearGradient-17)"></path>
                    <path d="M125.753515,8.47733489 L2.84994332,69.0659313 C0.805087879,70.0739974 -0.0353959681,72.5488793 0.972670105,74.5937347 C1.43777201,75.5371909 2.24549072,76.2675101 3.23087336,76.6355459 L280.49465,180.19228 C283.716239,181.395529 287.293096,181.204992 290.368624,179.666299 L413.516249,118.055288 C415.555146,117.035224 416.381073,114.555446 415.361009,112.51655 C414.891795,111.578688 414.083222,110.854563 413.099489,110.491224 L135.519998,7.9680033 C132.332493,6.79070732 128.801267,6.97486421 125.753515,8.47733489 Z" id="Path-6-Copy-4" fill="url(#linearGradient-4)"></path>
                    <path d="M125.753515,1.47733489 L2.84994332,62.0659313 C0.805087879,63.0739974 -0.0353959681,65.5488793 0.972670105,67.5937347 C1.43777201,68.5371909 2.24549072,69.2675101 3.23087336,69.6355459 L280.49465,173.19228 C283.716239,174.395529 287.293096,174.204992 290.368624,172.666299 L413.516249,111.055288 C415.555146,110.035224 416.381073,107.555446 415.361009,105.51655 C414.891795,104.578688 414.083222,103.854563 413.099489,103.491224 L135.519998,0.968003297 C132.332493,-0.20929268 128.801267,-0.0251357917 125.753515,1.47733489 Z" id="Path-6-Copy-5" fill="url(#linearGradient-7)" opacity="0.699999988"></path>
                    <path d="M0.400804047,43.3392184 L140.445548,95.6452808 C143.639802,96.8383195 147.184633,96.6615326 150.244334,95.1565985 L273.412601,34.5754645 C275.39493,33.6004428 276.211514,31.2030364 275.236492,29.2207076 C274.785829,28.3044583 274.001828,27.595243 273.045135,27.2383829 L200.837317,0.303830164" id="Path-6-Copy-6" stroke="url(#linearGradient-18)" opacity="0.699999988" transform="translate(138.024434, 48.365944) rotate(-180.000000) translate(-138.024434, -48.365944) "></path>
                    <path d="M39.6134068,43.9689709 L116.889001,5.96045441" id="Path-6-Copy-8" stroke="#D0D7F6" transform="translate(78.251204, 24.964713) rotate(-180.000000) translate(-78.251204, -24.964713) "></path>
                    <g id="Path-10" fill-rule="nonzero">
                        <use fill="black" fill-opacity="1" filter="url(#filter-20)" xlink:href="#path-19"></use>
                        <use fill="#FFFFFF" fill-rule="evenodd" xlink:href="#path-19"></use>
                        <use fill="black" fill-opacity="1" filter="url(#filter-21)" xlink:href="#path-19"></use>
                    </g>
                </g>
                <g id="Group-27" transform="translate(321.000000, 129.000000)">
                    <g id="Oval-2" fill-rule="nonzero">
                        <use fill="black" fill-opacity="1" filter="url(#filter-23)" xlink:href="#path-22"></use>
                        <use fill="#FFFFFF" fill-rule="evenodd" xlink:href="#path-22"></use>
                    </g>
                    <g id="Oval-2-Copy">
                        <use fill="black" fill-opacity="1" filter="url(#filter-25)" xlink:href="#path-24"></use>
                        <use fill="#FFFFFF" fill-rule="evenodd" xlink:href="#path-24"></use>
                    </g>
                    <path d="M35.5504542,35.9772541 C54.1971051,35.9772541 69.0504542,28.2367764 69.0504542,19.4772541 C69.0504542,10.7177318 54.1971051,2.9772541 35.5504542,2.9772541 C16.9038032,2.9772541 2.05045416,10.7177318 2.05045416,19.4772541 C2.05045416,28.2367764 16.9038032,35.9772541 35.5504542,35.9772541 Z M35.5504542,37.9772541 C15.9443455,37.9772541 0.0504541587,29.694522 0.0504541587,19.4772541 C0.0504541587,9.25998623 15.9443455,0.977254103 35.5504542,0.977254103 C55.1565628,0.977254103 71.0504542,9.25998623 71.0504542,19.4772541 C71.0504542,29.694522 55.1565628,37.9772541 35.5504542,37.9772541 Z" id="Oval-2-Copy-3" fill="#FFFFFF" fill-rule="nonzero"></path>
                </g>
                <g id="Group-27-Copy-2" transform="translate(538.560830, 218.268285)" fill-rule="nonzero">
                    <g id="Oval-2">
                        <use fill="black" fill-opacity="1" filter="url(#filter-27)" xlink:href="#path-26"></use>
                        <use fill="#FFFFFF" fill-rule="evenodd" xlink:href="#path-26"></use>
                    </g>
                    <g id="Oval-2-Copy-2">
                        <use fill="black" fill-opacity="1" filter="url(#filter-29)" xlink:href="#path-28"></use>
                        <use fill="#FFFFFF" fill-rule="evenodd" xlink:href="#path-28"></use>
                    </g>
                    <path d="M35.5504542,35.9772541 C54.1971051,35.9772541 69.0504542,28.2367764 69.0504542,19.4772541 C69.0504542,10.7177318 54.1971051,2.9772541 35.5504542,2.9772541 C16.9038032,2.9772541 2.05045416,10.7177318 2.05045416,19.4772541 C2.05045416,28.2367764 16.9038032,35.9772541 35.5504542,35.9772541 Z M35.5504542,37.9772541 C15.9443455,37.9772541 0.0504541587,29.694522 0.0504541587,19.4772541 C0.0504541587,9.25998623 15.9443455,0.977254103 35.5504542,0.977254103 C55.1565628,0.977254103 71.0504542,9.25998623 71.0504542,19.4772541 C71.0504542,29.694522 55.1565628,37.9772541 35.5504542,37.9772541 Z" id="Oval-2-Copy-4" fill="#FFFFFF"></path>
                </g>
                <g id="Group-27-Copy" transform="translate(426.275601, 173.713590)">
                    <g id="Oval-2" fill-rule="nonzero">
                        <use fill="black" fill-opacity="1" filter="url(#filter-31)" xlink:href="#path-30"></use>
                        <use fill="#FFFFFF" fill-rule="evenodd" xlink:href="#path-30"></use>
                    </g>
                    <g id="Oval-2-Copy">
                        <use fill="black" fill-opacity="1" filter="url(#filter-33)" xlink:href="#path-32"></use>
                        <use fill="#FFFFFF" fill-rule="evenodd" xlink:href="#path-32"></use>
                    </g>
                </g>
            </g>
        </g>
    </g>
</svg>