<?xml version="1.0" encoding="UTF-8"?>
<svg width="59px" height="40px" viewBox="0 0 59 40" version="1.1" xmlns="http://www.w3.org/2000/svg" xmlns:xlink="http://www.w3.org/1999/xlink">
    <!-- Generator: Sketch 50.2 (55047) - http://www.bohemiancoding.com/sketch -->
    <title>logo copy</title>
    <desc>Created with Sketch.</desc>
    <defs></defs>
    <g id="Page-1" stroke="none" stroke-width="1" fill="none" fill-rule="evenodd">
        <g id="正道官网_20180626" transform="translate(-365.000000, -34.000000)" fill="#FFFFFF">
            <g id="Group-5">
                <g id="logo-copy" transform="translate(360.000000, 34.000000)">
                    <g id="Group-20" transform="translate(5.000000, 0.000000)">
                        <polygon id="Fill-1" points="0 7 0 26.855 0 29.955 3.1 29.955 26.636 29.955 26.636 26.855 3.1 26.855 3.1 7"></polygon>
                        <path d="M0,4.1821 L0,1.0821 L26.521,1.0821 L26.521,4.1821 L0,4.1821 Z M28.9174,1.1556 L32.0174,1.1556 L32.0174,26.8336 L57.9434,26.8336 L57.9434,29.9336 L32.0174,29.9336 L29.2224,29.9336 L28.9174,29.9336 L28.9174,17.3986 L15.9974,17.3986 L15.9974,24.4586 L12.8984,24.4586 L12.8984,17.7086 L12.8984,14.6086 L12.8984,6.9296 L15.9974,6.9296 L15.9974,14.2996 L28.9174,14.2996 L28.9174,1.1556 Z M50.5282,0 L53.5622,0 L53.5622,1.102 L57.9432,1.102 L57.9432,4.202 L47.4932,4.202 L47.4932,6.986 L57.9432,6.986 L57.9432,7.011 L57.9432,10.085 L57.9432,21.839 L57.9432,24.85 L57.9432,24.937 L34.0092,24.937 L34.0092,24.809 L34.0092,21.839 L34.0092,19.987 L34.0092,16.888 L34.0092,15.036 L34.0092,11.937 L34.0092,10.085 L34.0092,6.986 L34.0092,6.97 L37.0432,6.97 L37.0432,6.986 L44.4592,6.986 L44.4592,4.202 L34.0092,4.202 L34.0092,1.102 L38.3912,1.102 L38.3912,0 L41.4242,0 L41.4242,1.102 L50.5282,1.102 L50.5282,0 Z M37.0432,11.936 L54.9092,11.936 L54.9092,10.085 L37.0432,10.085 L37.0432,11.936 Z M37.0432,16.887 L54.9092,16.887 L54.9092,15.036 L37.0432,15.036 L37.0432,16.887 Z M37.0432,21.838 L54.9092,21.838 L54.9092,19.987 L37.0432,19.987 L37.0432,21.838 Z" id="Combined-Shape"></path>
                        <path d="M0.248,33.0694 L5.501,33.0694 L1.607,38.3974 L5.501,38.3974 L5.501,39.1744 L0,39.1744 L3.898,33.8464 L0.248,33.8464 L0.248,33.0694 Z M14.6363,33.0784 L18.0923,33.0784 L18.0923,33.8554 L15.5093,33.8554 L15.5093,35.7134 L18.0043,35.7134 L18.0043,36.4944 L15.5093,36.4944 L15.5093,38.3884 L18.1753,38.3884 L18.1753,39.1654 L14.6363,39.1654 L14.6363,33.0784 Z M24.8405,33.0784 L25.6695,33.0784 L25.6695,39.1744 L24.9185,39.1744 L20.8435,34.4794 L20.8435,39.1744 L20.0235,39.1744 L20.0235,33.0784 L20.7305,33.0784 L24.8405,37.8124 L24.8405,33.0784 Z M31.1619,36.172 L33.2079,36.172 L33.2079,38.755 C32.4579,39.081 31.7129,39.243 30.9739,39.243 C29.9649,39.243 29.1589,38.949 28.5549,38.36 C27.9519,37.771 27.6499,37.045 27.6499,36.181 C27.6499,35.27 27.9619,34.512 28.5869,33.907 C29.2129,33.302 29.9969,33 30.9389,33 C31.2819,33 31.6079,33.037 31.9169,33.111 C32.2249,33.185 32.6149,33.321 33.0859,33.519 L33.0859,34.409 C32.3589,33.988 31.6369,33.776 30.9219,33.776 C30.2559,33.776 29.6949,34.003 29.2379,34.457 C28.7809,34.911 28.5529,35.468 28.5529,36.128 C28.5529,36.821 28.7809,37.386 29.2379,37.825 C29.6949,38.265 30.2819,38.484 31.0009,38.484 C31.3499,38.484 31.7669,38.404 32.2529,38.244 L32.3349,38.218 L32.3349,36.948 L31.1619,36.948 L31.1619,36.172 Z M38.7607,39.1651 L38.7607,33.0781 L40.8157,33.0781 C41.6447,33.0781 42.3007,33.2031 42.7837,33.4521 C43.2657,33.7001 43.6507,34.0661 43.9357,34.5491 C44.2197,35.0321 44.3627,35.5581 44.3627,36.1281 C44.3627,36.5351 44.2837,36.9251 44.1277,37.2981 C43.9697,37.6701 43.7457,37.9971 43.4547,38.2791 C43.1587,38.5701 42.8137,38.7901 42.4207,38.9381 C42.1907,39.0281 41.9807,39.0891 41.7887,39.1191 C41.5967,39.1501 41.2297,39.1651 40.6887,39.1651 L38.7607,39.1651 Z M40.7237,33.8551 L39.6337,33.8551 L39.6337,38.3881 L40.7507,38.3881 C41.1867,38.3881 41.5247,38.3581 41.7667,38.2991 C42.0087,38.2391 42.2097,38.1641 42.3707,38.0721 C42.5327,37.9801 42.6797,37.8681 42.8137,37.7341 C43.2447,37.2981 43.4597,36.7461 43.4597,36.0801 C43.4597,35.4261 43.2387,34.8921 42.7967,34.4791 C42.6337,34.3251 42.4467,34.1981 42.2357,34.0991 C42.0247,34.0011 41.8247,33.9351 41.6357,33.9031 C41.4467,33.8711 41.1427,33.8551 40.7237,33.8551 Z M47.8005,33.0439 L48.4135,33.0439 L51.1465,39.1739 L50.2535,39.1739 L49.4415,37.3679 L46.8405,37.3679 L46.0785,39.1739 L45.1825,39.1739 L47.8005,33.0439 Z M49.0825,36.5909 L48.0995,34.3829 L47.1875,36.5909 L49.0825,36.5909 Z M7.2506,39.1424 L7.2506,36.8114 L8.0886,36.8114 L8.0886,39.1424 L7.2506,39.1424 Z M11.5506,39.1504 L11.5506,33.0794 L12.3886,33.0794 L12.3886,39.1504 L11.5506,39.1504 Z" id="Combined-Shape"></path>
                        <path d="M55.0015,38.377 C53.7835,38.377 52.7965,37.39 52.7965,36.172 C52.7965,34.954 53.7835,33.967 55.0015,33.967 C56.2195,33.967 57.2065,34.954 57.2065,36.172 C57.2065,37.39 56.2195,38.377 55.0015,38.377 M55.0015,33 C56.7535,33 58.1735,34.42 58.1735,36.172 C58.1735,37.924 56.7535,39.344 55.0015,39.344 C53.2495,39.344 51.8295,37.924 51.8295,36.172 C51.8295,34.42 53.2495,33 55.0015,33 Z M7.877,35.7742 L10.942,35.7742 L10.942,36.5642 L7.877,36.5642 L7,36.5642 L7,35.7742 L7,33.1852 L7.877,33.1852 L7.877,35.7742 Z" id="Combined-Shape"></path>
                    </g>
                </g>
            </g>
        </g>
    </g>
</svg>