<?xml version="1.0" encoding="UTF-8"?>
<svg width="448px" height="345px" viewBox="0 0 448 345" version="1.1" xmlns="http://www.w3.org/2000/svg" xmlns:xlink="http://www.w3.org/1999/xlink">
    <!-- Generator: Sketch 50.2 (55047) - http://www.bohemiancoding.com/sketch -->
    <title>Group 35</title>
    <desc>Created with Sketch.</desc>
    <defs>
        <path d="M284.523807,77.3429794 C401.87695,87.8097159 479.110141,232.213931 340.086063,285.47979 C201.061985,338.745649 186.868073,197.483807 129.986248,180.628049 C73.1044227,163.772292 19.9108722,160.47173 4.36324103,118.636799 C-11.1843901,76.8018683 24.1499077,0.335328303 96.2619715,0.335328303 C168.374035,0.335328303 167.170665,66.8762428 284.523807,77.3429794 Z" id="path-1"></path>
        <path d="M6.29718876,0 L6.29718876,0 C6.79402323,-9.12670122e-17 7.19678715,0.40276392 7.19678715,0.899598394 L7.19678715,29.6690141 L5.39759036,29.6690141 L5.39759036,0.899598394 C5.39759036,0.40276392 5.80035428,9.12670122e-17 6.29718876,0 Z" id="path-3"></path>
        <filter x="-111.2%" y="-6.7%" width="322.3%" height="113.5%" filterUnits="objectBoundingBox" id="filter-4">
            <feGaussianBlur stdDeviation="1.5" in="SourceAlpha" result="shadowBlurInner1"></feGaussianBlur>
            <feOffset dx="-1" dy="1" in="shadowBlurInner1" result="shadowOffsetInner1"></feOffset>
            <feComposite in="shadowOffsetInner1" in2="SourceAlpha" operator="arithmetic" k2="-1" k3="1" result="shadowInnerInner1"></feComposite>
            <feColorMatrix values="0 0 0 0 0.824351616   0 0 0 0 0.824351616   0 0 0 0 0.824351616  0 0 0 0.5 0" type="matrix" in="shadowInnerInner1"></feColorMatrix>
        </filter>
        <polygon id="path-5" points="1.45565279 26.2079533 3.25484958 26.2079533 3.27764124 29.0813003 1.47844445 29.0813003"></polygon>
        <filter x="-110.2%" y="-69.6%" width="320.4%" height="239.2%" filterUnits="objectBoundingBox" id="filter-6">
            <feGaussianBlur stdDeviation="1.5" in="SourceAlpha" result="shadowBlurInner1"></feGaussianBlur>
            <feOffset dx="-1" dy="1" in="shadowBlurInner1" result="shadowOffsetInner1"></feOffset>
            <feComposite in="shadowOffsetInner1" in2="SourceAlpha" operator="arithmetic" k2="-1" k3="1" result="shadowInnerInner1"></feComposite>
            <feColorMatrix values="0 0 0 0 0.824351616   0 0 0 0 0.824351616   0 0 0 0 0.824351616  0 0 0 0.5 0" type="matrix" in="shadowInnerInner1"></feColorMatrix>
        </filter>
        <polygon id="path-7" points="1.56543852 32.1311867 2.39187899 28.9513447 0.592682201 28.9513447"></polygon>
        <filter x="-111.2%" y="-62.9%" width="322.3%" height="225.8%" filterUnits="objectBoundingBox" id="filter-8">
            <feGaussianBlur stdDeviation="1.5" in="SourceAlpha" result="shadowBlurInner1"></feGaussianBlur>
            <feOffset dx="-1" dy="1" in="shadowBlurInner1" result="shadowOffsetInner1"></feOffset>
            <feComposite in="shadowOffsetInner1" in2="SourceAlpha" operator="arithmetic" k2="-1" k3="1" result="shadowInnerInner1"></feComposite>
            <feColorMatrix values="0 0 0 0 0.824351616   0 0 0 0 0.824351616   0 0 0 0 0.824351616  0 0 0 0.5 0" type="matrix" in="shadowInnerInner1"></feColorMatrix>
        </filter>
        <linearGradient x1="50%" y1="2.98952312%" x2="50%" y2="100%" id="linearGradient-9">
            <stop stop-color="#C4EAD1" offset="0%"></stop>
            <stop stop-color="#90C7A2" offset="100%"></stop>
        </linearGradient>
        <path d="M1.54471334,55.3561577 L92.6820144,2.90522455 C99.0695703,-0.770913178 106.909353,-0.860190349 113.378968,2.66953366 L208.036084,54.3130295 C209.502185,55.1129121 210.042261,56.9498548 209.242379,58.4159558 C208.988763,58.8808062 208.617529,59.2709104 208.165813,59.5472428 L115.918686,115.978468 C109.193636,120.092447 100.739544,120.128345 93.9797994,116.071625 L1.49702385,60.5700091 C0.0649987788,59.710609 -0.399205486,57.8530419 0.460194606,56.4210168 C0.725148645,55.9795218 1.09844573,55.6129917 1.54471334,55.3561577 Z" id="path-10"></path>
        <linearGradient x1="76.9175028%" y1="15.6167455%" x2="41.8250692%" y2="85.623909%" id="linearGradient-12">
            <stop stop-color="#E5E8F6" offset="0%"></stop>
            <stop stop-color="#E6E9F7" stop-opacity="0" offset="100%"></stop>
        </linearGradient>
        <linearGradient x1="50%" y1="6.07770175%" x2="50%" y2="89.7508025%" id="linearGradient-13">
            <stop stop-color="#96AAFF" offset="0%"></stop>
            <stop stop-color="#0931D4" offset="100%"></stop>
        </linearGradient>
        <linearGradient x1="50%" y1="19.8474733%" x2="50%" y2="100%" id="linearGradient-14">
            <stop stop-color="#D4D8E3" offset="0%"></stop>
            <stop stop-color="#C1C5CE" offset="100%"></stop>
        </linearGradient>
        <ellipse id="path-15" cx="61.9453025" cy="60.918812" rx="12.3939719" ry="16.213404"></ellipse>
        <filter x="-2.0%" y="-1.5%" width="104.0%" height="103.1%" filterUnits="objectBoundingBox" id="filter-16">
            <feOffset dx="0" dy="1" in="SourceAlpha" result="shadowOffsetInner1"></feOffset>
            <feComposite in="shadowOffsetInner1" in2="SourceAlpha" operator="arithmetic" k2="-1" k3="1" result="shadowInnerInner1"></feComposite>
            <feColorMatrix values="0 0 0 0 0.137254902   0 0 0 0 0.254901961   0 0 0 0 0.741176471  0 0 0 1 0" type="matrix" in="shadowInnerInner1"></feColorMatrix>
        </filter>
        <linearGradient x1="25.6842073%" y1="18.6185942%" x2="80.8406835%" y2="83.7651434%" id="linearGradient-17">
            <stop stop-color="#6F89F6" offset="0%"></stop>
            <stop stop-color="#1837B6" offset="100%"></stop>
        </linearGradient>
        <ellipse id="path-18" cx="63.4536075" cy="62.7782337" rx="9.16076186" ry="11.8898296"></ellipse>
        <filter x="-16.4%" y="-8.4%" width="121.8%" height="112.6%" filterUnits="objectBoundingBox" id="filter-19">
            <feOffset dx="-2" dy="-1" in="SourceAlpha" result="shadowOffsetOuter1"></feOffset>
            <feColorMatrix values="0 0 0 0 0.192156863   0 0 0 0 0.309803922   0 0 0 0 0.788235294  0 0 0 1 0" type="matrix" in="shadowOffsetOuter1"></feColorMatrix>
        </filter>
        <linearGradient x1="100%" y1="0%" x2="0%" y2="100%" id="linearGradient-20">
            <stop stop-color="#FFFFFF" stop-opacity="0" offset="3.00758671%"></stop>
            <stop stop-color="#FFFFFF" offset="47.2061545%"></stop>
            <stop stop-color="#FFFFFF" stop-opacity="0" offset="97.4440029%"></stop>
        </linearGradient>
    </defs>
    <g id="Page-1" stroke="none" stroke-width="1" fill="none" fill-rule="evenodd">
        <g id="正道官网_20180626" transform="translate(-385.000000, -2127.000000)">
            <g id="Group-35" transform="translate(385.000000, 2118.000000)">
                <g id="Group-19" transform="translate(33.285141, 55.741784)">
                    <mask id="mask-2" fill="white">
                        <use xlink:href="#path-1"></use>
                    </mask>
                    <use id="Path-32" fill="#EDEFF9" xlink:href="#path-1"></use>
                    <g id="Group-29" mask="url(#mask-2)">
                        <g transform="translate(186.216867, 144.748826)">
                            <g id="Group-30">
                                <path d="M4.17255932,17.1786068 L55.0148657,65.3205648 C55.4059674,65.6908942 55.9797761,65.7933101 56.4748434,65.5811479 L94.9999733,49.0711236 L44.133948,3.13209169 C43.7607594,2.79505087 43.2311712,2.69336241 42.7596918,2.8682149 L4.17255932,17.1786068 Z" id="Path-34" stroke="#FFA98D" stroke-width="4.49999988" fill="#FFFBFA"></path>
                                <path d="M11.4202178,10.978022 L15.6847728,15.2644417 L35.8800793,7.8352967 L31.8783776,4.26010606 C30.1382974,2.70548777 27.6814638,2.23996738 25.4932809,3.05025904 L12.0711938,8.02050393 C11.1389457,8.36571861 10.6630611,9.40130681 11.0082757,10.3335549 C11.0978347,10.575408 11.23832,10.7951916 11.4202178,10.978022 Z" id="Path-35" fill="#FF7259"></path>
                                <path d="M21.0888737,23.0849421 L27.1588783,20.5874705" id="Path-36" stroke="#888888" stroke-width="0.899999976" stroke-linecap="round" stroke-linejoin="round"></path>
                                <path d="M26.0883534,28.5702415 L51.5762708,18.5269134" id="Path-36-Copy" stroke="#888888" stroke-width="0.899999976" stroke-linecap="round" stroke-linejoin="round"></path>
                                <path d="M29.686747,31.620793 L55.1746644,21.5774648" id="Path-36-Copy-2" stroke="#888888" stroke-width="0.899999976" stroke-linecap="round" stroke-linejoin="round"></path>
                                <path d="M33.4368735,34.864956 L58.9247909,24.8216279" id="Path-36-Copy-3" stroke="#888888" stroke-width="0.899999976" stroke-linecap="round" stroke-linejoin="round"></path>
                                <path d="M37.0237054,38.1192858 L62.5116227,28.0759576" id="Path-36-Copy-4" stroke="#888888" stroke-width="0.899999976" stroke-linecap="round" stroke-linejoin="round"></path>
                                <path d="M40.7147351,41.698358 L53.3953036,36.7016724" id="Path-36-Copy-5" stroke="#888888" stroke-width="0.899999976" stroke-linecap="round" stroke-linejoin="round"></path>
                                <path d="M49.9031353,49.0468302 C50.6554651,50.272403 51.770042,50.6809272 53.2468661,50.272403 C55.4621023,49.6596166 55.1102934,48.0909453 56.9153436,48.0909453 C58.7203938,48.0909453 60.0414168,50.0027151 61.4733949,49.0468302 C62.9053731,48.0909453 62.1317801,46.9438061 63.6708473,46.9438061" id="Path-4" stroke="#979797" stroke-width="0.899999976" stroke-linecap="round" stroke-linejoin="round" transform="translate(56.786991, 48.684703) rotate(26.000000) translate(-56.786991, -48.684703) "></path>
                            </g>
                            <g id="Group-28" transform="translate(71.663372, 35.996440) rotate(14.000000) translate(-71.663372, -35.996440) translate(65.815983, 19.813341)">
                                <g id="Rectangle-21" transform="translate(6.297189, 14.834507) rotate(17.000000) translate(-6.297189, -14.834507) ">
                                    <use fill="#888888" fill-rule="evenodd" xlink:href="#path-3"></use>
                                    <use fill="black" fill-opacity="1" filter="url(#filter-4)" xlink:href="#path-3"></use>
                                </g>
                                <g id="Rectangle-21-Copy-2" transform="translate(2.370198, 27.644627) rotate(17.000000) translate(-2.370198, -27.644627) ">
                                    <use fill="#FFD8C4" fill-rule="evenodd" xlink:href="#path-5"></use>
                                    <use fill="black" fill-opacity="1" filter="url(#filter-6)" xlink:href="#path-5"></use>
                                </g>
                                <g id="Rectangle-21-Copy-3" transform="translate(1.492281, 30.541266) rotate(17.000000) translate(-1.492281, -30.541266) ">
                                    <use fill="#888888" fill-rule="evenodd" xlink:href="#path-7"></use>
                                    <use fill="black" fill-opacity="1" filter="url(#filter-8)" xlink:href="#path-7"></use>
                                </g>
                                <path d="M10.2127941,0.590211718 L10.2235023,0.590211718 C10.7161986,0.590211718 11.1173134,0.986375024 11.1234328,1.47903335 L11.1483464,3.48473722 L9.34914958,3.48473722 L9.32436904,1.48974072 C9.31827434,0.999077122 9.71109505,0.596374954 10.2017586,0.590280253 C10.2054369,0.590234563 10.2091155,0.590211718 10.2127941,0.590211718 Z" id="Rectangle-21-Copy" fill="#FF7259" transform="translate(10.230771, 2.037474) rotate(17.000000) translate(-10.230771, -2.037474) "></path>
                            </g>
                        </g>
                    </g>
                    <path d="M300.194834,123.664047 C300.194834,123.664047 308.131991,134.216326 315.644537,134.657765 C323.156183,135.099204 322.793645,134.657765 322.793645,134.657765 C322.793645,134.657765 323.74542,138.043629 323.892955,139.662838 C324.040489,141.282047 323.892955,144.462925 323.892955,144.462925 C323.892955,144.462925 317.548087,149.133547 314.259155,149.998444 C310.971123,150.86334 303.957854,149.306167 300.194834,151.382099 C296.431814,153.458031 290.104039,156.377282 288.194192,168.971329 C286.285244,181.566275 277.933372,224.522512 277.933372,224.522512 C277.933372,224.522512 253.357244,212.199082 251.384424,211.460054 C249.411605,210.720127 247.372216,209.053268 245.796119,208.589352 C244.220023,208.126336 241.624681,205.995561 240.976071,204.698216 C240.326561,203.40177 239.633244,200.963403 234.998513,198.835061 C230.363782,196.706718 230.31493,198.305892 229.758979,198.120685 C229.203027,197.935479 230.407589,199.881047 230.407589,199.881047 L218.006776,190.730442 C218.006776,190.730442 220.581276,203.309167 224.660055,205.995561 C228.739734,208.681955 231.891027,209.701491 233.00383,210.906232 C234.115734,212.110075 265.645464,237.933389 273.821322,242.195354 C281.99718,246.45732 287.207332,243.752528 290.608714,242.195354 C294.010995,240.637282 312.510336,185.809843 313.149051,176.246531 C313.786866,166.684117 364.981212,220.203423 364.981212,220.203423 C364.981212,220.203423 378.924987,202.920772 378.728874,172.28257 C378.531862,141.645268 364.186866,139.877714 361.434995,139.288829 C358.684023,138.699045 344.339027,138.699045 344.339027,138.699045 L316.04126,115.131958 L293.245437,112.382629 L300.194834,123.664047 Z" id="Stroke-3" fill="#F2D0B6" mask="url(#mask-2)"></path>
                    <g id="Group-33" mask="url(#mask-2)">
                        <g transform="translate(218.122667, 255.059132) rotate(-52.000000) translate(-218.122667, -255.059132) translate(174.042345, 158.410071)">
                            <path d="M24.7389558,33.2652582 C26.4938383,33.2652582 33.1024646,24.8195771 33.1024646,15.6336297 C33.1024646,6.44768229 31.3589427,0.203543133 25.5390757,0.203543133 C19.7192086,0.203543133 17.7801389,6.44768229 17.7801389,15.6336297 C17.7801389,24.8195771 22.9840734,33.2652582 24.7389558,33.2652582 Z" id="Oval-14" stroke="none" fill="#C3EAD0" fill-rule="evenodd"></path>
                            <path d="M16.2583365,65.6590011 C17.8007063,65.6590011 23.6090418,58.2360744 23.6090418,50.162526 C23.6090418,42.0889776 22.0766568,36.6009907 16.9615635,36.6009907 C11.8464702,36.6009907 10.1422177,42.0889776 10.1422177,50.162526 C10.1422177,58.2360744 14.7159667,65.6590011 16.2583365,65.6590011 Z" id="Oval-14-Copy" stroke="none" fill="#BBE5C9" fill-rule="evenodd" transform="translate(16.875630, 51.129996) rotate(-65.000000) translate(-16.875630, -51.129996) "></path>
                            <path d="M37.06169,63.601331 C38.6040599,63.601331 44.4123953,56.1784042 44.4123953,48.1048558 C44.4123953,40.0313075 42.8800103,34.5433205 37.764917,34.5433205 C32.6498237,34.5433205 30.9455713,40.0313075 30.9455713,48.1048558 C30.9455713,56.1784042 35.5193202,63.601331 37.06169,63.601331 Z" id="Oval-14-Copy-2" stroke="none" fill="#BBE5C9" fill-rule="evenodd" transform="translate(37.678983, 49.072326) rotate(27.000000) translate(-37.678983, -49.072326) "></path>
                            <path d="M31.5303309,121.347614 C33.5610527,121.347614 41.208449,111.574407 41.208449,100.944576 C41.208449,90.3147451 39.1908734,83.0891275 32.4562167,83.0891275 C25.72156,83.0891275 25.0856679,90.8949976 25.0856679,101.524829 C25.0856679,112.154659 29.4996091,121.347614 31.5303309,121.347614 Z" id="Oval-14-Copy-6" stroke="none" fill="#AEDBBD" fill-rule="evenodd" transform="translate(33.147058, 102.218371) rotate(-72.000000) translate(-33.147058, -102.218371) "></path>
                            <path d="M34.6530803,151.543143 C36.6838021,151.543143 44.3311984,141.769936 44.3311984,131.140105 C44.3311984,120.510274 41.2068407,112.609072 34.472184,112.609072 C27.7375272,112.609072 28.1177049,118.697177 28.1177049,129.327008 C28.1177049,139.956838 32.6223585,151.543143 34.6530803,151.543143 Z" id="Oval-14-Copy-7" stroke="none" fill="#A7D7B7" fill-rule="evenodd" transform="translate(36.222495, 132.076107) rotate(-62.000000) translate(-36.222495, -132.076107) "></path>
                            <path d="M33.5357461,188.637687 C35.7019876,188.637687 43.8597309,178.212268 43.8597309,166.873058 C43.8597309,155.533848 40.52687,147.105361 33.3427778,147.105361 C26.1586855,147.105361 25.7749038,153.428596 25.7749038,164.767806 C25.7749038,176.107016 31.3695046,188.637687 33.5357461,188.637687 Z" id="Oval-14-Copy-10" stroke="none" fill="#92C9A3" fill-rule="evenodd" transform="translate(34.817317, 167.871524) rotate(-62.000000) translate(-34.817317, -167.871524) "></path>
                            <path d="M47.7374905,88.9012115 C49.5943016,88.9012115 54.0269403,79.6960311 55.614936,70.3167902 C57.2029317,60.9375493 54.7419855,53.9191759 48.5840837,53.9191759 C42.4261819,53.9191759 40.3744853,60.5259928 40.3744853,70.2454867 C40.3744853,79.9649807 45.8806794,88.9012115 47.7374905,88.9012115 Z" id="Oval-14-Copy-3" stroke="none" fill="#B4E0C3" fill-rule="evenodd" transform="translate(48.229610, 71.410194) rotate(27.000000) translate(-48.229610, -71.410194) "></path>
                            <path d="M65.7962897,118.704882 C67.8632429,118.704882 72.7975393,108.457918 74.5652543,98.0171939 C76.3329692,87.5764702 73.5935088,79.763802 66.7386949,79.763802 C59.8838809,79.763802 57.5999864,87.1183364 57.5999864,97.9378208 C57.5999864,108.757305 63.7293365,118.704882 65.7962897,118.704882 Z" id="Oval-14-Copy-5" stroke="none" fill="#AEDBBD" fill-rule="evenodd" transform="translate(66.344104, 99.234342) rotate(-315.000000) translate(-66.344104, -99.234342) "></path>
                            <path d="M67.0899052,148.204007 C69.1568583,148.204007 74.0911548,137.957043 75.8588697,127.516319 C77.6265847,117.075595 74.8871243,109.262927 68.0323103,109.262927 C61.1774964,109.262927 58.8936018,116.617462 58.8936018,127.436946 C58.8936018,138.25643 65.022952,148.204007 67.0899052,148.204007 Z" id="Oval-14-Copy-8" stroke="none" fill="#A7D7B7" fill-rule="evenodd" transform="translate(67.637719, 128.733467) rotate(-313.000000) translate(-67.637719, -128.733467) "></path>
                            <path d="M65.5041895,182.228973 C67.5711427,182.228973 72.5054391,171.982009 74.2731541,161.541285 C76.040869,151.100561 73.3014086,143.287893 66.4465946,143.287893 C59.5917807,143.287893 57.3078861,150.642427 57.3078861,161.461912 C57.3078861,172.281396 63.4372363,182.228973 65.5041895,182.228973 Z" id="Oval-14-Copy-9" stroke="none" fill="#92C9A3" fill-rule="evenodd" transform="translate(66.052003, 162.758433) rotate(-317.000000) translate(-66.052003, -162.758433) "></path>
                            <path d="M22.1097312,93.7335351 C23.8413919,93.7335351 27.9752677,85.1487902 29.4562314,76.4017165 C30.9371951,67.6546428 28.6421184,61.1093126 22.8992633,61.1093126 C17.1564083,61.1093126 15.2429975,67.2708255 15.2429975,76.3352189 C15.2429975,85.3996123 20.3780704,93.7335351 22.1097312,93.7335351 Z" id="Oval-14-Copy-4" stroke="none" fill="#B4E0C3" fill-rule="evenodd" transform="translate(22.568681, 77.421424) rotate(-69.000000) translate(-22.568681, -77.421424) "></path>
                            <path d="M25.3266107,32.6483987 C27.7859774,48.827076 30.504333,61.9598296 33.4816775,72.0466594 C37.9476942,87.1769042 50.5549033,101.898869 52.8210561,115.288146 C55.0872088,128.677422 51.2771084,153.030946 51.2771084,166.963312 C51.2771084,176.251556 53.6249776,184.754568 58.320716,192.472346" id="Path-41" stroke="url(#linearGradient-9)" stroke-width="0.899999976" fill="none"></path>
                        </g>
                    </g>
                    <path d="M316.462272,148.576129 C316.462272,148.576129 314.927557,149.671185 309.841228,149.697258 C304.754898,149.723331 300.264103,150.804002 300.264103,150.804002 C300.264103,150.804002 316.415493,155.955622 313.434224,173.637455 C310.452955,191.319289 290.146884,258.260764 256.329855,310.479465 L372.110529,282.572185 C372.110529,282.572185 364.712232,252.411385 365.288874,222.523899 C365.729677,199.708427 373.669533,192.029547 375.259123,173.637455 C376.849613,155.246263 368.854882,141.347678 366.504232,140.356913 C364.154481,139.365249 359.186858,138.970972 359.186858,138.970972 C359.186858,138.970972 362.255428,141.594021 362.679139,144.420669 C363.10375,147.248216 354.476601,152.760359 347.971605,156.010465 C341.46571,159.261469 330.014722,159.4233 322.862914,154.173683 C315.710208,148.923167 316.462272,148.576129 316.462272,148.576129 Z" id="Stroke-5" fill="#2F50DB" mask="url(#mask-2)"></path>
                </g>
                <path d="M335.095652,129.306384 C335.095652,129.306384 313.959839,129.110827 313.959839,150.813142 C313.959839,172.516358 330.790376,180.141276 340.379605,179.750162 C340.379605,179.750162 331.866469,172.60918 331.332481,170.010165 C331.332481,170.010165 341.274395,178.4092 345.743837,178.275825 C346.744162,178.246086 350.868135,183.098962 355.185137,184.492193 C357.411289,185.210437 363.380767,185.614167 365.442753,184.342596 C365.442753,184.342596 362.270397,195.409137 366.226597,201.986879 C371.472666,210.710341 384.497637,224.46241 387.975774,230.585956 C391.454812,236.709501 390.495077,248.898917 390.205533,251.139261 C389.915989,253.380505 392.738367,252.44057 392.738367,252.44057 C392.738367,252.44057 405.290687,240.497178 403.796063,224.671485 C402.30234,208.845791 399.911122,207.352529 398.117933,203.171936 C396.324744,198.992245 380.484611,185.853882 379.73775,183.763135 C378.989986,181.673289 377.944561,179.583443 379.13972,176.000335 C380.334878,172.416326 387.669993,163.098984 383.884273,145.967475 C380.098552,128.835065 365.619546,122.382587 358.94019,121.715711 C352.260833,121.047933 349.631484,121.338115 345.681598,122.75027 C342.585913,123.856924 335.095652,129.306384 335.095652,129.306384 Z" id="Stroke-1" fill="#36353E"></path>
                <path d="M375.13253,213.976526 C380.319173,220.283546 385.764571,226.548935 387.836285,230.151611 C391.329144,236.224059 392.472304,249.512644 392.181609,251.734293 C392.168862,251.831755 388.839457,253.463178 388.825214,253.534553 C388.81572,253.582137 388.865712,251.048838 388.975193,245.934658 C388.60487,240.059284 387.944413,235.590419 386.993821,232.528065 C385.567934,227.934533 381.204778,223.983718 375.13253,213.976526 Z" id="Stroke-1-Copy" fill="#494953" opacity="0.5"></path>
                <g id="Group-33" transform="translate(161.477912, 78.218310) rotate(33.000000) translate(-161.477912, -78.218310) translate(128.642570, 6.293427)">
                    <path d="M18.4171399,24.7646231 C19.7235781,24.7646231 24.6434298,18.4771592 24.6434298,11.6385974 C24.6434298,4.80003554 23.3454492,0.15152953 19.0127964,0.15152953 C14.6801436,0.15152953 13.2365856,4.80003554 13.2365856,11.6385974 C13.2365856,18.4771592 17.1107018,24.7646231 18.4171399,24.7646231 Z" id="Oval-14" fill="#C3EAD0"></path>
                    <path d="M12.103666,48.8804387 C13.2518972,48.8804387 17.5759652,43.3543735 17.5759652,37.3439473 C17.5759652,31.333521 16.4351673,27.2479393 12.6271897,27.2479393 C8.81921215,27.2479393 7.55046593,31.333521 7.55046593,37.3439473 C7.55046593,43.3543735 10.9554348,48.8804387 12.103666,48.8804387 Z" id="Oval-14-Copy" fill="#BBE5C9" transform="translate(12.563216, 38.064189) rotate(-65.000000) translate(-12.563216, -38.064189) "></path>
                    <path d="M27.5909111,47.3485874 C28.7391423,47.3485874 33.0632103,41.8225223 33.0632103,35.812096 C33.0632103,29.8016698 31.9224124,25.7160881 28.1144348,25.7160881 C24.3064573,25.7160881 23.0377111,29.8016698 23.0377111,35.812096 C23.0377111,41.8225223 26.4426799,47.3485874 27.5909111,47.3485874 Z" id="Oval-14-Copy-2" fill="#BBE5C9" transform="translate(28.050461, 36.532338) rotate(27.000000) translate(-28.050461, -36.532338) "></path>
                    <path d="M23.4730407,90.3383311 C24.9848299,90.3383311 30.6780034,83.0625788 30.6780034,75.1491048 C30.6780034,67.2356308 29.176001,61.8564542 24.1623248,61.8564542 C19.1486485,61.8564542 18.6752529,67.667605 18.6752529,75.581079 C18.6752529,83.494553 21.9612514,90.3383311 23.4730407,90.3383311 Z" id="Oval-14-Copy-6" fill="#AEDBBD" transform="translate(24.676628, 76.097393) rotate(-72.000000) translate(-24.676628, -76.097393) "></path>
                    <path d="M25.7977998,112.817667 C27.309589,112.817667 33.0027625,105.541914 33.0027625,97.6284403 C33.0027625,89.7149663 30.6768061,83.8328444 25.6631299,83.8328444 C20.6494536,83.8328444 20.9324804,88.3651892 20.9324804,96.2786632 C20.9324804,104.192137 24.2860105,112.817667 25.7977998,112.817667 Z" id="Oval-14-Copy-7" fill="#A7D7B7" transform="translate(26.966165, 98.325256) rotate(-62.000000) translate(-26.966165, -98.325256) "></path>
                    <path d="M24.9659902,140.433036 C26.5786683,140.433036 32.6517743,132.671738 32.6517743,124.230161 C32.6517743,115.788583 30.1705958,109.513919 24.8223332,109.513919 C19.4740706,109.513919 19.1883608,114.22131 19.1883608,122.662887 C19.1883608,131.104465 23.3533121,140.433036 24.9659902,140.433036 Z" id="Oval-14-Copy-10" fill="#92C9A3" transform="translate(25.920068, 124.973478) rotate(-62.000000) translate(-25.920068, -124.973478) "></path>
                    <path d="M35.5386076,66.1833128 C36.9209275,66.1833128 40.2208455,59.3304329 41.4030433,52.347972 C42.5852411,45.365511 40.7531674,40.1406193 36.1688615,40.1406193 C31.5845557,40.1406193 30.0571516,45.0591241 30.0571516,52.2948894 C30.0571516,59.5306548 34.1562878,66.1833128 35.5386076,66.1833128 Z" id="Oval-14-Copy-3" fill="#B4E0C3" transform="translate(35.904970, 53.161966) rotate(27.000000) translate(-35.904970, -53.161966) "></path>
                    <path d="M48.9826444,88.3709254 C50.5214064,88.3709254 54.1947881,80.7424801 55.5107795,72.9697886 C56.826771,65.1970972 54.7873548,59.3808855 49.6842264,59.3808855 C44.581098,59.3808855 42.880832,64.8560353 42.880832,72.9106986 C42.880832,80.9653618 47.4438824,88.3709254 48.9826444,88.3709254 Z" id="Oval-14-Copy-5" fill="#AEDBBD" transform="translate(49.390469, 73.875905) rotate(-315.000000) translate(-49.390469, -73.875905) "></path>
                    <path d="M49.9456881,110.331817 C51.4844502,110.331817 55.1578319,102.703371 56.4738233,94.9306799 C57.7898147,87.1579884 55.7503986,81.3417767 50.6472702,81.3417767 C45.5441418,81.3417767 43.8438758,86.8169265 43.8438758,94.8715898 C43.8438758,102.926253 48.4069261,110.331817 49.9456881,110.331817 Z" id="Oval-14-Copy-8" fill="#A7D7B7" transform="translate(50.353513, 95.836797) rotate(-313.000000) translate(-50.353513, -95.836797) "></path>
                    <path d="M48.7651877,135.662011 C50.3039497,135.662011 53.9773315,128.033565 55.2933229,120.260874 C56.6093143,112.488183 54.5698981,106.671971 49.4667698,106.671971 C44.3636414,106.671971 42.6633754,112.147121 42.6633754,120.201784 C42.6633754,128.256447 47.2264257,135.662011 48.7651877,135.662011 Z" id="Oval-14-Copy-9" fill="#92C9A3" transform="translate(49.173013, 121.166991) rotate(-317.000000) translate(-49.173013, -121.166991) "></path>
                    <path d="M16.4597898,69.78078 C17.7489404,69.78078 20.8264417,63.3897888 21.9289585,56.8779505 C23.0314754,50.3661122 21.3228847,45.4933818 17.0475642,45.4933818 C12.7722437,45.4933818 11.3477877,50.0803759 11.3477877,56.8284458 C11.3477877,63.5765156 15.1706393,69.78078 16.4597898,69.78078 Z" id="Oval-14-Copy-4" fill="#B4E0C3" transform="translate(16.801459, 57.637081) rotate(-69.000000) translate(-16.801459, -57.637081) "></path>
                    <path d="M18.8546249,24.3053964 C20.6855228,36.3497594 22.7092272,46.1265568 24.9257383,53.6357888 C28.250505,64.8996367 37.6360561,75.8595367 39.3231141,85.8273052 C41.010172,95.7950736 38.1737082,113.925275 38.1737082,124.297352 C38.1737082,131.212069 39.9216007,137.542213 43.4173857,143.287783" id="Path-41" stroke="url(#linearGradient-9)" stroke-width="0.899999976"></path>
                </g>
                <path d="M319.35743,249.113562 C319.35743,249.113562 314.113631,247.354559 311.616075,245.197923 C309.11941,243.040381 306.122699,239.497919 302.751622,237.970792 C299.380545,236.443666 291.060284,238.208604 289.936295,238.335411 C289.723382,239.124063 289.582983,239.476749 289.317568,240.38335 C289.171648,240.881779 289.118541,241.299496 288.730917,241.980373 C287.35735,244.390624 284.273092,243.294902 284.273092,244.182556 C284.273092,245.071115 285.771448,250.272947 289.766468,251.541023 C293.76238,252.810005 303.250777,252.810005 305.373967,252.936813 C307.496266,253.063621 317.057753,261.626761 317.057753,261.626761 L319.35743,249.113562 Z" id="Stroke-7" fill="#F2D0B6"></path>
                <path d="M365.236948,184.590379 C368.082535,181.690982 370.532244,180.000863 372.586074,179.520023 C374.639903,179.039182 376.688187,178.537203 378.730924,178.014085 L378.730924,180.070021 C375.403929,180.918701 373.242636,181.654185 372.247046,182.276472 C371.251456,182.89876 368.782619,184.488817 364.840534,187.046643 L365.236948,184.590379 Z" id="Path-33" fill="#FFE192"></path>
                <g id="Group-31" transform="translate(0.000000, 8.990610)">
                    <path d="M3.30822062,116.51941 C22.2187084,105.63613 52.8494535,87.8216027 95.2004559,63.0758274 C100.905682,60.1889992 110.135664,59.4685044 115.504218,62.8443858 L211.518408,114.945699 C212.959603,115.731993 216.090194,122.883182 207.883828,128.594584 C205.174477,130.52418 204.718188,131.075491 204.272569,131.348094 L118.60895,183.249349 C112.009238,187.286654 103.719203,187.321894 97.0855457,183.340843 L9.38257799,130.446787 C5.54512017,128.304438 0.795453845,126.305395 0.795453845,122.37636 C0.795453845,118.447324 2.35302206,117.069141 3.30822062,116.51941 Z" id="Path-37" fill="#DBDFE8"></path>
                    <g id="Group-32" transform="translate(2.698795, 62.035211)">
                        <mask id="mask-11" fill="white">
                            <use xlink:href="#path-10"></use>
                        </mask>
                        <use id="Path-37-Copy" fill="#FCFCFC" xlink:href="#path-10"></use>
                        <polygon id="Path-40" fill="url(#linearGradient-12)" mask="url(#mask-11)" points="61.419987 33.2932915 2.77300117 70.7776294 48.9547968 101.071043 108.696564 60.8510197"></polygon>
                        <ellipse id="Oval-12-Copy" fill="#EDEFF9" opacity="0.5" mask="url(#mask-11)" cx="105.109326" cy="59.1610477" rx="49.134315" ry="27.2691583"></ellipse>
                        <ellipse id="Oval-12" fill="#E6E9F7" mask="url(#mask-11)" cx="104.353414" cy="59.9185243" rx="25.7010263" ry="14.3920557"></ellipse>
                    </g>
                    <g id="Group-34" transform="translate(53.076305, 0.000000)">
                        <path d="M57.8000314,20.6950618 L18.2847915,57.1702115 C16.191414,80.4701567 19.6433862,97.0852562 28.640708,107.01551 C37.6380297,116.945764 47.3578042,122.629347 57.8000314,124.06626 C70.9265677,105.434907 81.0157886,87.972761 88.0676941,71.6798227 C95.1195997,55.3868844 98.5272553,35.028501 98.290661,10.6046727 L57.8000314,20.6950618 Z" id="Path-38" fill="url(#linearGradient-13)"></path>
                        <path d="M18.4127221,57.535405 C16.3193447,80.8353501 19.7713168,97.4504496 28.7686386,107.380704 C32.2441357,110.292504 35.3725481,113.043134 38.153876,115.632592 C23.0092673,107.831775 12.8076522,100.458601 7.54903073,93.5130714 C2.29040923,86.5675415 -0.192477716,71.1134497 0.100369897,47.1507961 L18.4127221,57.535405 Z" id="Path-38-Copy" fill="url(#linearGradient-14)"></path>
                        <polygon id="Path-38-Copy-2" fill="#DFE2E9" points="17.8625531 57.9888981 0.11314116 47.1650768 40.1523943 10.3623962 57.1676484 21.336067"></polygon>
                        <polygon id="Path-38-Copy-3" fill="#EEF0F5" points="98.1095587 10.6805282 79.7972064 0.295919377 40.0954925 10.36287 57.1744238 21.3032126"></polygon>
                        <g id="Oval-13" transform="translate(61.945302, 60.918812) rotate(33.000000) translate(-61.945302, -60.918812) ">
                            <use fill="#FFFFFF" fill-rule="evenodd" xlink:href="#path-15"></use>
                            <use fill="black" fill-opacity="1" filter="url(#filter-16)" xlink:href="#path-15"></use>
                        </g>
                        <g id="Oval-13-Copy" transform="translate(63.453607, 62.778234) rotate(33.000000) translate(-63.453607, -62.778234) ">
                            <use fill="black" fill-opacity="1" filter="url(#filter-19)" xlink:href="#path-18"></use>
                            <use fill="url(#linearGradient-17)" fill-rule="evenodd" xlink:href="#path-18"></use>
                        </g>
                        <polyline id="Path-39" stroke="url(#linearGradient-20)" stroke-width="0.899999976" points="18.7347164 56.500282 56.7996302 20.9596258 96.5525679 10.5305175"></polyline>
                    </g>
                    <g id="Group-33-Copy" transform="translate(236.875496, 290.463202) rotate(-52.000000) translate(-236.875496, -290.463202) translate(192.795175, 212.244892)">
                        <path d="M24.7389558,33.2652582 C26.4938383,33.2652582 33.1024646,24.8195771 33.1024646,15.6336297 C33.1024646,6.44768229 31.3589427,0.203543133 25.5390757,0.203543133 C19.7192086,0.203543133 17.7801389,6.44768229 17.7801389,15.6336297 C17.7801389,24.8195771 22.9840734,33.2652582 24.7389558,33.2652582 Z" id="Oval-14" fill="#C3EAD0"></path>
                        <path d="M16.2583365,65.6590011 C17.8007063,65.6590011 23.6090418,58.2360744 23.6090418,50.162526 C23.6090418,42.0889776 22.0766568,36.6009907 16.9615635,36.6009907 C11.8464702,36.6009907 10.1422177,42.0889776 10.1422177,50.162526 C10.1422177,58.2360744 14.7159667,65.6590011 16.2583365,65.6590011 Z" id="Oval-14-Copy" fill="#BBE5C9" transform="translate(16.875630, 51.129996) rotate(-65.000000) translate(-16.875630, -51.129996) "></path>
                        <path d="M37.06169,63.601331 C38.6040599,63.601331 44.4123953,56.1784042 44.4123953,48.1048558 C44.4123953,40.0313075 42.8800103,34.5433205 37.764917,34.5433205 C32.6498237,34.5433205 30.9455713,40.0313075 30.9455713,48.1048558 C30.9455713,56.1784042 35.5193202,63.601331 37.06169,63.601331 Z" id="Oval-14-Copy-2" fill="#BBE5C9" transform="translate(37.678983, 49.072326) rotate(27.000000) translate(-37.678983, -49.072326) "></path>
                        <path d="M31.5303309,121.347614 C33.5610527,121.347614 41.208449,111.574407 41.208449,100.944576 C41.208449,90.3147451 39.1908734,83.0891275 32.4562167,83.0891275 C25.72156,83.0891275 25.0856679,90.8949976 25.0856679,101.524829 C25.0856679,112.154659 29.4996091,121.347614 31.5303309,121.347614 Z" id="Oval-14-Copy-6" fill="#AEDBBD" transform="translate(33.147058, 102.218371) rotate(-72.000000) translate(-33.147058, -102.218371) "></path>
                        <path d="M47.7374905,88.9012115 C49.5943016,88.9012115 54.0269403,79.6960311 55.614936,70.3167902 C57.2029317,60.9375493 54.7419855,53.9191759 48.5840837,53.9191759 C42.4261819,53.9191759 40.3744853,60.5259928 40.3744853,70.2454867 C40.3744853,79.9649807 45.8806794,88.9012115 47.7374905,88.9012115 Z" id="Oval-14-Copy-3" fill="#B4E0C3" transform="translate(48.229610, 71.410194) rotate(27.000000) translate(-48.229610, -71.410194) "></path>
                        <path d="M65.7962897,118.704882 C67.8632429,118.704882 72.7975393,108.457918 74.5652543,98.0171939 C76.3329692,87.5764702 73.5935088,79.763802 66.7386949,79.763802 C59.8838809,79.763802 57.5999864,87.1183364 57.5999864,97.9378208 C57.5999864,108.757305 63.7293365,118.704882 65.7962897,118.704882 Z" id="Oval-14-Copy-5" fill="#AEDBBD" transform="translate(66.344104, 99.234342) rotate(-315.000000) translate(-66.344104, -99.234342) "></path>
                        <path d="M67.0899052,148.204007 C69.1568583,148.204007 74.0911548,137.957043 75.8588697,127.516319 C77.6265847,117.075595 74.8871243,109.262927 68.0323103,109.262927 C61.1774964,109.262927 58.8936018,116.617462 58.8936018,127.436946 C58.8936018,138.25643 65.022952,148.204007 67.0899052,148.204007 Z" id="Oval-14-Copy-8" fill="#A7D7B7" transform="translate(67.637719, 128.733467) rotate(-313.000000) translate(-67.637719, -128.733467) "></path>
                        <path d="M22.1097312,93.7335351 C23.8413919,93.7335351 27.9752677,85.1487902 29.4562314,76.4017165 C30.9371951,67.6546428 28.6421184,61.1093126 22.8992633,61.1093126 C17.1564083,61.1093126 15.2429975,67.2708255 15.2429975,76.3352189 C15.2429975,85.3996123 20.3780704,93.7335351 22.1097312,93.7335351 Z" id="Oval-14-Copy-4" fill="#B4E0C3" transform="translate(22.568681, 77.421424) rotate(-69.000000) translate(-22.568681, -77.421424) "></path>
                        <path d="M25.3266107,32.6483987 C27.7859774,48.827076 30.504333,61.9598296 33.4816775,72.0466594 C37.9476942,87.1769042 50.5549033,101.898869 52.8210561,115.288146 C54.6956652,126.364037 52.5052395,142.328574 51.6602519,156.304531" id="Path-41" stroke="url(#linearGradient-9)" stroke-width="0.899999976"></path>
                    </g>
                </g>
            </g>
        </g>
    </g>
</svg>