<?xml version="1.0" encoding="UTF-8"?>
<svg width="22px" height="22px" viewBox="0 0 22 22" version="1.1" xmlns="http://www.w3.org/2000/svg" xmlns:xlink="http://www.w3.org/1999/xlink">
    <!-- Generator: Sketch 50.2 (55047) - http://www.bohemiancoding.com/sketch -->
    <title>Group 76</title>
    <desc>Created with Sketch.</desc>
    <defs></defs>
    <g id="Page-1" stroke="none" stroke-width="1" fill="none" fill-rule="evenodd">
        <g id="正道官网_20180626" transform="translate(-731.000000, -4622.000000)">
            <g id="Group-54" transform="translate(467.000000, 4619.000000)">
                <g id="Group-45" transform="translate(265.000000, 0.000000)">
                    <g id="Group-76" transform="translate(0.000000, 4.000000)">
                        <path d="M0,5 L0,2 C-1.3527075e-16,0.8954305 0.8954305,2.02906125e-16 2,0 L5,0" id="Path-59" stroke="#FFFFFF" stroke-width="2" stroke-linecap="round" stroke-linejoin="round"></path>
                        <path d="M15,5 L15,2 C15,0.8954305 15.8954305,2.02906125e-16 17,0 L20,0" id="Path-59-Copy" stroke="#FFFFFF" stroke-width="2" stroke-linecap="round" stroke-linejoin="round" transform="translate(17.500000, 2.500000) scale(-1, 1) translate(-17.500000, -2.500000) "></path>
                        <path d="M0,20 L0,17 C-1.3527075e-16,15.8954305 0.8954305,15 2,15 L5,15" id="Path-59-Copy-3" stroke="#FFFFFF" stroke-width="2" stroke-linecap="round" stroke-linejoin="round" transform="translate(2.500000, 17.500000) scale(1, -1) translate(-2.500000, -17.500000) "></path>
                        <path d="M15,20 L15,17 C15,15.8954305 15.8954305,15 17,15 L20,15" id="Path-59-Copy-2" stroke="#FFFFFF" stroke-width="2" stroke-linecap="round" stroke-linejoin="round" transform="translate(17.500000, 17.500000) scale(-1, -1) translate(-17.500000, -17.500000) "></path>
                        <rect id="Rectangle-25" fill-opacity="0.5" fill="#FFFFFF" x="4" y="4" width="12" height="12" rx="2"></rect>
                    </g>
                </g>
            </g>
        </g>
    </g>
</svg>