<?xml version="1.0" encoding="UTF-8"?>
<svg width="499px" height="458px" viewBox="0 0 499 458" version="1.1" xmlns="http://www.w3.org/2000/svg" xmlns:xlink="http://www.w3.org/1999/xlink">
    <!-- Generator: Sketch 50.2 (55047) - http://www.bohemiancoding.com/sketch -->
    <title>Group 38</title>
    <desc>Created with Sketch.</desc>
    <defs>
        <path d="M21.2036596,23.5177516 C-34.0494613,69.2698016 37.2934281,92.2630737 28.0178613,149.650593 C18.7422945,207.038113 10.385151,298.484152 59.3605251,313.190597 C108.335899,327.897042 191.022495,312.701309 213.290531,221.0813 C235.558567,129.461291 344.361974,142.417073 401.724816,125.686587 C459.087658,108.9561 472.596297,78.6192954 430.740019,43.0009336 C388.883741,7.38257176 76.4567806,-22.2342984 21.2036596,23.5177516 Z" id="path-1"></path>
        <ellipse id="path-3" cx="90.5" cy="315" rx="56.5" ry="13"></ellipse>
        <filter x="-43.4%" y="-181.0%" width="186.8%" height="477.4%" filterUnits="objectBoundingBox" id="filter-4">
            <feGaussianBlur stdDeviation="15.0223214" in="SourceGraphic"></feGaussianBlur>
        </filter>
        <filter x="-46.1%" y="-192.6%" width="192.2%" height="500.5%" filterUnits="objectBoundingBox" id="filter-5">
            <feOffset dx="0" dy="2" in="SourceAlpha" result="shadowOffsetOuter1"></feOffset>
            <feGaussianBlur stdDeviation="2" in="shadowOffsetOuter1" result="shadowBlurOuter1"></feGaussianBlur>
            <feColorMatrix values="0 0 0 0 0   0 0 0 0 0   0 0 0 0 0  0 0 0 0.5 0" type="matrix" in="shadowBlurOuter1"></feColorMatrix>
        </filter>
        <linearGradient x1="8.2858576%" y1="0%" x2="81.8549579%" y2="107.071094%" id="linearGradient-6">
            <stop stop-color="#D0F3DD" offset="0%"></stop>
            <stop stop-color="#8AC39C" offset="95.9074498%"></stop>
            <stop stop-color="#87C199" offset="100%"></stop>
        </linearGradient>
        <linearGradient x1="8.2858576%" y1="0%" x2="63.8433018%" y2="82.8081149%" id="linearGradient-7">
            <stop stop-color="#D0F3DD" offset="0%"></stop>
            <stop stop-color="#A7D7B6" offset="100%"></stop>
        </linearGradient>
        <linearGradient x1="77.239161%" y1="90.3868555%" x2="12.8449364%" y2="41.2959485%" id="linearGradient-8">
            <stop stop-color="#FFFFFF" stop-opacity="0.150730299" offset="0%"></stop>
            <stop stop-color="#FFFFFF" stop-opacity="0" offset="100%"></stop>
        </linearGradient>
        <linearGradient x1="82.9506207%" y1="90.8398361%" x2="82.9506218%" y2="60.3811147%" id="linearGradient-9">
            <stop stop-color="#FFFFFF" stop-opacity="0.166326993" offset="0%"></stop>
            <stop stop-color="#FFFFFF" stop-opacity="0" offset="100%"></stop>
        </linearGradient>
        <filter x="-100.0%" y="-22.3%" width="500.0%" height="175.0%" filterUnits="objectBoundingBox" id="filter-10">
            <feOffset dx="30" dy="17" in="SourceAlpha" result="shadowOffsetOuter1"></feOffset>
            <feGaussianBlur stdDeviation="9" in="shadowOffsetOuter1" result="shadowBlurOuter1"></feGaussianBlur>
            <feColorMatrix values="0 0 0 0 0   0 0 0 0 0   0 0 0 0 0  0 0 0 0.1 0" type="matrix" in="shadowBlurOuter1" result="shadowMatrixOuter1"></feColorMatrix>
            <feMerge>
                <feMergeNode in="shadowMatrixOuter1"></feMergeNode>
                <feMergeNode in="SourceGraphic"></feMergeNode>
            </feMerge>
        </filter>
        <linearGradient x1="49.5284555%" y1="3.0166185%" x2="34.6091539%" y2="98.4600795%" id="linearGradient-11">
            <stop stop-color="#6D89FF" offset="0%"></stop>
            <stop stop-color="#2148EB" offset="100%"></stop>
        </linearGradient>
        <linearGradient x1="12.1688326%" y1="4.65529817%" x2="97.7658111%" y2="95.3328112%" id="linearGradient-12">
            <stop stop-color="#3356E6" offset="0%"></stop>
            <stop stop-color="#05229F" offset="100%"></stop>
        </linearGradient>
        <linearGradient x1="49.5284555%" y1="3.0166185%" x2="34.6091539%" y2="98.4600795%" id="linearGradient-13">
            <stop stop-color="#6D89FF" offset="0%"></stop>
            <stop stop-color="#8FA4FF" offset="100%"></stop>
        </linearGradient>
        <filter x="-109.1%" y="-37.3%" width="536.4%" height="225.4%" filterUnits="objectBoundingBox" id="filter-14">
            <feOffset dx="30" dy="17" in="SourceAlpha" result="shadowOffsetOuter1"></feOffset>
            <feGaussianBlur stdDeviation="9" in="shadowOffsetOuter1" result="shadowBlurOuter1"></feGaussianBlur>
            <feColorMatrix values="0 0 0 0 0   0 0 0 0 0   0 0 0 0 0  0 0 0 0.1 0" type="matrix" in="shadowBlurOuter1" result="shadowMatrixOuter1"></feColorMatrix>
            <feMerge>
                <feMergeNode in="shadowMatrixOuter1"></feMergeNode>
                <feMergeNode in="SourceGraphic"></feMergeNode>
            </feMerge>
        </filter>
        <linearGradient x1="79.9117345%" y1="50%" x2="32.2265442%" y2="100%" id="linearGradient-15">
            <stop stop-color="#6D89FF" offset="0%"></stop>
            <stop stop-color="#8FA4FF" offset="100%"></stop>
        </linearGradient>
        <linearGradient x1="8.2858576%" y1="0%" x2="78.8599008%" y2="102.712144%" id="linearGradient-16">
            <stop stop-color="#D0F3DD" offset="0%"></stop>
            <stop stop-color="#B7E2C5" offset="100%"></stop>
        </linearGradient>
    </defs>
    <g id="Page-1" stroke="none" stroke-width="1" fill="none" fill-rule="evenodd">
        <g id="正道官网_20180626" transform="translate(-1055.000000, -2710.000000)">
            <g id="Group-38" transform="translate(1055.000000, 2702.000000)">
                <g id="Group-40" transform="translate(36.929603, 147.536680)">
                    <mask id="mask-2" fill="white">
                        <use xlink:href="#path-1"></use>
                    </mask>
                    <use id="Path-55" fill="#EDEFF9" xlink:href="#path-1"></use>
                    <g id="Oval-23" opacity="0.300000012" filter="url(#filter-4)" mask="url(#mask-2)">
                        <use fill="black" fill-opacity="1" filter="url(#filter-5)" xlink:href="#path-3"></use>
                        <use fill="#353C5E" fill-rule="evenodd" xlink:href="#path-3"></use>
                    </g>
                    <path d="M4.44818059,155.297223 C-2.96599576,144.471565 -6.92019918,139.058736 -7.41442966,139.058736 C-8.15577538,139.058736 -6.28395123,153.026969 -1.48312453,159.607092 C1.7174266,163.993841 5.19537496,169.112846 8.95072055,174.964109 L11.7392687,181.351387 C7.77408926,176.765127 4.73615877,173.468272 2.62547721,171.460824 C0.514795646,169.453375 -2.83183998,166.547242 -7.41442966,162.742425 C-6.21689056,171.526992 -3.65757266,178.31342 0.263524032,183.101709 C4.18462072,187.889998 10.6491655,193.271162 19.6571584,199.245201 L27.8867761,211.828422 C22.3794565,205.143889 18.3113754,200.949482 15.6825327,199.245201 C13.05369,197.540921 7.33180428,194.234506 -1.48312453,189.325956 C2.30536439,198.866556 7.61891802,206.367378 14.4575364,211.828422 C24.7154639,220.019989 34.14916,226.268355 35.7547894,228.88255 C36.825209,230.625347 38.1740149,236.213445 39.801207,245.646844 C32.3620869,235.569306 27.4006376,229.375753 24.916859,227.066185 C22.4330804,224.756618 14.7026617,218.454459 1.72560278,208.15971 C6.14746687,218.175713 9.4853555,224.211928 11.7392687,226.268355 C15.1201385,229.352995 31.4819809,247.033721 32.6832743,248.04105 C33.8845677,249.048378 38.8342845,255.930119 38.8342845,257.936056 C38.8342845,259.273347 41.576618,259.79289 47.0612849,259.494685 C51.9935864,246.086309 55.3766405,236.178822 57.2104474,229.772224 C59.0442542,223.365627 60.4632333,214.887602 61.4673848,204.338151 C57.5661509,208.843932 55.007674,212.573267 53.791954,215.526155 C52.5762341,218.479044 49.6371256,227.003193 44.9746286,241.098601 C42.645391,235.954426 41.2008446,232.780653 40.6409896,231.577282 C39.801207,229.772224 44.9746286,220.298785 44.9746286,213.047433 C44.9746286,205.796082 45.1596711,179.931572 42.9003304,179.223434 C40.6409896,178.515296 36.438702,201.182891 36.438702,203.572079 C36.438702,205.16487 36.438702,211.005372 36.438702,221.093585 C30.1116032,210.169715 26.9480538,204.329213 26.9480538,203.572079 C26.9480538,202.436377 30.7536772,185.863364 30.7536772,180.01584 C30.7536772,176.11749 30.7536772,167.49487 30.7536772,154.147978 C25.3430202,163.767213 22.2950914,170.705924 21.6098906,174.964109 C20.9246899,179.222295 20.9246899,185.579245 21.6098906,194.03496 L11.7392687,174.964109 C11.7392687,166.446923 11.7392687,160.491658 11.7392687,157.098313 C11.7392687,153.704969 11.2330676,147.691776 10.2206655,139.058736 C7.89645956,142.609696 6.4181965,145.507688 5.78587629,147.752712 C5.15355608,149.997736 4.70765752,152.512573 4.44818059,155.297223 Z" id="Path-17" fill="url(#linearGradient-6)" mask="url(#mask-2)" transform="translate(26.948054, 199.317490) rotate(-37.000000) translate(-26.948054, -199.317490) "></path>
                    <path d="M371.199955,12.1989432 C359.468962,-4.92982458 353.212471,-13.4942085 352.430481,-13.4942085 C351.257495,-13.4942085 354.219167,8.60686074 361.815218,19.0181823 C366.879252,25.9590633 372.382194,34.0585491 378.324045,43.3166398 L382.736192,53.4228349 C376.462334,46.1662783 371.655605,40.9498695 368.316004,37.7736083 C364.976403,34.5973472 359.681229,29.9991528 352.430481,23.9790253 C354.325273,37.8783027 358.374723,48.6160479 364.578831,56.1922607 C370.78294,63.7684736 381.011389,72.2827563 395.264179,81.7351089 L408.285393,101.644761 C399.571502,91.0682372 393.134829,84.4316865 388.975374,81.7351089 C384.815919,79.0385312 375.762534,73.8069954 361.815218,66.0405015 C367.809509,81.1360021 376.216816,93.0040886 387.037139,101.644761 C403.267622,114.605769 418.193976,124.492172 420.734464,128.628451 C422.428122,131.38597 424.562254,140.227672 427.13686,155.153556 C415.366401,139.208491 407.516206,129.408816 403.586277,125.75453 C399.656348,122.100244 387.424985,112.128729 366.892188,95.8399838 C373.88863,111.687686 379.169965,121.238415 382.736192,124.492172 C388.085533,129.372807 413.973863,157.347926 415.874595,158.941759 C417.775328,160.535592 425.606958,171.424145 425.606958,174.598015 C425.606958,176.713927 429.945983,177.535968 438.624032,177.064138 C446.428107,155.848893 451.780904,140.17289 454.682423,130.036128 C457.583942,119.899365 459.829105,106.485112 461.417912,89.7933679 C455.245231,96.922586 451.197111,102.823282 449.273553,107.495455 C447.349994,112.167628 442.699625,125.65486 435.322444,147.957152 C431.637036,139.817843 429.35142,134.796179 428.465596,132.892158 C427.13686,130.036128 435.322444,115.046891 435.322444,103.573526 C435.322444,92.1001619 435.615226,51.1763487 432.040411,50.0559059 C428.465596,48.9354631 421.816576,84.800996 421.816576,88.5812594 C421.816576,91.101435 421.816576,100.3425 421.816576,116.304453 C411.805599,99.0202913 406.800111,89.7792266 406.800111,88.5812594 C406.800111,86.7843085 412.821513,60.5618563 412.821513,51.3096807 C412.821513,45.1415635 412.821513,31.4985248 412.821513,10.3805645 C404.260566,25.6004847 399.438017,36.5791765 398.353866,43.3166398 C397.269715,50.0541032 397.269715,60.112312 398.353866,73.4912662 L382.736192,43.3166398 C382.736192,29.8404241 382.736192,20.4177766 382.736192,15.0486974 C382.736192,9.67961812 381.935261,0.165316164 380.3334,-13.4942085 C376.655953,-7.87574473 374.316989,-3.29043148 373.316508,0.261731256 C372.316026,3.81389399 371.610509,7.79296465 371.199955,12.1989432 Z" id="Path-17" fill="url(#linearGradient-6)" mask="url(#mask-2)" transform="translate(406.800111, 81.849487) scale(-1, 1) translate(-406.800111, -81.849487) "></path>
                </g>
                <path d="M121.597473,444.409266 C169.353156,444.409266 208.066787,428.298432 208.066787,408.42471 C208.066787,404.618785 208.066787,399.575482 208.066787,393.294803 C173.112227,385.38913 144.289123,381.436293 121.597473,381.436293 C101.37021,381.436293 72.5471056,385.38913 35.1281588,393.294803 C35.1281588,398.549918 35.1281588,403.59322 35.1281588,408.42471 C35.1281588,428.298432 73.8417894,444.409266 121.597473,444.409266 Z" id="Oval-15-Copy" fill="#AEB8EB"></path>
                <ellipse id="Oval-15" fill="#F9FDFF" cx="121.597473" cy="393.131274" rx="86.4693141" ry="35.984556"></ellipse>
                <path d="M30.8078335,316.630227 C23.3936572,305.804569 19.4394538,300.391741 18.9452233,300.391741 C18.2038776,300.391741 20.0757017,314.359973 24.8765284,320.940096 C28.0770796,325.326845 31.5550279,330.445851 35.3103735,336.297113 L38.0989217,342.684391 C34.1337422,338.098131 31.0958117,334.801276 28.9851302,332.793828 C26.8744486,330.78638 23.527813,327.880247 18.9452233,324.075429 C20.1427624,332.859996 22.7020803,339.646425 26.623177,344.434713 C30.5442737,349.223002 37.0088185,354.604166 46.0168114,360.578205 L54.2464291,373.161427 C48.7391095,366.476893 44.6710283,362.282486 42.0421857,360.578205 C39.413343,358.873925 33.6914572,355.56751 24.8765284,350.65896 C28.6650173,360.19956 33.978571,367.700382 40.8171893,373.161427 C51.0751168,381.352993 53.3077067,366.040785 53.3077067,364.905083 C53.3077067,363.769381 57.1133301,347.196368 57.1133301,341.348844 C57.1133301,337.450494 57.1133301,328.827874 57.1133301,315.480982 C51.7026732,325.100217 48.6547443,332.038928 47.9695436,336.297113 C47.2843429,340.555299 47.2843429,346.912249 47.9695436,355.367964 L38.0989217,336.297113 C38.0989217,327.779927 38.0989217,321.824662 38.0989217,318.431318 C38.0989217,315.037973 37.5927206,309.024781 36.5803184,300.391741 C34.2561125,303.9427 32.7778495,306.840692 32.1455292,309.085716 C31.513209,311.330741 31.0673105,313.845577 30.8078335,316.630227 Z" id="Path-17-Copy-3" fill="url(#linearGradient-7)" transform="translate(37.950853, 337.976639) rotate(-37.000000) translate(-37.950853, -337.976639) "></path>
                <ellipse id="Oval-18" fill-opacity="0.0299999993" fill="#000000" cx="122.047834" cy="393.581081" rx="38.2806859" ry="16.6428571"></ellipse>
                <path d="M98.3408223,29.9644916 C125.222567,26.6678891 151.22461,23.2546302 188.270547,23.2546302 C250.670227,23.2546302 313.593739,34.1666417 364.934795,57.4800883 C397.197537,72.1302681 421.028249,88.1694096 444.485851,103.76451 C450.439035,107.72231 450.33485,112.131361 450.986898,117.435327 C465.755698,237.569573 472.852901,295.30054 473.408581,299.820628 C474.253462,306.693164 465.303343,309.238442 463.851623,307.293969 C435.947365,284.454343 408.613103,267.5161 381.848837,256.47924 C341.702438,239.923951 273.486884,219.713296 212.367749,219.269151 C171.621659,218.973054 136.268761,218.75442 106.309055,218.613251 L85.625548,50.3668459 C83.1624743,38.1068775 87.4008991,31.3060927 98.3408223,29.9644916 Z" id="Path-52-Copy" fill="#DBDFE8" transform="translate(279.205650, 165.590930) rotate(7.000000) translate(-279.205650, -165.590930) "></path>
                <path d="M94.4648713,37.9978125 C119.902619,33.4604792 151.343342,31.1918126 188.78704,31.1918126 C251.18672,31.1918126 306.34271,40.3350766 357.683767,63.6485232 C389.577414,78.1311009 416.415075,93.288314 438.19675,109.120162 C442.160206,111.932171 442.996442,113.415493 443.778544,119.777361 L466.345814,303.347029 C466.467112,304.333706 465.765584,305.231896 464.778907,305.353194 C464.300883,305.41196 463.819247,305.276706 463.441701,304.977675 C434.326241,281.917168 406.892702,265.077278 381.141084,254.458008 C340.994685,237.902718 272.779132,217.692064 211.659997,217.247918 C170.913907,216.951821 136.624775,218.947699 108.792603,223.235552 L87.210857,47.6825785 C86.788868,42.2268448 91.641391,38.5014369 94.4648713,37.9978125 Z" id="Path-52" fill="#FCFCFC" transform="translate(277.034666, 169.459409) rotate(7.000000) translate(-277.034666, -169.459409) "></path>
                <g id="Group-36" transform="translate(85.568592, 133.142857)">
                    <path d="M41.3258016,12.1578731 C44.505013,17.2279187 46.0946187,21.3147638 46.0946187,24.4184083 C46.0946187,29.0738752 45.8650053,34.3504672 42.9202013,35.4475902 C40.9569986,36.1790055 39.2278726,36.4241865 37.7328233,36.1831331 C37.4815545,41.060336 37.7440642,43.8986568 38.5203525,44.6980954 C39.684785,45.8972533 46.9525694,49.05142 48.7002099,49.05142 C49.8653036,49.05142 50.1430218,50.3096855 49.5333643,52.8262166 L22.16573,57.2909871 L22.16573,9.28355943 L41.3258016,12.1578731 Z" id="Path-44" fill="#F2D0B6"></path>
                    <path d="M89.7918251,44.5262502 L79.7200606,65.7252482 C79.5067566,66.1742096 79.6977945,66.7110818 80.1467559,66.9243859 C80.1918864,66.9458277 80.238724,66.9634739 80.2867834,66.9771418 L88.9976931,69.4544893 C89.8291264,69.6909455 90.7112471,69.3030005 91.0989113,68.5304015 L101.771522,47.2603138 C101.99444,46.8160475 101.815002,46.2751879 101.370736,46.05227 C101.314325,46.0239653 101.255094,46.0016728 101.19402,45.9857603 L91.8714841,43.5568426 C91.0354514,43.3390205 90.1625729,43.7459021 89.7918251,44.5262502 Z" id="Path-49" fill="#515151"></path>
                    <path d="M63.5709695,66.2981632 C68.3846053,63.4324969 71.3259478,61.3797515 72.3949971,60.1399269 C73.998571,58.2801899 74.0423406,58.3775497 75.4696954,58.0265601 C76.8970502,57.6755705 77.591466,58.4485254 79.2733495,58.4485254 C80.955233,58.4485254 85.2885731,55.3606421 86.2806633,54.467958 C85.9153819,55.357476 86.7857931,55.7586725 83.8133729,58.0265601 C81.9670002,59.4352996 80.4172565,59.5680579 80.2174218,60.4349285 C80.2076637,60.4772588 80.37299,60.8743162 80.7134008,61.6261008 C81.5553979,61.9347947 82.2382208,62.0392833 82.7618693,61.9395666 C83.5473422,61.7899914 84.7596452,61.272215 85.0790827,61.4491579 C85.3985203,61.6261008 82.0316007,66.0274604 79.2733495,66.2981632 C76.5150983,66.568866 73.9258428,66.6730918 72.8704704,67.0490807 C72.1668888,67.29974 69.5446731,69.3305269 65.0038232,73.1414414 L63.5709695,66.2981632 Z" id="Path-45" fill="#F2D0B6"></path>
                    <path d="M64.7661933,75.702602 L69.4043978,87.5604032 C74.7549962,83.8230957 78.2499709,81.0724345 79.8893219,79.3084198 C81.528673,77.544405 84.0365942,74.1024044 87.4130857,68.9824179 C87.872323,69.2169692 88.5211295,69.3342449 89.3595053,69.3342449 C90.617069,69.3342449 90.4449818,63.9136035 89.9641179,62.6206964 C89.6435419,61.7587584 90.0096489,61.3037758 91.0624389,61.2557485 L92.7360544,64.5595349 C94.9169416,59.4462223 96.1396864,57.0082986 96.4042886,57.2457638 C96.7253367,57.5217775 99.8682314,65.8745948 91.7858255,74.9215845 C83.7034197,83.9685741 74.7712573,102.256737 68.1823762,102.755106 C63.7897889,103.087352 58.9662824,95.6260782 53.7118569,80.3712833 L64.7661933,75.702602 Z" id="Path-46" fill="#F2D0B6"></path>
                    <path d="M12.2377771,168.878994 C14.6477276,178.710554 15.8527028,185.000938 15.8527028,187.750146 C15.8527028,191.873957 12.9868706,200.723385 12.9868706,206.184096 C12.9868706,211.644807 12.9868706,242.484205 12.9868706,246.36771 C12.9868706,250.251216 12.9868706,251.952124 12.9868706,253.694539 C12.9868706,255.436954 11.0955266,257.794208 11.0955266,259.764808 C11.0955266,261.735408 12.5780302,263.568746 16.9176358,263.568746 C21.2572413,263.568746 22.4416101,260.589043 24.9980556,260.589043 C27.5545011,260.589043 33.3141769,258.81177 34.4312604,257.500015 C35.5483439,256.188259 38.9325154,254.123962 37.2404297,251.886857 C35.5483439,249.649753 31.2767928,253.173644 28.1374242,253.173644 C24.9980556,253.173644 21.1562091,252.936559 21.1562091,251.013672 C21.1562091,249.090786 31.3445208,196.669883 32.2218575,192.040855 C32.8067487,188.954836 33.1490429,182.940657 33.2487403,173.998318 L12.2377771,168.878994 Z" id="Path-47" fill="#F2D0B6"></path>
                    <path d="M39.3908319,174.452126 C40.9961348,185.282377 41.7987863,191.722033 41.7987863,193.771093 C41.7987863,196.844684 39.3908319,205.055923 39.3908319,213.998062 C39.3908319,222.940202 39.3908319,251.620698 39.3908319,255.314428 C39.3908319,259.008159 37.5284042,259.758711 37.5284042,263.313461 C37.5284042,266.868211 39.3973417,269.190911 42.8489746,269.190911 C46.3006075,269.190911 50.3553932,265.209183 53.0601327,265.209183 C55.7648721,265.209183 59.8726313,263.528497 62.3363574,262.88772 C64.8000835,262.246943 66.8960939,259.491998 65.3669914,257.403213 C63.8378889,255.314428 60.6040354,257.922704 56.8320841,257.922704 C53.0601327,257.922704 49.9353238,258.235196 48.8966121,256.774812 C47.8579005,255.314428 48.1281021,252.000423 48.8966121,248.903505 C49.6651221,245.806587 57.7767045,197.398632 58.9064863,193.771093 C59.6596741,191.352734 60.1264936,182.560329 60.3069449,167.393876 L39.3908319,174.452126 Z" id="Path-48" fill="#F2D0B6"></path>
                    <path d="M9.10597974,49.6486773 C3.60553727,53.4877653 0.855316028,57.5342524 0.855316028,61.7881384 C0.855316028,68.1689675 2.77494164,74.1472029 4.98064789,77.0500962 C7.18635413,79.9529895 9.41200946,82.338173 10.2956753,83.2137783 C10.8847858,83.7975151 11.711424,84.0893836 12.7755899,84.0893836 C14.1255996,88.5397951 14.8006044,92.8825952 14.8006044,97.1177838 C14.8006044,103.470567 3.66949859,130.766309 2.26240731,141.04166 C1.32434646,147.891895 0.581144389,155.289029 0.0328011096,163.233063 C8.87121017,171.461219 21.3327149,175.575297 37.4173154,175.575297 C53.5019158,175.575297 63.3138279,171.461219 66.8530516,163.233063 C63.964389,145.147392 61.3043511,132.384991 58.8729379,124.94586 C55.2258181,113.787163 52.8427109,109.157322 52.8427109,102.254127 C52.8427109,95.3509311 52.7851242,86.1730726 54.8476331,83.4848509 C54.2099717,81.7477532 53.8301026,80.7030189 53.7080257,80.3506481 C56.1512421,80.8663578 58.2972945,80.4451933 60.146183,79.0871545 C62.9195157,77.0500962 65.9478633,75.3148731 65.9478633,74.2207909 C65.9478633,73.1267088 60.3272911,56.7596925 58.8729379,54.8101506 C57.4185846,52.8606087 56.1833905,49.1581235 51.0808974,48.6140059 C49.6117872,49.3037868 46.1409167,50.2580297 40.6682861,51.4767344 L9.10597974,49.6486773 Z" id="Path-43" fill="#2F50DB"></path>
                    <path d="M9.10597974,49.6486773 C3.60553727,53.4877653 0.855316028,57.5342524 0.855316028,61.7881384 C0.855316028,68.1689675 2.77494164,74.1472029 4.98064789,77.0500962 C7.18635413,79.9529895 9.41200946,82.338173 10.2956753,83.2137783 C10.8847858,83.7975151 11.711424,84.0893836 12.7755899,84.0893836 C10.0458116,77.3297681 8.47896011,72.0544657 8.07503538,68.2634764 C7.67111066,64.4724871 8.01475878,58.2675541 9.10597974,49.6486773 Z" id="Path-43-Copy-2" fill="url(#linearGradient-8)"></path>
                    <path d="M53.7080257,80.3506481 C56.1512421,80.8663578 58.2972945,80.4451933 60.146183,79.0871545 C62.9195157,77.0500962 65.9478633,75.3148731 65.9478633,74.2207909 C65.9478633,73.1267088 60.3272911,56.7596925 58.8729379,54.8101506 C57.4185846,52.8606087 56.1833905,49.1581235 51.0808974,48.6140059 C49.6117872,49.3037868 46.1409167,50.2580297 40.6682861,51.4767344 L53.7080257,80.3506481 Z" id="Path-43-Copy" fill="url(#linearGradient-9)"></path>
                    <path d="M25.020634,1.64981973 C22.414211,0.20773441 19.2881988,0.20773441 15.6425972,1.64981973 C10.1741949,3.81294771 4.70014152,7.49482765 5.94433019,19.9129414 C7.18851886,32.3310551 8.39362061,29.2610972 8.39362061,35.1521992 C8.39362061,41.0433011 3.49503977,54.3673041 5.94433019,64.6349892 C8.39362061,74.9026743 20.3721153,82.7099718 25.020634,82.7099718 C29.6691527,82.7099718 46.741192,75.6406495 45.69856,65.7990991 C44.655928,55.9575488 40.7382877,52.600679 37.2322375,46.6169186 C34.8948707,42.627745 33.026861,36.7973178 31.6282083,29.1256371 C40.1043186,19.5394501 43.4133665,12.6461071 41.555352,8.44560795 C38.7683304,2.1448593 34.6686167,0.507704907 31.6282083,0.507704907 C29.6012694,0.507704907 27.3987446,0.888409849 25.020634,1.64981973 Z" id="Path-42" fill="#36353E"></path>
                    <path d="M53.6878461,80.4399474 L54.6241539,83.114458 C55.494725,83.5933911 56.9254001,83.4199982 58.9161792,82.5942791 C60.9069583,81.7685601 63.1653602,80.2148257 65.6913848,77.9330758 L64.8656703,75.7515339 C61.9338001,78.061049 59.6377236,79.5507505 57.9774409,80.2206384 C56.3171581,80.8905264 54.8872932,80.9636294 53.6878461,80.4399474 Z" id="Path-50" fill="#FFE192"></path>
                    <path d="M90.9418916,45.5644241 L83.0888801,61.862907 C82.8731246,62.3106955 83.0612245,62.8486041 83.5090129,63.0643597 C83.5545114,63.086282 83.6017745,63.1043356 83.6503016,63.1183293 L90.5407208,65.1053172 C90.9589921,65.2259339 91.403635,65.029899 91.5967179,64.6397474 L99.7226503,48.2201362 C99.9431183,47.774649 99.7607042,47.2347857 99.3152171,47.0143178 C99.2601191,46.9870502 99.2023722,46.9654997 99.1428811,46.9500039 L91.9795409,45.0841443 C91.5633307,44.9757327 91.1285826,45.1769575 90.9418916,45.5644241 Z" id="Path-51" fill="#6B6B6B"></path>
                    <path d="M92.3425877,56.645133 C93.5862253,56.645133 94.5943927,54.8326641 94.5943927,52.5968705 C94.5943927,50.3610768 93.5862253,48.5486079 92.3425877,48.5486079 C90.9976181,48.8950245 90.2684486,50.1851301 90.155079,52.4189248 C90.0998726,53.322366 90.1571608,53.9839416 90.3269436,54.4036516 C90.5816177,55.0332166 91.4601196,56.645133 92.3425877,56.645133 Z" id="Oval-17-Copy" fill="#FFFFFF" transform="translate(92.364576, 52.596870) rotate(22.000000) translate(-92.364576, -52.596870) "></path>
                    <path d="M92.3355906,56.6810854 C93.5792282,56.6810854 94.5873957,54.8686165 94.5873957,52.6328229 C94.5873957,50.3970292 93.5792282,48.5845603 92.3355906,48.5845603 C92.3355906,49.7928729 92.3355906,51.1422937 92.3355906,52.6328229 L90.3199465,54.439604 C90.6892166,55.7684845 91.4531225,56.6810854 92.3355906,56.6810854 Z" id="Oval-17" fill="#6482FD" transform="translate(92.453671, 52.632823) rotate(22.000000) translate(-92.453671, -52.632823) "></path>
                    <ellipse id="Oval-16" fill="#9B9B9B" transform="translate(85.578618, 66.129160) rotate(28.000000) translate(-85.578618, -66.129160) " cx="85.5786182" cy="66.1291596" rx="1" ry="1.34942085"></ellipse>
                </g>
                <ellipse id="Oval-19" fill="#EFF2F8" cx="155.82491" cy="76.9169884" rx="23.4187726" ry="24.7393822"></ellipse>
                <path d="M155.82491,101.656371 C162.915174,101.656371 169.269503,98.3277737 173.564017,93.0691143 L155.82491,76.9169884 L179.243682,76.9169884 C179.243682,63.2538049 168.758741,52.1776062 155.82491,52.1776062 C142.891079,52.1776062 132.406137,63.2538049 132.406137,76.9169884 C132.406137,90.5801719 142.891079,101.656371 155.82491,101.656371 Z" id="Oval-19-Copy-2" fill="#E6EAF1"></path>
                <ellipse id="Oval-19-Copy" fill="#EFF2F8" cx="155.82491" cy="156.083012" rx="23.4187726" ry="24.7393822"></ellipse>
                <path d="M155.82491,156.083012 L155.82491,131.343629 C142.891079,131.343629 132.406137,142.419828 132.406137,156.083012 C132.406137,163.373294 135.391183,169.927066 140.140542,174.454759 L155.82491,156.083012 Z" id="Oval-19-Copy-3" fill="#E6EAF1"></path>
                <g id="Group-37" transform="translate(195.456679, 67.471042)" stroke="#E6EAF1" stroke-linecap="round" stroke-linejoin="round" stroke-width="1.79999995">
                    <path d="M0.768981946,0.490627057 C45.0581001,4.33112895 76.0374541,13.1408569 93.7070438,26.9198111" id="Path-53"></path>
                    <path d="M0.900722022,17.0926641 C45.1898402,20.933166 76.1691941,29.742894 93.8387839,43.5218481" id="Path-53-Copy"></path>
                    <path d="M0.900722022,33.6330564 C19.5438162,36.1362356 32.2137298,37.9801262 38.9104627,39.1647281" id="Path-53-Copy-2"></path>
                </g>
                <g id="Group-37-Copy" transform="translate(195.456679, 143.938224)" stroke="#E6EAF1" stroke-linecap="round" stroke-linejoin="round" stroke-width="1.79999995">
                    <path d="M0.768981946,0.490627057 C45.0581001,4.33112895 76.0374541,13.1408569 93.7070438,26.9198111" id="Path-53"></path>
                    <path d="M0.900722022,17.0926641 C45.1898402,20.933166 76.1691941,29.742894 93.8387839,43.5218481" id="Path-53-Copy"></path>
                    <path d="M0.900722022,33.6330564 C19.5438162,36.1362356 32.2137298,37.9801262 38.9104627,39.1647281" id="Path-53-Copy-2"></path>
                </g>
                <polygon id="Rectangle-22" fill="#EFF2F8" points="313.451264 152.934363 324.090348 159.291348 324.090348 222.264321 313.451264 216.366842"></polygon>
                <polygon id="Rectangle-22-Copy-2" fill="#EFF2F8" points="360.288809 197.915058 370.927893 205.171657 370.927893 250.152352 360.288809 243.355259"></polygon>
                <polygon id="Rectangle-22-Copy-3" fill="#EFF2F8" points="381.005415 188.019305 391.6445 196.175518 391.6445 268.14463 381.005415 260.447923"></polygon>
                <polygon id="Rectangle-22-Copy" fill="#EFF2F8" points="339.572202 131.871794 350.211287 138.228779 350.211287 237.557757 339.572202 230.760664"></polygon>
                <g id="Group-39" filter="url(#filter-10)" transform="translate(294.536101, 123.247104)">
                    <polygon id="Rectangle-22-Copy-4" fill="url(#linearGradient-11)" points="0.815932125 5.3976834 11.4550166 11.7546686 11.4550166 111.083647 0.815932125 104.286553"></polygon>
                    <polygon id="Rectangle-22-Copy-6" fill="url(#linearGradient-12)" points="23.7696789 7.50766831 11.4550166 11.7546686 11.4550166 111.083647 23.7696789 106.396538"></polygon>
                    <polygon id="Rectangle-22-Copy-5" fill="url(#linearGradient-13)" points="0.815932125 5.3976834 11.4550166 11.7546686 23.7793679 7.51647637 13.1402834 0.719383145"></polygon>
                </g>
                <g id="Group-39-Copy" filter="url(#filter-14)" transform="translate(321.557762, 185.320463)">
                    <polygon id="Rectangle-22-Copy-4" fill="url(#linearGradient-11)" points="0 4.4980695 9.79985196 11.6536979 9.79985196 66.0019809 0 58.4062445"></polygon>
                    <polygon id="Rectangle-22-Copy-6" fill="url(#linearGradient-12)" points="21.6645781 7.22956475 9.80459987 11.6628439 9.80459987 66.0111269 21.6645781 61.1377397"></polygon>
                    <polygon id="Rectangle-22-Copy-5" fill="url(#linearGradient-15)" points="0 4.67830025 9.86982134 11.7561234 21.7207198 7.22411854 12.3243513 0"></polygon>
                </g>
                <path d="M486.811277,159.735623 C475.080285,142.606855 468.823794,134.042471 468.041803,134.042471 C466.868818,134.042471 469.830489,156.14354 477.42654,166.554862 C482.490574,173.495743 487.993517,181.595229 493.935367,190.853319 L498.347515,200.959514 C492.073657,193.702958 487.266927,188.486549 483.927326,185.310288 C480.587726,182.134027 475.292551,177.535832 468.041803,171.515705 C469.936595,185.414982 473.986046,196.152727 480.190154,203.72894 C486.394263,211.305153 492.446716,207.013279 498.347515,190.853319 C498.347515,177.377104 498.347515,167.954456 498.347515,162.585377 C498.347515,157.216298 497.546584,147.701996 495.944723,134.042471 C492.267276,139.660935 489.928311,144.246248 488.92783,147.798411 C487.927349,151.350574 487.221831,155.329644 486.811277,159.735623 Z" id="Path-17-Copy-2" fill="url(#linearGradient-16)" transform="translate(483.070574, 170.699362) scale(-1, 1) translate(-483.070574, -170.699362) "></path>
                <path d="M413.108171,158.05258 C429.03529,171.807675 437.812509,180.710969 439.439829,184.762462" id="Path-54" stroke="#E6EAF1" stroke-width="1.79999995" stroke-linecap="round" stroke-linejoin="round"></path>
                <path d="M413.431408,169.127413 C429.358527,182.882508 438.135746,191.785802 439.763066,195.837295" id="Path-54-Copy" stroke="#E6EAF1" stroke-width="1.79999995" stroke-linecap="round" stroke-linejoin="round"></path>
                <path d="M413.431408,179.023166 C429.358527,192.778261 438.135746,201.681554 439.763066,205.733048" id="Path-54-Copy-2" stroke="#E6EAF1" stroke-width="1.79999995" stroke-linecap="round" stroke-linejoin="round"></path>
                <path d="M413.108171,203.033275 C429.03529,216.78837 437.812509,225.691664 439.439829,229.743157" id="Path-54-Copy-5" stroke="#E6EAF1" stroke-width="1.79999995" stroke-linecap="round" stroke-linejoin="round"></path>
                <path d="M413.431408,214.108108 C429.358527,227.863203 438.135746,236.766497 439.763066,240.81799" id="Path-54-Copy-4" stroke="#E6EAF1" stroke-width="1.79999995" stroke-linecap="round" stroke-linejoin="round"></path>
                <path d="M413.431408,224.003861 C429.358527,237.758955 438.135746,246.662249 439.763066,250.713743" id="Path-54-Copy-3" stroke="#E6EAF1" stroke-width="1.79999995" stroke-linecap="round" stroke-linejoin="round"></path>
                <path d="M413.108171,255.210882 C429.03529,268.965976 437.812509,277.86927 439.439829,281.920764" id="Path-54-Copy-8" stroke="#E6EAF1" stroke-width="1.79999995" stroke-linecap="round" stroke-linejoin="round"></path>
                <path d="M413.431408,266.285714 C429.358527,280.040809 438.135746,288.944103 439.763066,292.995596" id="Path-54-Copy-7" stroke="#E6EAF1" stroke-width="1.79999995" stroke-linecap="round" stroke-linejoin="round"></path>
                <path d="M413.431408,276.181467 C429.358527,289.936562 438.135746,298.839856 439.763066,302.891349" id="Path-54-Copy-6" stroke="#E6EAF1" stroke-width="1.79999995" stroke-linecap="round" stroke-linejoin="round"></path>
            </g>
        </g>
    </g>
</svg>