<?xml version="1.0" encoding="UTF-8"?>
<svg width="130px" height="130px" viewBox="0 0 130 130" version="1.1" xmlns="http://www.w3.org/2000/svg" xmlns:xlink="http://www.w3.org/1999/xlink">
    <!-- Generator: Sketch 50.2 (55047) - http://www.bohemiancoding.com/sketch -->
    <title>Group 62</title>
    <desc>Created with Sketch.</desc>
    <defs></defs>
    <g id="Page-1" stroke="none" stroke-width="1" fill="none" fill-rule="evenodd">
        <g id="正道官网_20180626" transform="translate(-1430.000000, -6317.000000)" fill="#EFEFEF">
            <g id="Group-66" transform="translate(187.000000, 5492.000000)">
                <g id="Group-62" transform="translate(1243.000000, 825.000000)">
                    <path d="M35,130 C32.2385763,130 30,127.761424 30,125 C30,122.238576 32.2385763,120 35,120 C37.7614237,120 40,122.238576 40,125 C40,127.761424 37.7614237,130 35,130 Z M5,130 C2.23857625,130 0,127.761424 0,125 C0,122.238576 2.23857625,120 5,120 C7.76142375,120 10,122.238576 10,125 C10,127.761424 7.76142375,130 5,130 Z M125,100 C122.238576,100 120,97.7614237 120,95 C120,92.2385763 122.238576,90 125,90 C127.761424,90 130,92.2385763 130,95 C130,97.7614237 127.761424,100 125,100 Z M95,100 C92.2385763,100 90,97.7614237 90,95 C90,92.2385763 92.2385763,90 95,90 C97.7614237,90 100,92.2385763 100,95 C100,97.7614237 97.7614237,100 95,100 Z M65,100 C62.2385763,100 60,97.7614237 60,95 C60,92.2385763 62.2385763,90 65,90 C67.7614237,90 70,92.2385763 70,95 C70,97.7614237 67.7614237,100 65,100 Z M35,100 C32.2385763,100 30,97.7614237 30,95 C30,92.2385763 32.2385763,90 35,90 C37.7614237,90 40,92.2385763 40,95 C40,97.7614237 37.7614237,100 35,100 Z M5,100 C2.23857625,100 0,97.7614237 0,95 C0,92.2385763 2.23857625,90 5,90 C7.76142375,90 10,92.2385763 10,95 C10,97.7614237 7.76142375,100 5,100 Z M125,70 C122.238576,70 120,67.7614237 120,65 C120,62.2385763 122.238576,60 125,60 C127.761424,60 130,62.2385763 130,65 C130,67.7614237 127.761424,70 125,70 Z M95,70 C92.2385763,70 90,67.7614237 90,65 C90,62.2385763 92.2385763,60 95,60 C97.7614237,60 100,62.2385763 100,65 C100,67.7614237 97.7614237,70 95,70 Z M65,70 C62.2385763,70 60,67.7614237 60,65 C60,62.2385763 62.2385763,60 65,60 C67.7614237,60 70,62.2385763 70,65 C70,67.7614237 67.7614237,70 65,70 Z M35,70 C32.2385763,70 30,67.7614237 30,65 C30,62.2385763 32.2385763,60 35,60 C37.7614237,60 40,62.2385763 40,65 C40,67.7614237 37.7614237,70 35,70 Z M5,70 C2.23857625,70 0,67.7614237 0,65 C0,62.2385763 2.23857625,60 5,60 C7.76142375,60 10,62.2385763 10,65 C10,67.7614237 7.76142375,70 5,70 Z M125,40 C122.238576,40 120,37.7614237 120,35 C120,32.2385763 122.238576,30 125,30 C127.761424,30 130,32.2385763 130,35 C130,37.7614237 127.761424,40 125,40 Z M95,40 C92.2385763,40 90,37.7614237 90,35 C90,32.2385763 92.2385763,30 95,30 C97.7614237,30 100,32.2385763 100,35 C100,37.7614237 97.7614237,40 95,40 Z M65,40 C62.2385763,40 60,37.7614237 60,35 C60,32.2385763 62.2385763,30 65,30 C67.7614237,30 70,32.2385763 70,35 C70,37.7614237 67.7614237,40 65,40 Z M35,40 C32.2385763,40 30,37.7614237 30,35 C30,32.2385763 32.2385763,30 35,30 C37.7614237,30 40,32.2385763 40,35 C40,37.7614237 37.7614237,40 35,40 Z M5,40 C2.23857625,40 0,37.7614237 0,35 C0,32.2385763 2.23857625,30 5,30 C7.76142375,30 10,32.2385763 10,35 C10,37.7614237 7.76142375,40 5,40 Z M125,10 C122.238576,10 120,7.76142375 120,5 C120,2.23857625 122.238576,0 125,0 C127.761424,0 130,2.23857625 130,5 C130,7.76142375 127.761424,10 125,10 Z M95,10 C92.2385763,10 90,7.76142375 90,5 C90,2.23857625 92.2385763,0 95,0 C97.7614237,0 100,2.23857625 100,5 C100,7.76142375 97.7614237,10 95,10 Z M65,10 C62.2385763,10 60,7.76142375 60,5 C60,2.23857625 62.2385763,0 65,0 C67.7614237,0 70,2.23857625 70,5 C70,7.76142375 67.7614237,10 65,10 Z M35,10 C32.2385763,10 30,7.76142375 30,5 C30,2.23857625 32.2385763,0 35,0 C37.7614237,0 40,2.23857625 40,5 C40,7.76142375 37.7614237,10 35,10 Z M5,10 C2.23857625,10 0,7.76142375 0,5 C0,2.23857625 2.23857625,0 5,0 C7.76142375,0 10,2.23857625 10,5 C10,7.76142375 7.76142375,10 5,10 Z" id="Combined-Shape"></path>
                </g>
            </g>
        </g>
    </g>
</svg>