<?xml version="1.0" encoding="UTF-8"?>
<svg width="64px" height="51px" viewBox="0 0 64 51" version="1.1" xmlns="http://www.w3.org/2000/svg" xmlns:xlink="http://www.w3.org/1999/xlink">
    <!-- Generator: Sketch 50.2 (55047) - http://www.bohemiancoding.com/sketch -->
    <title>Group 9</title>
    <desc>Created with Sketch.</desc>
    <defs></defs>
    <g id="Page-1" stroke="none" stroke-width="1" fill="none" fill-rule="evenodd">
        <g id="正道官网_20180626" transform="translate(-1074.000000, -3898.000000)">
            <g id="Group-43" transform="translate(0.000000, 3334.000000)">
                <g id="Group-9" transform="translate(1074.000000, 558.000000)">
                    <g id="Page-1" transform="translate(0.000000, 6.000000)">
                        <rect id="Rectangle-13" fill="#D2DBFF" x="0" y="0" width="25" height="41"></rect>
                        <polyline id="Stroke-2" stroke="#231815" stroke-width="2" points="36.391 15.3022 5.5 15.3022 5.5 4.5002 42.055 4.5002 42.055 9.3062"></polyline>
                        <path d="M8.9958,9.9011 L18.7468,9.9011" id="Stroke-4" stroke="#231815" stroke-width="2"></path>
                        <polyline id="Stroke-6" stroke="#231815" stroke-width="2" points="30.0903 30.2598 5.5003 30.2598 5.5003 19.4578 36.5043 19.4578"></polyline>
                        <path d="M8.9958,24.8586 L18.7468,24.8586" id="Stroke-8" stroke="#231815" stroke-width="2"></path>
                        <polyline id="Stroke-10" stroke="#231815" stroke-width="2" points="30.2049 44.943 5.4999 44.943 5.4999 34.141 30.0899 34.141"></polyline>
                        <path d="M8.9958,39.5418 L18.7468,39.5418" id="Stroke-12" stroke="#231815" stroke-width="2"></path>
                        <polygon id="Stroke-13-Copy" fill="#7993FF" points="36 49.1902 62.75 49.1902 62.75 30 36 30"></polygon>
                        <polygon id="Stroke-13" stroke="#231815" stroke-width="2" points="33.494 49.1902 62.75 49.1902 62.75 27.3322 33.494 27.3322"></polygon>
                        <path d="M57.2541,27.3319 L57.2541,20.1249 C57.2541,15.0809 53.1661,10.9929 48.1221,10.9929 C43.0791,10.9929 38.9901,15.0809 38.9901,20.1249 L38.9901,27.3319" id="Stroke-15" stroke="#231815" stroke-width="2"></path>
                        <path d="M48.1223,34.4747 L48.1223,41.3527" id="Stroke-16" stroke="#231815" stroke-width="2"></path>
                    </g>
                </g>
            </g>
        </g>
    </g>
</svg>