<?xml version="1.0" encoding="UTF-8"?>
<svg width="80px" height="292px" viewBox="0 0 80 292" version="1.1" xmlns="http://www.w3.org/2000/svg" xmlns:xlink="http://www.w3.org/1999/xlink">
    <!-- Generator: Sketch 50.2 (55047) - http://www.bohemiancoding.com/sketch -->
    <title>Group 4 Copy 9</title>
    <desc>Created with Sketch.</desc>
    <defs></defs>
    <g id="Page-1" stroke="none" stroke-width="1" fill="none" fill-rule="evenodd">
        <g id="Group-10-Copy-2" transform="translate(-400.000000, -127.000000)">
            <g id="Group-78" transform="translate(220.000000, 83.000000)">
                <g id="Group-4-Copy-9" transform="translate(180.000000, 44.000000)">
                    <path d="M0.00245369723,146 L78,146" id="Path-2" stroke="#188FFF"></path>
                    <path d="M1,126 L17.7648029,126 C28.8104979,126 37.7648029,117.045695 37.7648029,106 L37.7648029,26 C37.7648029,14.954305 46.7191079,6 57.7648029,6 L74,6" id="Path-2" stroke="#188FFF"></path>
                    <path d="M2,286 L17.7648029,286 C28.8104979,286 37.7648029,277.045695 37.7648029,266 L37.7648029,186 C37.7648029,174.954305 46.7191079,166 57.7648029,166 L74,166" id="Path-2-Copy-2" stroke="#188FFF" transform="translate(38.000000, 226.000000) scale(1, -1) translate(-38.000000, -226.000000) "></path>
                    <polygon id="Triangle" fill="#188FFF" points="71 12 71 0 80 6"></polygon>
                    <polygon id="Triangle-Copy-4" fill="#188FFF" transform="translate(4.500000, 126.000000) scale(-1, 1) translate(-4.500000, -126.000000) " points="0 132 0 120 9 126"></polygon>
                    <polygon id="Triangle-Copy-5" fill="#188FFF" transform="translate(4.500000, 166.000000) scale(-1, 1) translate(-4.500000, -166.000000) " points="0 172 0 160 9 166"></polygon>
                    <polygon id="Triangle-Copy" fill="#188FFF" points="71 152 71 140 80 146"></polygon>
                    <polygon id="Triangle-Copy-6" fill="#188FFF" points="71 292 71 280 80 286"></polygon>
                </g>
            </g>
        </g>
    </g>
</svg>