<?xml version="1.0" encoding="UTF-8"?>
<svg width="415px" height="390px" viewBox="0 0 415 390" version="1.1" xmlns="http://www.w3.org/2000/svg" xmlns:xlink="http://www.w3.org/1999/xlink">
  <!-- Generator: Sketch 50.2 (55047) - http://www.bohemiancoding.com/sketch -->
  <title>Group 9</title>
  <desc>Created with Sketch.</desc>
  <defs>
    <path d="M28.2086584,15.9995796 C83.8875874,-29.0350624 110.852124,30.3949493 167.513078,78.4047866 C224.174033,126.414624 356.377792,138.632858 339.178865,201.600495 C321.979937,264.568132 119.626521,351.845702 54.1938954,296.951178 C-11.2387305,242.056654 16.4576353,199.730729 16.4576353,153.393647 C16.4576353,107.056564 -27.4702706,61.0342216 28.2086584,15.9995796 Z"
      id="page-1-1-path-1"></path>
    <linearGradient x1="8.2858576%" y1="0%" x2="81.8549579%" y2="107.071094%" id="page-1-1-linearGradient-3">
      <stop stop-color="#D0F3DD" offset="0%"></stop>
      <stop stop-color="#8AC39C" offset="95.9074498%"></stop>
      <stop stop-color="#87C199" offset="100%"></stop>
    </linearGradient>
    <linearGradient x1="50%" y1="26.0136948%" x2="15.148969%" y2="100%" id="page-1-1-linearGradient-4">
      <stop stop-color="#FFFFFF" stop-opacity="0" offset="0%"></stop>
      <stop stop-color="#FFFFFF" stop-opacity="0.2" offset="100%"></stop>
    </linearGradient>
    <linearGradient x1="81.6887585%" y1="95.4670922%" x2="46.9856141%" y2="21.9845475%" id="page-1-1-linearGradient-5">
      <stop stop-color="#FFFFFF" stop-opacity="0.3" offset="0%"></stop>
      <stop stop-color="#FFFFFF" stop-opacity="0" offset="100%"></stop>
    </linearGradient>
    <filter x="-25.5%" y="-14.6%" width="139.8%" height="143.4%" filterUnits="objectBoundingBox" id="page-1-1-filter-6">
      <feOffset dx="-6" dy="7" in="SourceAlpha" result="shadowOffsetOuter1"></feOffset>
      <feGaussianBlur stdDeviation="6" in="shadowOffsetOuter1" result="shadowBlurOuter1"></feGaussianBlur>
      <feColorMatrix values="0 0 0 0 0   0 0 0 0 0   0 0 0 0 0  0 0 0 0.15 0" type="matrix" in="shadowBlurOuter1" result="shadowMatrixOuter1"></feColorMatrix>
      <feMerge>
        <feMergeNode in="shadowMatrixOuter1"></feMergeNode>
        <feMergeNode in="SourceGraphic"></feMergeNode>
      </feMerge>
    </filter>
    <linearGradient x1="100%" y1="18.5079518%" x2="0%" y2="66.9425287%" id="page-1-1-linearGradient-7">
      <stop stop-color="#6986FE" offset="0%"></stop>
      <stop stop-color="#284AD6" offset="100%"></stop>
    </linearGradient>
    <linearGradient x1="84.9018542%" y1="13.5057964%" x2="18.5265538%" y2="91.0979285%" id="page-1-1-linearGradient-8">
      <stop stop-color="#889EFF" offset="0%"></stop>
      <stop stop-color="#5B79F6" offset="100%"></stop>
    </linearGradient>
    <linearGradient x1="12.1688326%" y1="4.65529817%" x2="97.7658111%" y2="95.3328112%" id="page-1-1-linearGradient-9">
      <stop stop-color="#3356E6" offset="0%"></stop>
      <stop stop-color="#05229F" offset="100%"></stop>
    </linearGradient>
    <linearGradient x1="8.2858576%" y1="0%" x2="75.2881646%" y2="96.8983248%" id="page-1-1-linearGradient-10">
      <stop stop-color="#D0F3DD" offset="0%"></stop>
      <stop stop-color="#93C9A4" offset="100%"></stop>
    </linearGradient>
  </defs>
  <g id="Page-1" stroke="none" stroke-width="1" fill="none" fill-rule="evenodd">
    <g id="正道官网_20180626" transform="translate(-383.000000, -888.000000)">
      <g id="Group-9" transform="translate(383.000000, 888.000000)">
        <g id="Group-6" transform="translate(73.817787, 75.658199)">
          <mask id="mask-2" fill="white">
            <use xlink:href="#page-1-1-path-1"></use>
          </mask>
          <use id="Path-11" fill="#EDEFF9" xlink:href="#page-1-1-path-1"></use>
          <path d="M3.93592156,154.523043 C-7.78849228,137.373732 -14.0414751,128.799076 -14.8230269,128.799076 C-15.9953545,128.799076 -13.0353439,150.926652 -5.44355266,161.35046 C-0.382358504,168.299666 5.11749798,176.408866 11.0560168,185.67806 L15.4656897,195.796376 C9.19534995,188.531116 4.39131608,183.308451 1.05358807,180.12838 C-2.28413995,176.94831 -7.57634492,172.344601 -14.8230269,166.317253 C-12.9292974,180.2332 -8.88211798,190.983824 -2.68148852,198.569123 C3.51914094,206.154422 13.7418542,214.678917 27.9866511,224.142606 L41.0005638,244.076136 C32.2915594,233.486928 25.858496,226.842417 21.7013735,224.142606 C17.5442509,221.442794 8.49594224,216.204984 -5.44355266,208.429175 C0.547377405,223.54278 8.94996978,235.425101 19.7642245,244.076136 C35.9856065,257.052689 50.9035897,266.950949 53.442653,271.092189 C55.1353619,273.853015 57.2682971,282.705321 59.8414588,297.649106 C48.0776002,281.684918 40.2318082,271.873489 36.3040829,268.214821 C32.3763576,264.556152 20.1518536,254.572678 -0.369429091,238.264397 C6.6230893,254.131106 11.9014622,263.69329 15.4656897,266.950949 C20.8120309,271.837437 46.6858437,299.846108 48.58551,301.441853 C50.4851763,303.037598 58.3124151,313.93921 58.3124151,317.116885 C58.3124151,319.235336 62.6490063,320.058363 71.3221889,319.585966 C79.1218879,298.345278 84.4716833,282.650473 87.3715753,272.501554 C90.2714672,262.352634 92.515371,248.922292 94.1032867,232.210529 C87.9340674,239.348298 83.8882178,245.25607 81.9657381,249.933847 C80.0432583,254.611624 75.3954967,268.115032 68.0224532,290.444071 C64.3391114,282.295001 62.0547769,277.267314 61.1694497,275.36101 C59.8414588,272.501554 68.0224532,257.49434 68.0224532,246.007215 C68.0224532,234.52009 68.3150704,193.547195 64.74226,192.425409 C61.1694497,191.303622 54.5241588,227.21217 54.5241588,230.996967 C54.5241588,233.520165 54.5241588,242.772313 54.5241588,258.753411 C44.5187959,241.448519 39.5161144,232.196371 39.5161144,230.996967 C39.5161144,229.197861 45.5341401,202.943959 45.5341401,193.680687 C45.5341401,187.505172 45.5341401,173.845771 45.5341401,152.702483 C36.9779933,167.940657 32.1581485,178.932516 31.0746058,185.67806 C29.991063,192.423604 29.991063,202.493876 31.0746058,215.888876 L15.4656897,185.67806 C15.4656897,172.185682 15.4656897,162.751733 15.4656897,157.376215 C15.4656897,152.000696 14.6652082,142.474983 13.0642453,128.799076 C9.38886033,134.424278 7.05120782,139.015091 6.05128774,142.571514 C5.05136766,146.127937 4.3462456,150.11178 3.93592156,154.523043 Z"
            id="Path-17" fill="url(#page-1-1-linearGradient-3)" mask="url(#mask-2)"></path>
          <path d="M194.377537,217.24188 L198.047722,215.265589 C198.047722,215.265589 195.600932,245.898105 193.230337,246.734065 C190.859742,247.570733 187.725059,238.8289 189.636346,231.608216 C191.548347,224.386825 194.326265,221.127926 194.556275,219.911856 C194.785573,218.695785 194.377537,217.24188 194.377537,217.24188"
            id="Fill-9" fill="#F2D0B6" mask="url(#mask-2)"></path>
          <path d="M194.031271,241.385681 C194.031271,241.385681 192.940846,261.109038 194.031271,272.06701 C195.121696,283.024273 198.364758,299.930716 198.364758,299.930716 L275.763774,292.186506 L277.266811,252.416645 C277.266811,252.416645 264.618304,258.247479 230.899062,253.201837 C197.180526,248.156196 194.031271,241.385681 194.031271,241.385681"
            id="Fill-11" fill="#0B29A9" mask="url(#mask-2)"></path>
        </g>
        <g id="Group-3" transform="translate(238.557484, 145.912240)">
          <path d="M67.4185733,24.071836 C66.9324964,27.0345625 64.7677979,29.1429434 62.5848461,28.7819332 C60.4012183,28.4202444 59.0254651,25.7262398 59.5122181,22.7635134 C59.998295,19.8014655 62.1629935,17.6930846 64.3459453,18.0540948 C66.5295731,18.415105 67.9046502,21.1091096 67.4185733,24.071836 Z"
            id="Stroke-1" stroke="#494953" stroke-width="1.35000005"></path>
          <path d="M72.2107063,11.765532 C69.9434072,12.1553657 67.6521676,14.3836919 66.0228104,16.7071854 C63.3844346,20.4687634 64.7236902,22.2050391 61.710013,28.1427775 C59.0131945,33.4573459 58.4801679,34.166519 56.8149001,38.8783608 C55.6988537,42.0365073 55.3714332,44.6701759 56.581833,46.6961833 C58.8836345,50.550109 64.8293097,48.2421242 67.7282136,51.1951322 C69.6117618,53.1125783 65.6953898,60.37984 67.5338737,65.2122271 C70.3623646,72.6444456 87.8459168,72.4245033 89.9167637,68.2843706 C90.5723089,66.9731758 89.615396,65.912236 90.0061882,62.3677805 C90.3469872,59.2723739 91.6285041,56.3130214 91.9580371,55.6799822 C96.155357,47.6288235 82.1516161,10.0560442 72.2107063,11.765532"
            id="Fill-3" fill="#F2D0B6"></path>
          <path d="M60.3145336,20.7159353 L70.6430421,28.3858564" id="Stroke-7" stroke="#494953" stroke-width="1.35000005"></path>
          <path d="M20.2468877,112.294375 L35.0527009,98.6365407 C35.0527009,98.6365407 35.5522251,105.670733 35.5522251,114.99037 C35.5522251,124.310006 34.9616859,131.531196 34.9616859,131.531196 L20.2468877,112.294375 Z M115.682119,84.6279111 C100.512245,72.7697507 48.0071701,63.4712038 46.1332487,62.5073944 C45.1786495,62.0159992 43.1840803,62.055367 42.1892651,62.4609965 C39.8750851,63.4044191 35.2636581,65.7461035 29.0859264,71.1577776 C20.0147641,79.1044604 2.6330146,99.1223119 0.400677553,105.93506 C-3.86785568,118.960196 27.3763965,150.09314 27.3763965,150.09314 L33.3135382,145.839302 L29.1691804,171.440359 C29.1691804,171.440359 47.8180846,189.195965 65.4312522,190.641328 C83.0437142,192.086691 106.26602,183.959946 106.961708,183.648958 C106.961708,186.056764 107.511764,189.232323 108.611875,193.175634 C108.611875,193.175634 110.540124,195.257209 118.092252,194.296211 C125.645087,193.335917 126.930586,190.774194 126.930586,190.774194 C126.930586,190.774194 119.764723,161.940755 120.40465,137.929175 C121.043872,113.934468 124.552201,91.5608717 115.682119,84.6279111 Z"
            id="Fill-13" fill="#2F50DB"></path>
          <polygon id="Path-12-Copy-3" fill="#829AFF" points="76.5184382 176.406951 137.448868 152.21709 144.689632 198.499379 85.2102615 223.656556"></polygon>
          <polygon id="Path-12-Copy-2" stroke="#FFA291" stroke-width="0.900000036" fill="#FEFFFF" points="78.0886873 178.037668 139.019117 153.847807 146.259881 200.130096 86.7805106 225.287273"></polygon>
          <polygon id="Path-12-Copy-5" stroke="#93A8FC" stroke-width="0.900000036" fill="#FEFFFF" points="62.1903162 199.527282 105.481169 172.942325 123.229693 206.649606 74.5201134 232.598271"></polygon>
          <polygon id="Path-12-Copy-4" stroke="#FFA291" stroke-width="0.900000036" fill="#FEFFFF" points="64.7024569 200.958561 105.481169 172.942325 123.367258 200.958561 82.8582017 229.905227"></polygon>
          <ellipse id="Oval-4" stroke="#FFA291" stroke-width="0.900000036" cx="85.9707158" cy="206.709007" rx="8.10184384" ry="8.10588916"></ellipse>
          <path d="M85.9707158,205.877744 L79.7708459,202.221015 C78.8574141,203.482004 78.318872,205.03258 78.318872,206.709007 C78.318872,210.106289 80.5305087,212.986742 83.5918249,213.98769 L85.9707158,205.877744 Z"
            id="Oval-4-Copy" fill="#FFA291"></path>
          <polygon id="Path-12" stroke="#829AFF" stroke-width="0.900000036" fill="#FEFFFF" points="79.8891211 178.938361 140.819551 154.7485 148.060315 201.030789 88.5809444 226.187965"></polygon>
          <polygon id="Path-12-Copy" fill="#829AFF" points="81.6895549 179.839054 142.619985 155.649192 149.860749 201.931482 90.3813783 227.088658"></polygon>
          <path d="M111.602309,185.284226 L122.592158,182.840647 C122.592158,182.840647 123.924479,190.837898 125.2568,193.281478 C126.589121,195.725058 128.586702,198.056952 129.808296,199.389977 C131.02899,200.723002 132.572863,207.381824 132.583665,208.497783 C132.596268,209.914573 132.595368,210.957575 130.541973,211.733972 C128.913481,212.350046 129.663361,208.877875 128.809056,208.719353 C127.923242,208.555427 128.178904,210.966582 128.194207,212.373464 C128.210411,213.763233 123.239413,216.317598 120.882646,216.846305 C118.524977,217.375912 115.735205,218.242379 114.628839,216.365335 C113.522472,214.488291 110.587765,209.964111 110.7318,203.898845 C110.875834,197.83448 112.944533,195.861062 113.089468,193.550785 C113.233502,191.240508 111.602309,185.284226 111.602309,185.284226"
            id="Fill-1" fill="#F2D0B6"></path>
          <path d="M74.1685672,29.7017593 C76.1594478,31.9682009 73.7966992,33.523602 73.1987239,36.7902971 C71.9608228,43.5564683 82.3105578,56.6380619 90.5264954,55.8049877 C94.297792,55.4233677 96.0597213,53.3692507 96.6768943,52.8056382 C100.325894,49.471225 99.4954124,47.7655742 102.621095,43.7871333 C105.703405,39.8644187 106.346175,41.4332224 108.787137,37.9873564 C109.525184,36.9461899 112.615315,31.1584048 111.308445,25.8651032 C110.735355,23.5464621 109.864345,24.0056758 108.61009,20.3644148 C107.466045,17.0426987 109.08008,15.8724445 106.784879,12.5302719 C104.970334,9.88644274 101.797013,9.82507317 93.9053041,5.53907896 C84.2374458,0.288806595 77.7485971,-2.42908934 71.8036855,2.86562306 C66.0443523,7.99527248 76.3315168,13.19264 73.9588137,16.3126125 C72.6277678,18.0619979 71.5185629,16.6236927 70.6397314,18.3639079 C69.4594236,20.6980677 68.9545932,26.6297539 69.5994963,28.655655 C69.7111278,29.0062375 70.0538436,29.23267 70.4214455,29.1896408 C72.0255265,29.0012997 73.3423518,28.7614646 74.1685672,29.7017593"
            id="Fill-5" fill="#36353E"></path>
          <path d="M105.58561,131.785468 C105.453469,156.615321 106.921663,182.083923 106.921663,183.659054 C106.921663,185.853085 107.485067,189.025278 108.611875,193.175634 C108.611875,193.175634 110.540124,195.257209 118.092252,194.296211 C125.645087,193.335917 126.930586,190.774194 126.930586,190.774194 C126.930586,190.774194 119.764723,161.940755 120.40465,137.929175 C121.043872,113.934468 105.729561,104.736313 105.58561,131.785468 Z"
            id="Fill-13-Copy-2" fill="#2F50DB"></path>
          <path d="M105.58561,131.785468 C105.453469,156.615321 106.921663,182.083923 106.921663,183.659054 C106.921663,185.853085 107.485067,189.025278 108.611875,193.175634 C108.611875,193.175634 110.540124,195.257209 118.092252,194.296211 C125.645087,193.335917 126.930586,190.774194 126.930586,190.774194 C126.930586,190.774194 119.764723,161.940755 120.40465,137.929175 C121.043872,113.934468 105.729561,104.736313 105.58561,131.785468 Z"
            id="Fill-13-Copy-3" fill="url(#page-1-1-linearGradient-4)"></path>
          <path d="M0.400677553,105.93506 C-3.86785568,118.960196 27.3763965,150.09314 27.3763965,150.09314 L33.3135382,145.839302 L35.0207013,131.654391 L20.366746,112.624182 C8.5442584,103.622935 1.88890225,101.393228 0.400677553,105.93506 Z"
            id="Fill-13-Copy" fill="url(#page-1-1-linearGradient-5)"></path>
          <path d="M65.2497953,63.1154069 L60.0031504,65.2245 C59.5041469,65.4249868 59.276681,66.0090768 59.5005928,66.5055894 C60.5533337,68.8419493 64.2979923,74.9079442 75.4217893,77.1646882 C89.325647,79.9845327 95.035043,77.1125761 96.8597466,75.7323289 C97.2805587,75.4138659 97.3431118,74.7957584 97.0111537,74.3817566 L92.4184735,68.6660709 C92.1568876,68.3410939 91.7204372,68.2303557 91.3401426,68.3917585 C89.4870057,69.1777829 83.7619715,71.2217358 77.2009998,69.7372643 C70.7914351,68.2868105 67.4036137,64.7460818 66.3075121,63.3918906 C66.0501912,63.0748752 65.625825,62.964137 65.2497953,63.1154069"
            id="Fill-15" fill="#FFE192"></path>
        </g>
        <g id="Group-7">
          <path d="M0.424759883,130.880344 L0.424759883,315.797116 L6.3131905,321.238013 L239.364549,200.25403 L239.364549,6.960531 C238.613942,2.61458006 235.681405,0.376679436 230.566938,0.246829118 C222.895238,0.0520536402 220.718858,1.00796363 216.611876,2.60448865 C149.340951,36.0084351 82.0135803,70.8417911 14.6297643,107.104557 L14.6297635,107.104555 C5.88102416,111.812711 0.424759883,120.945196 0.424759883,130.880344 Z"
            id="Path-13-Copy" fill="#D1D6E7" opacity="0.555803571"></path>
          <path d="M6.30151844,130.361834 L6.30151844,319.745958 L238.557484,199.567499 L238.557484,7.4798837 C238.557484,4.00048964 235.736878,1.17988345 232.257483,1.17988345 C231.241975,1.17988345 230.241516,1.42537003 229.341347,1.89542736 L16.9365196,112.810685 C10.3997254,116.224121 6.30151844,122.987471 6.30151844,130.361834 Z"
            id="Path-13" fill="#FCFCFC"></path>
        </g>
        <path d="M102.339929,85.6330388 L165.997775,51.8637589 C166.890136,51.3903782 167.997289,51.730029 168.47067,52.6223903 C168.610715,52.8863875 168.683941,53.1806787 168.683941,53.4795219 L168.683941,53.4795219 C168.683941,55.3483538 167.644892,57.0621922 165.987907,57.9264439 L102.348804,91.1193679 C101.536925,91.5428286 100.535484,91.2279529 100.112023,90.4160733 C99.988554,90.1793525 99.9240781,89.9163156 99.9240781,89.64933 L99.9240781,89.64933 C99.9240781,87.9666554 100.853459,86.4215827 102.339929,85.6330388 Z"
          id="Path-14" fill="#E5E8F1"></path>
        <ellipse id="Oval-5" fill="#E5E8F1" cx="94.0726681" cy="92.3210162" rx="2.2505423" ry="3.15242494"></ellipse>
        <path d="M6.58354015,156.81951 L239.043034,35.1380955" id="Path-15" stroke="#E5E8F1" stroke-width="1.80000007"></path>
        <polygon id="Path-16" fill="#EBEFF9" points="30.4760225 172.961023 30.4760225 221.415278 110.726681 178.571251 110.726681 130.600462"></polygon>
        <polygon id="Path-16-Copy" fill="#EBEFF9" points="134.132321 118.01876 134.132321 166.473014 214.38298 123.628988 214.38298 75.6581986"></polygon>
        <polygon id="Path-16-Copy-3" fill="#EBEFF9" opacity="0.5" points="30.4760225 236.910215 30.4760225 285.364469 110.726681 242.520443 110.726681 194.549654"></polygon>
        <polygon id="Path-16-Copy-2" fill="#EBEFF9" opacity="0.5" points="134.132321 181.967952 134.132321 230.422206 214.38298 187.57818 214.38298 139.60739"></polygon>
        <g id="Group-8" filter="url(#page-1-1-filter-6)" transform="translate(154.837310, 57.644342)">
          <polygon id="Path-16-Copy-4" fill="url(#page-1-1-linearGradient-7)" points="27.0065076 50.466797 27.0065076 98.9210513 107.257166 56.077025 107.257166 8.10623557"></polygon>
          <ellipse id="Oval-7" fill="#001A8A" transform="translate(40.647215, 68.491437) rotate(7.000000) translate(-40.647215, -68.491437) "
            cx="40.6472147" cy="68.4914367" rx="6.30151844" ry="11.7090069"></ellipse>
          <polygon id="Path-16-Copy-6" fill="url(#page-1-1-linearGradient-8)" points="27.0065076 50.466797 0.360836766 43.2383414 80.6114954 0.394315109 107.257166 8.10623557"></polygon>
          <polygon id="Path-16-Copy-5" fill="url(#page-1-1-linearGradient-9)" points="27.0065076 50.466797 27.0065076 98.9210513 0.363036378 91.2091472 0.363036378 43.2383577"></polygon>
        </g>
        <path d="M77.753709,230.181241 C66.0292951,213.03193 59.7763123,204.457275 58.9947606,204.457275 C57.8224329,204.457275 60.7824435,226.584851 68.3742348,237.008659 C73.4354289,243.957864 78.9352854,252.067064 84.8738042,261.336259 L89.2834771,271.454574 C83.0131374,264.189315 78.2091035,258.96665 74.8713755,255.786579 C71.5336475,252.606509 66.2414425,248.002799 58.9947606,241.975452 C60.88849,255.891399 64.9356694,266.642022 71.1362989,274.227322 C77.3369284,281.812621 87.5596416,290.337115 101.804439,299.800804 L114.818351,319.734335 C106.109347,309.145126 99.6762834,302.500616 95.5191609,299.800804 C91.3620384,297.100993 82.3137297,291.863182 68.3742348,284.087374 C74.3651648,299.200979 82.7677572,311.083299 93.5820119,319.734335 C109.803394,332.710888 124.721377,342.609148 127.26044,346.750387 C128.953149,349.511214 131.086085,358.36352 133.659246,373.307305 C149.112765,366.691189 158.289471,358.308672 161.189363,348.159752 C164.089255,338.010833 166.333158,324.580491 167.921074,307.868728 C161.751855,315.006496 157.706005,320.914269 155.783525,325.592046 C153.861046,330.269822 149.213284,343.77323 141.840241,366.10227 C138.156899,357.953199 135.872564,352.925512 134.987237,351.019208 C133.659246,348.159752 141.840241,333.152538 141.840241,321.665413 C141.840241,310.178289 142.132858,269.205394 138.560047,268.083607 C134.987237,266.961821 128.341946,302.870369 128.341946,306.655166 C128.341946,309.178364 128.341946,318.430512 128.341946,334.411609 C118.336583,317.106718 113.333902,307.85457 113.333902,306.655166 C113.333902,304.85606 119.351927,278.602158 119.351927,269.338886 C119.351927,263.163371 119.351927,249.50397 119.351927,228.360682 C110.795781,243.598856 105.975936,254.590715 104.892393,261.336259 C103.80885,268.081802 103.80885,278.152074 104.892393,291.547074 L89.2834771,261.336259 C89.2834771,247.84388 89.2834771,238.409932 89.2834771,233.034413 C89.2834771,227.658895 88.4829956,218.133182 86.8820327,204.457275 C83.2066477,210.082477 80.8689952,214.67329 79.8690752,218.229713 C78.8691551,221.786136 78.164033,225.769978 77.753709,230.181241 Z"
          id="Path-17-Copy" fill="url(#page-1-1-linearGradient-10)"></path>
      </g>
    </g>
  </g>
</svg>