<?xml version="1.0" encoding="UTF-8"?>
<svg width="77px" height="54px" viewBox="0 0 77 54" version="1.1" xmlns="http://www.w3.org/2000/svg" xmlns:xlink="http://www.w3.org/1999/xlink">
    <!-- Generator: Sketch 50.2 (55047) - http://www.bohemiancoding.com/sketch -->
    <title>Group 10</title>
    <desc>Created with Sketch.</desc>
    <defs></defs>
    <g id="Page-1" stroke="none" stroke-width="1" fill="none" fill-rule="evenodd">
        <g id="正道官网_20180626" transform="translate(-589.000000, -3895.000000)">
            <g id="Group-43" transform="translate(0.000000, 3334.000000)">
                <g id="Group-10" transform="translate(589.000000, 558.000000)">
                    <g id="Page-1" transform="translate(0.000000, 3.000000)">
                        <circle id="Oval-4" fill="#D2DBFF" cx="12" cy="12" r="12"></circle>
                        <polyline id="Stroke-2" stroke="#231815" stroke-width="2" points="35.3059 43.2895 6.4999 43.2895 6.4999 4.4995 55.7809 4.4995 55.7809 9.9015"></polyline>
                        <path d="M11.1526,37.5419 L31.8526008,37.5419" id="Stroke-4" stroke="#231815" stroke-width="2"></path>
                        <path d="M11.1526,28.5244 L25.0826003,28.5244" id="Stroke-5" stroke="#231815" stroke-width="2"></path>
                        <path d="M11.1526,33.0692 L21.8846,33.0692" id="Stroke-6" stroke="#231815" stroke-width="2"></path>
                        <path d="M24.681,33.0692 L29.16,33.0692" id="Stroke-7" stroke="#231815" stroke-width="2"></path>
                        <path d="M25.3898,16.898 C25.3898,20.762 22.2568,23.895 18.3928,23.895 C14.5288,23.895 11.3958,20.762 11.3958,16.898 C11.3958,13.034 14.5288,9.901 18.3928,9.901 C22.2568,9.901 25.3898,13.034 25.3898,16.898 Z" id="Stroke-8" stroke="#231815" stroke-width="2"></path>
                        <path d="M18.393,9.9012 L18.393,16.8982" id="Stroke-10" stroke="#231815" stroke-width="2" stroke-linecap="round"></path>
                        <path d="M18.393,16.898 L23.753,21.393" id="Stroke-12" stroke="#231815" stroke-width="2"></path>
                        <g id="Group-11" transform="translate(35.000000, 13.000000)">
                            <path d="M11.4256941,36.6747355 C11.813302,30.8706193 12.9330631,23.6314835 21.7637383,23.6314835 C29.8376093,23.6314835 31.6327771,30.5310271 32.0969374,36.6757057 C28.5483847,39.245548 25.103985,40.5023077 21.7637383,40.4459847 C18.4234916,40.3896617 14.9774769,39.1325787 11.4256941,36.6747355 Z" id="Fill-18" fill="#7993FF"></path>
                            <path d="M40.4347256,20.0728421 C40.4347256,30.9928421 31.5934436,39.8454737 20.6874436,39.8454737 C9.78039231,39.8454737 0.939110256,30.9928421 0.939110256,20.0728421 C0.939110256,9.15284211 9.78039231,0.300210526 20.6874436,0.300210526 C31.5934436,0.300210526 40.4347256,9.15284211 40.4347256,20.0728421 Z" id="Stroke-14" stroke="#231815" stroke-width="2"></path>
                            <path d="M25.8063462,15.3903158 C25.8063462,18.8050526 23.5145513,21.5724211 20.6866026,21.5724211 C17.8597051,21.5724211 15.5679103,18.8050526 15.5679103,15.3903158 C15.5679103,11.9755789 17.1563974,9.20821053 20.6866026,9.20821053 C24.2041923,9.20821053 25.8063462,11.9755789 25.8063462,15.3903158 Z" id="Stroke-16" stroke="#231815" stroke-width="2"></path>
                            <path d="M9.47083077,35.7229474 C9.89134359,29.4261053 11.1061641,21.5724211 20.6864974,21.5724211 C29.4457795,21.5724211 31.3933436,29.0576842 31.8969077,35.724" id="Stroke-20" stroke="#231815" stroke-width="2"></path>
                        </g>
                    </g>
                </g>
            </g>
        </g>
    </g>
</svg>