<?xml version="1.0" encoding="UTF-8"?>
<svg width="77px" height="54px" viewBox="0 0 77 54" version="1.1" xmlns="http://www.w3.org/2000/svg" xmlns:xlink="http://www.w3.org/1999/xlink">
    <!-- Generator: Sketch 50.2 (55047) - http://www.bohemiancoding.com/sketch -->
    <title>Page 1</title>
    <desc>Created with Sketch.</desc>
    <defs></defs>
    <g id="Page-1" stroke="none" stroke-width="1" fill="none" fill-rule="evenodd">
        <g id="正道官网_20180626" transform="translate(-825.000000, -3599.000000)">
            <g id="Group-43" transform="translate(0.000000, 3334.000000)">
                <g id="Page-1" transform="translate(825.000000, 265.000000)">
                    <g id="Group-12" transform="translate(37.000000, 14.000000)">
                        <polygon id="Path-2" fill="#7993FF" points="26.4031492 5.98229041 34.7337033 14.0193419 15.0274288 34.4361963 5.77409937 26.5858113"></polygon>
                        <path d="M12.2278,37.5305 L2.57648249,38.5921062 C1.47853512,38.712876 0.490569644,37.920717 0.369799842,36.8227697 C0.353181294,36.6716864 0.35383959,36.5192012 0.37176198,36.3682671 L1.5068,26.8095 L26.5628,1.7535 C27.8188,0.4975 29.8548,0.4975 31.1108,1.7535 L37.2838,7.9265 C38.5398,9.1825 38.5398,11.2185 37.2838,12.4745 L12.2278,37.5305 Z" id="Stroke-8" stroke="#231815" stroke-width="2"></path>
                        <path d="M25.0736,3.2427 L35.7946,13.9637" id="Stroke-10" stroke="#231815" stroke-width="2"></path>
                        <path d="M3.9237,24.3926 L14.6447,35.1136" id="Stroke-12" stroke="#231815" stroke-width="2"></path>
                    </g>
                    <rect id="Rectangle-14" fill="#D2DBFF" x="0" y="0" width="21" height="21"></rect>
                    <polygon id="Stroke-1" stroke="#231815" stroke-width="2" points="4.5 32.439 33.888 32.439 33.888 4.5 4.5 4.5"></polygon>
                    <polygon id="Stroke-3" stroke="#231815" stroke-width="2" points="38.162 18.937 53.599 18.937 53.599 4.5 38.162 4.5"></polygon>
                    <polyline id="Stroke-5" stroke="#231815" stroke-width="2" points="38.1622 34.5244 38.1622 23.2484 51.6902 23.2484"></polyline>
                    <polyline id="Stroke-6" stroke="#231815" stroke-width="2" points="33.206 47.4506 4.5 47.4506 4.5 36.6306 33.888 36.6306 33.888 41.8266"></polyline>
                </g>
            </g>
        </g>
    </g>
</svg>