<?xml version="1.0" encoding="UTF-8"?>
<svg width="80px" height="80px" viewBox="0 0 80 80" version="1.1" xmlns="http://www.w3.org/2000/svg" xmlns:xlink="http://www.w3.org/1999/xlink">
    <!-- Generator: Sketch 50.2 (55047) - http://www.bohemiancoding.com/sketch -->
    <title>Group 62 Copy</title>
    <desc>Created with Sketch.</desc>
    <defs></defs>
    <g id="Page-1" stroke="none" stroke-width="1" fill="none" fill-rule="evenodd">
        <g id="正道官网_20180626" transform="translate(-352.000000, -6407.000000)" fill="#EFEFEF">
            <g id="Group-66" transform="translate(187.000000, 5492.000000)">
                <g id="Group-62-Copy" transform="translate(165.000000, 915.000000)">
                    <path d="M76,80 C73.790861,80 72,78.209139 72,76 C72,73.790861 73.790861,72 76,72 C78.209139,72 80,73.790861 80,76 C80,78.209139 78.209139,80 76,80 Z M52,80 C49.790861,80 48,78.209139 48,76 C48,73.790861 49.790861,72 52,72 C54.209139,72 56,73.790861 56,76 C56,78.209139 54.209139,80 52,80 Z M28,80 C25.790861,80 24,78.209139 24,76 C24,73.790861 25.790861,72 28,72 C30.209139,72 32,73.790861 32,76 C32,78.209139 30.209139,80 28,80 Z M4,80 C1.790861,80 0,78.209139 0,76 C0,73.790861 1.790861,72 4,72 C6.209139,72 8,73.790861 8,76 C8,78.209139 6.209139,80 4,80 Z M76,56 C73.790861,56 72,54.209139 72,52 C72,49.790861 73.790861,48 76,48 C78.209139,48 80,49.790861 80,52 C80,54.209139 78.209139,56 76,56 Z M52,56 C49.790861,56 48,54.209139 48,52 C48,49.790861 49.790861,48 52,48 C54.209139,48 56,49.790861 56,52 C56,54.209139 54.209139,56 52,56 Z M28,56 C25.790861,56 24,54.209139 24,52 C24,49.790861 25.790861,48 28,48 C30.209139,48 32,49.790861 32,52 C32,54.209139 30.209139,56 28,56 Z M4,56 C1.790861,56 0,54.209139 0,52 C0,49.790861 1.790861,48 4,48 C6.209139,48 8,49.790861 8,52 C8,54.209139 6.209139,56 4,56 Z M76,32 C73.790861,32 72,30.209139 72,28 C72,25.790861 73.790861,24 76,24 C78.209139,24 80,25.790861 80,28 C80,30.209139 78.209139,32 76,32 Z M52,32 C49.790861,32 48,30.209139 48,28 C48,25.790861 49.790861,24 52,24 C54.209139,24 56,25.790861 56,28 C56,30.209139 54.209139,32 52,32 Z M28,32 C25.790861,32 24,30.209139 24,28 C24,25.790861 25.790861,24 28,24 C30.209139,24 32,25.790861 32,28 C32,30.209139 30.209139,32 28,32 Z M4,32 C1.790861,32 0,30.209139 0,28 C0,25.790861 1.790861,24 4,24 C6.209139,24 8,25.790861 8,28 C8,30.209139 6.209139,32 4,32 Z M76,8 C73.790861,8 72,6.209139 72,4 C72,1.790861 73.790861,0 76,0 C78.209139,0 80,1.790861 80,4 C80,6.209139 78.209139,8 76,8 Z M52,8 C49.790861,8 48,6.209139 48,4 C48,1.790861 49.790861,0 52,0 C54.209139,0 56,1.790861 56,4 C56,6.209139 54.209139,8 52,8 Z M28,8 C25.790861,8 24,6.209139 24,4 C24,1.790861 25.790861,0 28,0 C30.209139,0 32,1.790861 32,4 C32,6.209139 30.209139,8 28,8 Z" id="Combined-Shape"></path>
                </g>
            </g>
        </g>
    </g>
</svg>