<?xml version="1.0" encoding="UTF-8"?>
<svg width="76px" height="66px" viewBox="0 0 76 66" version="1.1" xmlns="http://www.w3.org/2000/svg" xmlns:xlink="http://www.w3.org/1999/xlink">
    <!-- Generator: Sketch 50.2 (55047) - http://www.bohemiancoding.com/sketch -->
    <title>Group 14</title>
    <desc>Created with Sketch.</desc>
    <defs></defs>
    <g id="Page-1" stroke="none" stroke-width="1" fill="none" fill-rule="evenodd">
        <g id="正道官网_20180626" transform="translate(-371.000000, -3587.000000)">
            <g id="Group-43" transform="translate(0.000000, 3334.000000)">
                <g id="Group-14" transform="translate(370.000000, 253.000000)">
                    <g id="Page-1" transform="translate(1.000000, 0.000000)">
                        <polygon id="Rectangle-15" fill="#D2DBFF" points="0.530962457 36.1734545 10.9868588 0.724796911 34 30"></polygon>
                        <polygon id="Stroke-1" stroke="#231815" stroke-width="2" points="13.0593333 19.0297622 39.6038 19.0297622 39.6038 6.85203243 13.0593333 6.85203243"></polygon>
                        <polyline id="Stroke-3" stroke="#231815" stroke-width="2" points="35.5286178 38.5672541 13.0600178 38.5672541 13.0600178 26.3895243 39.6027733 26.3895243 39.6027733 33.854173"></polyline>
                        <polyline id="Stroke-4" stroke="#231815" stroke-width="2" points="29.0063756 58.1061081 13.05882 58.1061081 13.05882 45.9283784 34.2988422 45.9283784"></polyline>
                        <path d="M26.3313956,19.0282297 L26.3313956,26.3907162" id="Stroke-5" stroke="#231815" stroke-width="2"></path>
                        <polyline id="Stroke-6" stroke="#231815" stroke-width="2" points="13.0591622 52.0177541 5.85538444 52.0177541 5.85538444 32.4792405 12.5663622 32.4792405"></polyline>
                        <g id="Group-13" transform="translate(33.000000, 26.000000)">
                            <path d="M26.980604,7.40679698 C26.980604,10.1683319 24.7480495,12.406797 21.9938063,12.406797 C19.2407021,12.406797 17.0081476,10.1683319 17.0081476,7.40679698 C17.0081476,4.64526204 19.2407021,2.40679698 21.9938063,2.40679698 C24.7480495,2.40679698 26.980604,4.64526204 26.980604,7.40679698 Z" id="Stroke-8" fill="#7993FF"></path>
                            <path d="M41.2594855,30.5438061 C41.2594855,33.305341 39.026931,35.5438061 36.2726878,35.5438061 C33.5195836,35.5438061 31.2870291,33.305341 31.2870291,30.5438061 C31.2870291,27.7822711 33.5195836,25.5438061 36.2726878,25.5438061 C39.026931,25.5438061 41.2594855,27.7822711 41.2594855,30.5438061 Z" id="Stroke-10" fill="#7993FF"></path>
                            <path d="M12.9644675,30.7109548 C12.9644675,33.4724897 10.731913,35.7109548 7.97766975,35.7109548 C5.22456555,35.7109548 2.99201105,33.4724897 2.99201105,30.7109548 C2.99201105,27.9494198 5.22456555,25.7109548 7.97766975,25.7109548 C10.731913,25.7109548 12.9644675,27.9494198 12.9644675,30.7109548 Z" id="Stroke-12" fill="#7993FF"></path>
                            <path d="M27.3866884,6.45132214 C27.3866884,9.86766832 24.6247537,12.636915 21.2174282,12.636915 C17.8115119,12.636915 15.0495773,9.86766832 15.0495773,6.45132214 C15.0495773,3.03497596 17.8115119,0.26572927 21.2174282,0.26572927 C24.6247537,0.26572927 27.3866884,3.03497596 27.3866884,6.45132214 Z" id="Stroke-8-Copy" stroke="#231815" stroke-width="2"></path>
                            <path d="M41.7449438,29.5729779 C41.7449438,32.989324 38.9830092,35.7585707 35.5756837,35.7585707 C32.1697673,35.7585707 29.4078327,32.989324 29.4078327,29.5729779 C29.4078327,26.1566317 32.1697673,23.387385 35.5756837,23.387385 C38.9830092,23.387385 41.7449438,26.1566317 41.7449438,29.5729779 Z" id="Stroke-10-Copy" stroke="#231815" stroke-width="2"></path>
                            <path d="M13.0284329,29.5729779 C13.0284329,32.989324 10.2664983,35.7585707 6.85917281,35.7585707 C3.45325647,35.7585707 0.69132183,32.989324 0.69132183,29.5729779 C0.69132183,26.1566317 3.45325647,23.387385 6.85917281,23.387385 C10.2664983,23.387385 13.0284329,26.1566317 13.0284329,29.5729779 Z" id="Stroke-12-Copy" stroke="#231815" stroke-width="2"></path>
                            <path d="M29.4067054,8.7236586 C33.8117093,11.3798748 36.8287001,16.1144389 37.1077119,21.573811" id="Stroke-14" stroke="#231815" stroke-width="2"></path>
                            <path d="M5.38604706,20.8002587 C5.89756863,15.6700879 8.83282876,11.2548348 13.0264601,8.72577792" id="Stroke-16" stroke="#231815" stroke-width="2"></path>
                            <path d="M29.9244272,35.7598423 C27.4231854,37.4030229 24.4315592,38.3581304 21.2172873,38.3581304 C17.8790102,38.3581304 14.7816978,37.3267273 12.2226808,35.5662776" id="Stroke-18" stroke="#231815" stroke-width="2"></path>
                        </g>
                    </g>
                </g>
            </g>
        </g>
    </g>
</svg>