<?xml version="1.0" encoding="UTF-8"?>
<svg width="36px" height="36px" viewBox="0 0 36 36" version="1.1" xmlns="http://www.w3.org/2000/svg" xmlns:xlink="http://www.w3.org/1999/xlink">
    <!-- Generator: Sketch 50.2 (55047) - http://www.bohemiancoding.com/sketch -->
    <title>闹钟</title>
    <desc>Created with Sketch.</desc>
    <defs></defs>
    <g id="Symbols" stroke="none" stroke-width="1" fill="none" fill-rule="evenodd">
        <g id="红色" transform="translate(-143.000000, -63.000000)">
            <g id="闹钟">
                <g transform="translate(143.000000, 63.000000)">
                    <polygon id="Rectangle-8" fill="#FE3B2F" points="36 0 36 36 0 36"></polygon>
                    <path d="M28.7937947,25.4016685 L26.5140811,25.4016685 L26.5140811,21.7012236 C26.5140811,21.685317 26.5011933,21.6723026 26.4854415,21.6723026 L25.6190931,21.6723026 C25.6033413,21.6723026 25.5904535,21.685317 25.5904535,21.7012236 L25.5904535,26.3040044 C25.5904535,26.319911 25.6033413,26.3329255 25.6190931,26.3329255 L28.7923628,26.3329255 C28.8081146,26.3329255 28.8210024,26.319911 28.8210024,26.3040044 L28.8210024,25.4291435 C28.8224344,25.414683 28.8095465,25.4016685 28.7937947,25.4016685 Z" id="Shape" fill="#FFFFFF" fill-rule="nonzero"></path>
                    <path d="M30.1842482,30.1707453 C31.3040573,29.0688543 32,27.5317019 32,25.8325918 C32,24.4588432 31.5446301,23.1906563 30.7785203,22.1726363 C31.1164678,21.825584 31.3069212,21.3614016 31.3069212,20.8668521 C31.3069212,19.8387097 30.4792363,19.0028921 29.4610979,19.0028921 C28.7393795,19.0028921 28.102148,19.4193548 27.8,20.0527253 C27.2315036,19.8719689 26.6272076,19.7736374 26,19.7736374 C25.3727924,19.7736374 24.7684964,19.8719689 24.2,20.0527253 C23.897852,19.423693 23.2606205,19.0028921 22.5389021,19.0028921 C21.5207637,19.0028921 20.6930788,19.8387097 20.6930788,20.8668521 C20.6930788,21.3628476 20.8878282,21.8299221 21.2214797,22.1726363 C20.4553699,23.1892102 20,24.4588432 20,25.8325918 C20,27.4304783 20.6157518,28.8852058 21.6195704,29.9697442 L20.2849642,31.3174638 C20.2735084,31.3290323 20.2735084,31.3478309 20.2849642,31.3579533 L20.897852,31.9768632 C20.9093079,31.9884316 20.9279236,31.9884316 20.9379475,31.9768632 L22.3011933,30.6002225 C23.3207637,31.4085651 24.6066826,31.8915462 26,31.8915462 C27.2930788,31.8915462 28.4916468,31.4765295 29.4725537,30.7708565 L30.6653938,31.9754171 C30.6768496,31.9869855 30.6954654,31.9869855 30.7054893,31.9754171 L31.3183771,31.3565072 C31.3298329,31.3449388 31.3298329,31.3261402 31.3183771,31.3160178 L30.1842482,30.1707453 Z M29.4610979,19.9341491 C29.9694511,19.9341491 30.3847255,20.3520578 30.3847255,20.8668521 C30.3847255,21.092436 30.3045346,21.3050056 30.1627685,21.4727475 C29.7217184,21.0432703 29.2147971,20.6803115 28.6606205,20.4026696 C28.8210024,20.1177976 29.1231504,19.9341491 29.4610979,19.9341491 Z M22.5389021,19.9341491 C22.8782816,19.9341491 23.1789976,20.1192436 23.3393795,20.4012236 C22.7852029,20.6788654 22.2782816,21.0418242 21.8372315,21.4713014 C21.6968974,21.3050056 21.6152745,21.09099 21.6152745,20.865406 C21.6152745,20.3520578 22.0291169,19.9341491 22.5389021,19.9341491 Z M20.9236277,25.8325918 C20.9236277,23.0055617 23.2004773,20.7063404 26,20.7063404 C28.7995227,20.7063404 31.0763723,23.0055617 31.0763723,25.8325918 C31.0763723,28.6596218 28.7995227,30.9588432 26,30.9588432 C23.2004773,30.9588432 20.9236277,28.6581758 20.9236277,25.8325918 Z" id="Shape" fill="#FFFFFF" fill-rule="nonzero"></path>
                </g>
            </g>
        </g>
    </g>
</svg>