<svg width="416px" height="388px" viewBox="0 0 416 388" version="1.1" xmlns="http://www.w3.org/2000/svg" xmlns:xlink="http://www.w3.org/1999/xlink">
    <!-- Generator: Sketch 50.2 (55047) - http://www.bohemiancoding.com/sketch -->
    <title>Group 16</title>
    <desc>Created with Sketch.</desc>
    <defs>
        <linearGradient x1="8.2858576%" y1="0%" x2="32.5682951%" y2="36.0514952%" id="page-1-2-linearGradient-1">
            <stop stop-color="#D0F3DD" offset="0%"></stop>
            <stop stop-color="#BEE7CC" offset="100%"></stop>
        </linearGradient>
        <path d="M19.911513,95.2809891 C-30.4929492,140.705449 21.0865283,268.50386 122.278255,255.873338 C294.214001,233.034623 304.298461,113.923894 384.619984,95.2809891 C464.941507,76.6380844 376.285978,-58.7015397 255.246657,31.319911 C134.207335,121.341362 70.3159752,49.8565288 19.911513,95.2809891 Z" id="page-1-2-path-2"></path>
        <linearGradient x1="8.2858576%" y1="0%" x2="79.0596672%" y2="106.155376%" id="page-1-2-linearGradient-4">
            <stop stop-color="#D0F3DD" offset="0%"></stop>
            <stop stop-color="#87C199" offset="100%"></stop>
        </linearGradient>
        <linearGradient x1="82.9506207%" y1="90.8398361%" x2="53.0907853%" y2="53.7379623%" id="page-1-2-linearGradient-5">
            <stop stop-color="#FFFFFF" stop-opacity="0.166326993" offset="0%"></stop>
            <stop stop-color="#FFFFFF" stop-opacity="0" offset="100%"></stop>
        </linearGradient>
        <linearGradient x1="83.7232451%" y1="66.8956185%" x2="10.4543672%" y2="40.4325281%" id="page-1-2-linearGradient-6">
            <stop stop-color="#FFFFFF" stop-opacity="0.289826766" offset="0%"></stop>
            <stop stop-color="#FFFFFF" stop-opacity="0" offset="96.7372652%"></stop>
        </linearGradient>
        <linearGradient x1="0%" y1="0%" x2="100%" y2="100%" id="page-1-2-linearGradient-7">
            <stop stop-color="#6D89FF" offset="0%"></stop>
            <stop stop-color="#2148EB" offset="100%"></stop>
        </linearGradient>
        <filter x="-60.9%" y="-64.1%" width="343.8%" height="263.0%" filterUnits="objectBoundingBox" id="page-1-2-filter-8">
            <feOffset dx="21" dy="8" in="SourceAlpha" result="shadowOffsetOuter1"></feOffset>
            <feGaussianBlur stdDeviation="9" in="shadowOffsetOuter1" result="shadowBlurOuter1"></feGaussianBlur>
            <feColorMatrix values="0 0 0 0 0   0 0 0 0 0   0 0 0 0 0  0 0 0 0.1 0" type="matrix" in="shadowBlurOuter1" result="shadowMatrixOuter1"></feColorMatrix>
            <feMerge>
                <feMergeNode in="shadowMatrixOuter1"></feMergeNode>
                <feMergeNode in="SourceGraphic"></feMergeNode>
            </feMerge>
        </filter>
        <linearGradient x1="50%" y1="0%" x2="50%" y2="89.7508025%" id="page-1-2-linearGradient-9">
            <stop stop-color="#B9C7FF" offset="0%"></stop>
            <stop stop-color="#0728AD" offset="100%"></stop>
        </linearGradient>
        <linearGradient x1="49.5284555%" y1="3.0166185%" x2="34.6091539%" y2="98.4600795%" id="page-1-2-linearGradient-10">
            <stop stop-color="#6D89FF" offset="0%"></stop>
            <stop stop-color="#2148EB" offset="100%"></stop>
        </linearGradient>
    </defs>
    <g id="Page-1" stroke="none" stroke-width="1" fill="none" fill-rule="evenodd">
        <g id="正道官网_20180626" transform="translate(-1120.000000, -1471.000000)">
            <g id="Group-16" transform="translate(1101.000000, 1471.000000)">
                <path d="M24.2271155,187.800918 C31.5421586,189.410796 32.8640179,203.105605 41.6377295,206.710147 C50.411441,210.314689 63.6838144,208.211568 70.1346012,214.774626 C76.5853879,221.337685 69.4382899,246.999536 74.3954982,253.144799 C79.3527066,259.290063 95.3055956,257.404798 97.0199556,269.916012 C98.7343157,282.427225 39.883742,297.389565 35.9143899,287.381348 C31.9450379,277.373132 29.8532733,278.713283 26.7868616,271.753178 C23.7204499,264.793073 31.7601097,254.660367 31.7601097,244.440895 C31.7601097,234.221424 24.1582392,240.190327 15.6977733,223.450237 C7.23730753,206.710147 16.9120724,186.19104 24.2271155,187.800918 Z" id="Path-29-Copy" fill="url(#page-1-2-linearGradient-1)" transform="translate(54.731348, 239.184826) rotate(15.000000) translate(-54.731348, -239.184826) "></path>
                <g id="Group-13" transform="translate(18.913043, 130.533643)">
                    <mask id="mask-3" fill="white">
                        <use xlink:href="#page-1-2-path-2"></use>
                    </mask>
                    <use id="Path-26" fill="#EDEFF9" xlink:href="#page-1-2-path-2"></use>
                    <path d="M-0.916438469,56.4532647 C6.39860462,58.0631427 7.72046395,71.757951 16.4941755,75.3624933 C25.2678871,78.9670355 38.5402605,76.8639143 44.9910472,83.4269727 C51.441834,89.9900312 44.2947359,115.651882 49.2519443,121.797145 C54.2091526,127.942409 70.1620417,126.057145 71.8764017,138.568358 C73.5907617,151.079571 47.962384,199.857206 24.2228105,206.215458 C8.39642813,210.454292 3.33283012,203.590427 9.03201645,185.623863 C12.8374642,172.569228 13.4170707,162.705839 10.770836,156.033695 C6.80148395,146.025479 4.7097194,147.365629 1.64330768,140.405524 C-1.42310404,133.445419 6.61655573,123.312713 6.61655573,113.093242 C6.61655573,102.87377 -0.985314794,108.842673 -9.4457806,92.1025834 C-17.9062464,75.3624933 -8.23148156,54.8433867 -0.916438469,56.4532647 Z" id="Path-29" fill="url(#page-1-2-linearGradient-4)" mask="url(#mask-3)" transform="translate(29.610199, 131.896667) rotate(15.000000) translate(-29.610199, -131.896667) "></path>
                    <path d="M21.0118747,190.457625 C30.0505059,176.720504 33.7435681,163.725587 32.0910611,151.472874 C29.6123007,133.093804 5.11371584,119.736681 0.0290237667,95.9637885 C9.68002367,120.740684 40.3218549,133.513963 43.4828133,150.441969 C45.590119,161.727306 43.1542136,177.084276 36.1750974,196.512878 L21.0118747,190.457625 Z" id="Path-30" fill-opacity="0.1" fill="#000000" mask="url(#mask-3)" transform="translate(22.122460, 146.238333) rotate(30.000000) translate(-22.122460, -146.238333) "></path>
                    <path d="M146.43519,45.9118329 C146.43519,45.9118329 150.097317,67.6533828 142.945337,73.0691666 C135.127918,78.988727 131.033996,73.0691666 131.033996,73.0691666 C131.033996,73.0691666 128.42326,83.5175384 134.134198,88.4154902 C139.845135,93.3134419 147.151645,95.2419965 150.097317,95.3566593 C153.04299,95.4713221 156.708075,99.0236502 156.708075,99.0236502 L118.266457,105.327146 L113.478261,47.8411273 L146.43519,45.9118329 Z" id="Stroke-3" fill="#F2D0B6" mask="url(#mask-3)"></path>
                    <path d="M73.7316336,137.536721 C76.6170673,158.881125 78.0597841,170.083756 78.0597841,171.144616 C78.0597841,172.735905 70.504337,217.194267 68.6911621,220.964785 C66.8779872,224.735304 62.9243663,230.546895 61.6695686,232.872461 C60.4147709,235.198028 54.6479751,249.323407 61.6695686,248.036939 C66.3506309,247.179294 70.8528195,244.708172 75.1761343,240.623575 L105.573273,137.536721 L73.7316336,137.536721 Z" id="Path-20" fill="#F2D0B6" mask="url(#mask-3)"></path>
                    <g id="Group-12" mask="url(#mask-3)">
                        <g transform="translate(54.037267, 220.556845)">
                            <path d="M29.6005839,15.7181528 L4.55102577,27.0038085 C3.6446541,27.4121589 2.57886123,27.008433 2.17051077,26.1020613 C2.09345788,25.9310353 2.04361206,25.749016 2.02277825,25.5625944 L0.66822035,13.4419703 C0.580813543,12.6598516 1.01163722,11.9116274 1.73193702,11.594582 L27.3739076,0.308075176 C28.2837809,-0.0924124154 29.3460382,0.32052628 29.7465258,1.23039957 C29.8317925,1.4241181 29.8822253,1.63135686 29.895507,1.8425934 L30.6576524,13.9640686 C30.7046647,14.7117706 30.2836396,15.4104135 29.6005839,15.7181528 Z" id="Path-21" fill="#515151"></path>
                            <path d="M6.28986164,10.7524114 L26.839382,1.45838586 C27.292272,1.25355524 27.8254599,1.45464708 28.0302905,1.90753707 C28.0764531,2.00960465 28.1031551,2.11939322 28.1090244,2.23126066 L28.7533281,14.5115255 C28.7731582,14.8894827 28.5544076,15.2394626 28.2059733,15.3872406 L8.09127534,23.9182905 C7.63367429,24.1123684 7.10538417,23.8987406 6.91130632,23.4411396 C6.87519199,23.3559884 6.8524195,23.2657791 6.84379104,23.1736894 L5.76466504,11.6564001 C5.72882211,11.273856 5.9397821,10.9107435 6.28986164,10.7524114 Z" id="Path-22" fill="#6B6B6B"></path>
                            <ellipse id="Oval-9" fill="#9B9B9B" cx="4.04041874" cy="18.9592758" rx="1.35093168" ry="1.35034803"></ellipse>
                        </g>
                    </g>
                    <path d="M179.448591,130.007929 C197.449327,151.935269 207.354562,163.988922 209.164298,166.168886 C214.083438,165.417566 229.229839,153.077208 254.603502,129.147812 C256.892837,131.625415 259.218716,134.910382 261.581139,139.002713 C242.987542,156.113604 229.492045,175.914952 216.817897,181.436124 C214.64493,182.382722 209.768711,182.737099 206.0525,181.436124 C198.723036,179.513421 184.228671,166.875518 162.569404,143.522413" id="Path-24" fill="#F2D0B6" mask="url(#mask-3)"></path>
                    <path d="M72.7304637,119.601392 C72.7304637,119.601392 70.0896937,132.162028 70.2559835,132.991414 C70.4215375,133.820065 85.6870866,136.111169 88.8392345,136.292046 C91.9921182,136.472923 93.816891,154.712058 92.8213597,168.307956 C91.8258284,181.90459 77.1893844,216.565288 75.1983218,252.877387 C73.2072592,289.188751 167.345671,262.944719 172.278444,255.015555 C178.989634,244.226187 155.124107,193.930502 155.124107,173.922486 C155.124107,153.914471 159.50577,141.958045 159.50577,141.958045 C159.50577,141.958045 165.976355,143.273445 172.278444,138.517712 C178.580532,133.762713 181.024845,129.778279 181.024845,129.778279 C181.024845,129.778279 166.361912,102.144585 160.059824,98.5461682 C153.756999,94.9470161 152.94321,94.1551292 150.5298,94.6639368 C148.116391,95.1734796 136.833703,98.013832 136.833703,98.013832 L72.7304637,119.601392 Z" id="Stroke-5" fill="#2F50DB" mask="url(#mask-3)"></path>
                    <path d="M159.50577,141.958045 C159.50577,141.958045 165.976355,143.273445 172.278444,138.517712 C178.580532,133.762713 181.024845,129.778279 181.024845,129.778279 C181.024845,129.778279 166.361912,102.144585 160.059824,98.5461682 C153.756999,94.9470161 152.94321,94.1551292 150.5298,94.6639368 C148.116391,95.1734796 136.833703,98.013832 136.833703,98.013832 C138.824633,114.126529 141.238548,123.553309 144.075451,126.294172 C155.527273,137.35831 159.50577,141.958045 159.50577,141.958045 Z" id="Stroke-5-Copy-2" fill="url(#page-1-2-linearGradient-5)" mask="url(#mask-3)"></path>
                    <path d="M72.7304637,119.601392 C72.7304637,119.601392 70.0896937,132.162028 70.2559835,132.991414 C70.3663528,133.543848 76.762529,134.672991 89.444512,136.378844 C86.2892034,131.416835 84.3975028,128.620593 83.7694102,127.990118 C80.6832699,124.89227 77.0036211,122.096028 72.7304637,119.601392 Z" id="Stroke-5-Copy" fill="url(#page-1-2-linearGradient-6)" mask="url(#mask-3)"></path>
                </g>
                <path d="M165.348233,176.445476 C165.348233,176.445476 169.010361,198.187025 161.85838,203.602809 C154.040962,209.52237 149.947039,203.602809 149.947039,203.602809 C149.947039,203.602809 147.336304,214.051181 153.047241,218.949133 C155.218185,220.811031 157.619698,222.243836 159.924582,223.311023 C162.430181,224.471142 154.848487,228.654398 137.179501,235.860789 L132.391304,178.37477 L165.348233,176.445476 Z" id="Stroke-3-Copy" fill="#F2D0B6"></path>
                <g id="Group-12-Copy" transform="translate(72.950311, 353.791183)">
                    <path d="M21.4976073,16.6681161 L4.55102577,24.3031124 C3.6446541,24.7114629 2.57886123,24.3077369 2.17051077,23.4013652 C2.09345788,23.2303392 2.04361206,23.0483199 2.02277825,22.8618984 L0.66822035,10.7412743 C0.580813543,9.95915559 1.01163722,9.21093131 1.73193702,8.89388591 L21.4116094,0.231729622 L21.4976073,16.6681161 Z" id="Path-21" fill="#515151"></path>
                    <path d="M6.29259421,8.05266517 L21.600105,1.18638304 L21.600105,15.5749198 L8.08770767,21.2257932 C7.6291364,21.4175674 7.10192729,21.2012855 6.91015316,20.7427143 C6.875053,20.6587826 6.85288153,20.5700141 6.84439464,20.4794353 L5.76486107,8.95779636 C5.72892275,8.57423404 5.94109386,8.21033291 6.29259421,8.05266517 Z" id="Path-22" fill="#6B6B6B"></path>
                    <ellipse id="Oval-9" fill="#9B9B9B" cx="4.04041874" cy="16.2585798" rx="1.35093168" ry="1.35034803"></ellipse>
                </g>
                <path d="M178.394009,272.346271 L180.017954,275.137946 C184.113092,276.045688 188.357492,274.966486 192.751155,271.900341 C197.144819,268.834196 200.021299,265.915933 201.380596,263.145551 L199.938308,260.309152 C195.825464,264.927335 192.22732,267.996402 189.143877,269.516353 C186.060433,271.036304 182.477144,271.97961 178.394009,272.346271 Z" id="Path-19" fill="#FFE192"></path>
                <path d="M89.2272682,263.646721 C101.31761,265.738745 107.625424,266.784756 108.150711,266.784756 C108.675998,266.784756 109.389448,268.335895 110.291063,271.438171 C102.167284,270.233149 95.2727426,269.016993 89.6074369,267.789703 C89.3539911,266.259789 89.2272682,264.878795 89.2272682,263.646721 Z" id="Path-18" fill="#FFE192"></path>
                <path d="M140.296631,149.598274 C140.296631,149.598274 129.853796,145.195646 120.663808,149.598274 C111.473821,154.000903 104.373132,169.306887 103.119552,179.790035 C101.866705,190.273183 102.955628,196.624046 101.825724,202.044869 C100.695088,207.465693 92.7012745,223.548805 89.8951324,229.023365 C87.0889904,234.497925 88.3883491,244.656258 89.8951324,247.177503 C91.4019157,249.698748 99.1883044,266.717885 121.918851,266.465908 C144.649398,266.21393 152.812665,254.615616 155.450085,244.78188 C158.086773,234.948878 155.198345,227.889098 153.94257,225.241497 C153.94257,225.241497 143.149201,210.079501 143.269948,197.850875 C143.362156,188.584272 162.858863,182.252509 167.254806,171.788462 C167.254806,171.788462 172.528914,157.92088 160.598322,151.113078 C148.668462,144.306011 140.296631,149.598274 140.296631,149.598274 Z" id="Stroke-1" fill="#36353E"></path>
                <path d="M87.726363,356.163389 C86.6653603,357.232025 86.472092,357.981708 87.146558,358.41244 C87.821024,358.843171 90.8839716,356.974978 96.3354008,352.807861 L87.726363,356.163389 Z" id="Path-23" fill="#F2D0B6"></path>
                <path d="M269.757467,262.905902 C272.519019,258.389767 270.219111,253.711009 271.90975,250.494461 C272.745934,248.016183 275.204629,243.382591 275.982001,241.911494 C278.799614,242.868759 277.259791,247.565998 277.830443,248.6936 C278.799614,248.158914 285.234178,234.984051 286.586004,232.322348 C290.818562,235.203859 282.736225,244.895724 284.042818,248.158914 C284.564006,247.177476 295.827387,254.684206 294.938713,257.803619 C293.790364,261.389747 288.309565,267.553817 285.794868,267.553817 C281.766116,267.553817 279.706271,269.979483 277.830443,271.897799 C275.954615,273.816114 270.219111,266.748829 269.757467,262.905902 Z" id="Path-25" fill="#F2D0B6"></path>
                <path d="M200.940512,7.35373584 C200.948453,5.21731097 202.133072,3.95721551 202.692595,3.40341456 C206.021234,0.108817558 210.169746,0.347636032 213.099299,1.10815018 C214.946855,1.58777713 238.875161,7.77660339 284.884218,19.674629 L284.884217,19.6746324 C289.650679,20.907248 292.980265,25.2074022 292.980265,30.1306632 L292.980265,175.466487 C292.980265,178.840902 291.575612,181.99753 289.806684,183.478751 C288.037755,184.959973 286.352201,184.893096 284.211631,184.303521 C268.14569,179.688968 242.084011,171.898235 206.026597,160.931323 L206.026599,160.931317 C203.00296,160.011673 200.932515,157.227757 200.92177,154.067374 C200.754058,104.739107 200.760306,55.8345611 200.940512,7.35373584 Z" id="Path-27" fill="#EBEFF9"></path>
                <path d="M206.63326,3.49245726 L283.652918,23.7703628 C286.815574,24.6030339 289.019756,27.4626529 289.019756,30.7330862 L289.019756,179.732751 C289.019756,181.720976 287.407981,183.332751 285.419756,183.332751 C285.067258,183.332751 284.71667,183.28098 284.379217,183.179094 L207.235601,159.887464 C204.196235,158.969802 202.116679,156.169656 202.116679,152.994778 L202.116679,6.97381897 C202.116679,4.98559392 203.728454,3.37381906 205.716679,3.37381906 C206.026034,3.37381906 206.334099,3.41369365 206.63326,3.49245726 Z" id="Path-27-Copy-3" fill="#FCFCFC"></path>
                <ellipse id="Oval-10" fill="#EBEFF9" transform="translate(242.572340, 52.153076) rotate(-7.000000) translate(-242.572340, -52.153076) " cx="242.57234" cy="52.153076" rx="16.6614907" ry="21.1223007"></ellipse>
                <polygon id="Rectangle-5" fill="#EBEFF9" points="212.546584 81.0208817 275.590062 99.025522 275.590062 102.62645 212.546584 84.6218097"></polygon>
                <polygon id="Rectangle-5-Copy-3" fill="#EBEFF9" points="212.546584 136.835267 275.590062 154.839907 275.590062 158.440835 212.546584 140.436195"></polygon>
                <polygon id="Rectangle-5-Copy" fill="#EBEFF9" points="212.546584 99.9257541 275.590062 117.930394 275.590062 121.531323 212.546584 103.526682"></polygon>
                <polygon id="Rectangle-5-Copy-2" fill="#EBEFF9" points="212.546584 117.930394 275.590062 135.935035 275.590062 139.535963 212.546584 121.531323"></polygon>
                <path d="M366.897785,65.0672234 L308.026227,28.9278759 C305.156139,27.800966 302.050088,29.5026025 302.050088,32.5822722 L302.050088,184.847475 C302.050088,188.797976 304.207032,192.433254 307.67433,194.326479 L366.798718,226.609775 C368.463764,227.501555 369.580613,227.254105 371.483538,226.133527 C372.752155,225.386475 373.369353,224.02087 373.335133,222.036712 L373.335133,76.5723934 C373.335133,71.8790829 370.897588,67.5225731 366.897785,65.0672234 Z" id="Path-27-Copy" fill="#EBEFF9"></path>
                <path d="M363.535679,67.3644467 L332.829531,48.8939476 L307.143876,33.4433984 C305.86607,32.6747665 304.207104,33.0875342 303.438472,34.3653406 C303.1857,34.7855598 303.052145,35.2666863 303.052145,35.7570717 L303.052145,183.465687 C303.052145,187.73013 305.372345,191.65683 309.107719,193.714123 L365.202285,224.608748 C366.508451,225.328132 368.150484,224.85245 368.869868,223.546284 C369.08961,223.147303 369.204844,222.699215 369.204844,222.243724 L369.204844,77.3903644 C369.204844,73.2852606 367.053409,69.4804469 363.535679,67.3644467 Z" id="Path-27-Copy-4" fill="#FCFCFC"></path>
                <path d="M417.455525,127.809178 L387.864288,80.5336549 C386.482815,78.8168029 384.805162,78.3216973 383.713097,78.8168029 C382.621031,79.3119085 381.951756,79.4222225 381.951756,82.6064572 L381.756374,234.387469 C381.752521,237.380013 382.626337,240.307991 384.269655,242.808959 L413.333804,287.041739 C414.598623,288.867246 415.931937,289.501487 417.333744,288.944462 C418.735552,288.387438 419.454632,287.088878 419.490985,285.048782 L420.060699,136.947646 C420.073128,133.716537 419.169856,130.548026 417.455525,127.809178 Z" id="Path-27-Copy-2" fill="#EBEFF9"></path>
                <path d="M413.194676,128.959884 L384.431693,81.9463286 C384.172289,81.5223299 383.618283,81.3888989 383.194284,81.6483021 C382.926975,81.8118426 382.763975,82.1026511 382.763975,82.4160196 L382.763975,233.265366 C382.763975,236.757741 383.779928,240.174695 385.688003,243.099747 L414.186526,286.787596 C414.458095,287.203908 415.015732,287.321245 415.432044,287.049676 C415.68675,286.883525 415.840325,286.599985 415.840325,286.295877 L415.840325,138.353706 C415.840325,135.038546 414.924788,131.78778 413.194676,128.959884 Z" id="Path-27-Copy-5" fill="#FCFCFC"></path>
                <ellipse id="Oval-10-Copy" fill="#EFF4F8" transform="translate(334.823909, 89.798788) rotate(-7.000000) translate(-334.823909, -89.798788) " cx="334.823909" cy="89.7987879" rx="10.8074534" ry="21.1223007"></ellipse>
                <polygon id="Rectangle-6" fill="url(#page-1-2-linearGradient-7)" opacity="0.800000012" points="313.416149 114.329466 358.1448 140.124211 358.1448 143.725139 313.416149 117.930394"></polygon>
                <polygon id="Rectangle-6-Copy" fill="url(#page-1-2-linearGradient-7)" opacity="0.600000024" points="313.416149 133.234339 358.1448 159.029083 358.1448 162.630011 313.416149 136.835267"></polygon>
                <polygon id="Rectangle-6-Copy-2" fill="url(#page-1-2-linearGradient-7)" opacity="0.400000006" points="313.416149 150.338747 358.1448 176.133492 358.1448 179.73442 313.416149 153.939675"></polygon>
                <polygon id="Rectangle-6-Copy-3" fill="url(#page-1-2-linearGradient-7)" opacity="0.200000003" points="313.416149 170.143852 358.1448 195.938596 358.1448 199.539524 313.416149 173.74478"></polygon>
                <ellipse id="Oval-10-Copy-2" fill="#EFF4F8" opacity="0.400000006" transform="translate(398.957793, 150.918243) rotate(-8.000000) translate(-398.957793, -150.918243) " cx="398.957793" cy="150.918243" rx="4.79101285" ry="19.9496764"></ellipse>
                <polygon id="Rectangle-7" fill="#F0F4F5" opacity="0.400000006" points="388.167702 168.343387 407.6883 193.181541 407.6883 197.682702 388.167702 172.844548"></polygon>
                <polygon id="Rectangle-7-Copy" fill="#F0F4F5" opacity="0.400000006" points="388.167702 187.24826 407.6883 212.086414 407.6883 216.587574 388.167702 191.74942"></polygon>
                <polygon id="Rectangle-7-Copy-2" fill="#F0F4F5" opacity="0.400000006" points="388.167702 204.352668 407.6883 229.190822 407.6883 233.691982 388.167702 208.853828"></polygon>
                <polygon id="Rectangle-7-Copy-3" fill="#F0F4F5" opacity="0.400000006" points="388.167702 221.457077 407.6883 246.295231 407.6883 250.796391 388.167702 225.958237"></polygon>
                <g id="Group-44" filter="url(#page-1-2-filter-8)" transform="translate(299.006211, 60.315545)">
                    <path d="M17.8488994,44.2209093 C23.8176911,44.2209093 28.4840625,34.1531707 28.4840625,22.4876461 C28.4840625,10.8221216 23.6454008,1.3653454 17.6766091,1.3653454 C17.0432851,1.3653454 12.5442522,1.99125061 11.9408054,2.19552971 C6.85703976,3.91648848 5.21832694,12.1797125 5.21832694,22.6074561 C5.21832694,33.1201658 7.26877567,42.5056987 12.4414429,44.2243519 C13.0086733,44.412818 17.2590492,44.2209093 17.8488994,44.2209093 Z" id="Oval-10-Copy-4" fill="url(#page-1-2-linearGradient-9)" transform="translate(16.851195, 22.836288) rotate(-7.000000) translate(-16.851195, -22.836288) "></path>
                    <ellipse id="Oval-10-Copy-3" fill="url(#page-1-2-linearGradient-10)" transform="translate(13.302170, 23.609943) rotate(-7.000000) translate(-13.302170, -23.609943) " cx="13.3021698" cy="23.609943" rx="10.8074534" ry="21.1223007"></ellipse>
                    <polyline id="Path-28" stroke="#FFFFFF" stroke-width="1.79999995" stroke-linecap="round" stroke-linejoin="round" points="8.10559006 23.4884259 11.6008537 30.7726754 17.7025976 16.2041763"></polyline>
                </g>
                <g id="Group-14" transform="translate(235.062112, 41.410673)">
                    <polyline id="Path-31" stroke="#587991" stroke-width="1.79999995" opacity="0.1" stroke-linecap="round" stroke-linejoin="round" points="0.368761156 0.450491348 1.69490428 1.50464179 2.19879163 14.7568721 12.6662301 17.7133798 15.655943 7.67930216 4.52455818 4.86403235"></polyline>
                    <ellipse id="Oval-11" fill="#DFE7ED" cx="2.2515528" cy="18.9048724" rx="1.35093168" ry="1.80046404"></ellipse>
                    <ellipse id="Oval-11-Copy" fill="#DFE7ED" cx="10.8511583" cy="21.3935665" rx="1.35093168" ry="1.80046404"></ellipse>
                </g>
            </g>
        </g>
    </g>
</svg>