<?xml version="1.0" encoding="UTF-8"?>
<svg width="66px" height="66px" viewBox="0 0 66 66" version="1.1" xmlns="http://www.w3.org/2000/svg" xmlns:xlink="http://www.w3.org/1999/xlink">
    <!-- Generator: Sketch 50.2 (55047) - http://www.bohemiancoding.com/sketch -->
    <title>Group 42</title>
    <desc>Created with Sketch.</desc>
    <defs></defs>
    <g id="Page-1" stroke="none" stroke-width="1" fill="none" fill-rule="evenodd">
        <g id="正道官网_20180626" transform="translate(-1290.000000, -3589.000000)">
            <g id="Group-43" transform="translate(0.000000, 3334.000000)">
                <g id="Group-42" transform="translate(1290.000000, 255.000000)">
                    <g id="Group-41" transform="translate(24.000000, 24.000000)">
                        <circle id="Oval-20-Copy-2" fill="#7993FF" cx="20.5" cy="20.5" r="12.872093"></circle>
                        <circle id="Oval-20-Copy" stroke="#231815" stroke-width="2" cx="20.5" cy="20.5" r="20.5"></circle>
                        <polyline id="Path-56" stroke="#231815" stroke-width="2" stroke-linecap="round" stroke-linejoin="round" points="22.6970617 5.49341962 16.5796884 20.5680971 25.3251486 20.5680971 18.8916017 35.4051897"></polyline>
                    </g>
                    <rect id="Rectangle-8" fill="#D2DBFF" x="0" y="0" width="28" height="28" rx="6"></rect>
                    <path d="M20.4256628,56.8227019 L9.22711368,56.8227019 C7.57025943,56.8227019 6.22711368,55.4795562 6.22711368,53.8227019 L6.22711368,8.82473468 C6.22711368,7.16788043 7.57025943,5.82473468 9.22711368,5.82473468 L41.5717822,5.82473468 C43.2286365,5.82473468 44.5717822,7.16788043 44.5717822,8.82473468 L44.5717822,20.1136823" id="Path-57" stroke="#231815" stroke-width="2" stroke-linecap="round" stroke-linejoin="round"></path>
                    <polyline id="Path-58" stroke="#231815" stroke-width="2" stroke-linecap="round" stroke-linejoin="round" points="39.4036295 15.2893091 44.7416257 20.5723246 49.7526004 15.2893091"></polyline>
                </g>
            </g>
        </g>
    </g>
</svg>