<?xml version="1.0" encoding="UTF-8"?>
<svg width="47px" height="48px" viewBox="0 0 47 48" version="1.1" xmlns="http://www.w3.org/2000/svg" xmlns:xlink="http://www.w3.org/1999/xlink">
    <!-- Generator: Sketch 50.2 (55047) - http://www.bohemiancoding.com/sketch -->
    <title>Combined Shape</title>
    <desc>Created with Sketch.</desc>
    <defs></defs>
    <g id="Page-1" stroke="none" stroke-width="1" fill="none" fill-rule="evenodd">
        <g id="正道官网_20180626" transform="translate(-833.000000, -4424.000000)" fill="#FFFFFF">
            <g id="Group-52" transform="translate(833.000000, 4420.000000)">
                <path d="M16.7049686,14.7540453 C9.56559713,14.7540453 3.59273479,20.4121354 3.47353792,27.5506389 C3.35173724,34.8427675 9.22652255,40.7921955 16.4905878,40.7921955 L17.3585262,40.7921955 L15.3559031,44.2254703 C6.74277234,43.6401905 -0.0552100538,36.4409313 0.000337999959,27.666364 C0.0579112432,18.5605336 7.62749082,11.282292 16.7336106,11.282292 L23.0336857,11.282292 C23.6533936,11.282292 24.2265223,10.9516075 24.5363762,10.414643 L28.2398691,4 L31.2464075,5.73587668 L26.9260998,13.4246531 C26.4658032,14.2439869 25.5993114,14.7511522 24.6596235,14.7514415 L16.7049686,14.7540453 Z M30.5091229,40.7921666 C37.7734774,40.7921666 43.6479734,34.8427386 43.5264621,27.55061 C43.4072652,20.4121064 37.4341136,14.7540164 30.2947421,14.7540164 L29.6411845,14.7540164 L31.6438076,11.3207417 C40.2572277,11.9060214 47.0552101,19.1052806 46.999662,27.8798479 C46.9420888,36.9856784 39.3722199,44.26392 30.2661001,44.26392 L23.9700754,44.26392 C23.3503674,44.26392 22.7775281,44.5946045 22.4676741,45.1312797 L18.763024,51.5479478 L15.7564856,49.8120711 L20.2026444,42.1108543 C20.6724883,41.2973067 21.5404267,40.7959277 22.4801146,40.795349 L30.5091229,40.7921666 Z M30.2198101,30.6662193 C28.6219356,30.6662193 27.3266823,29.370966 27.3266823,27.7730915 C27.3266823,26.175217 28.6219356,24.8799637 30.2198101,24.8799637 C31.8176846,24.8799637 33.1129379,26.175217 33.1129379,27.7730915 C33.1129379,29.370966 31.8176846,30.6662193 30.2198101,30.6662193 Z M14.0182944,27.7730915 C14.0182944,26.175217 15.3135477,24.8799637 16.9114222,24.8799637 C18.5092967,24.8799637 19.80455,26.175217 19.80455,27.7730915 C19.80455,29.370966 18.5092967,30.6662193 16.9114222,30.6662193 C15.3135477,30.6662193 14.0182944,29.370966 14.0182944,27.7730915 Z" id="Combined-Shape"></path>
            </g>
        </g>
    </g>
</svg>