<?xml version="1.0" standalone="no"?><!DOCTYPE svg PUBLIC "-//W3C//DTD SVG 1.1//EN" "http://www.w3.org/Graphics/SVG/1.1/DTD/svg11.dtd"><svg class="icon" style="" viewBox="0 0 1024 1024" version="1.1" xmlns="http://www.w3.org/2000/svg" p-id="4808" xmlns:xlink="http://www.w3.org/1999/xlink" width="200" height="200"><defs><style type="text/css"><![CDATA[

]]></style></defs><path d="M17.31401 17.31401v989.37198h989.37198v-989.37198h-989.37198z m546.628019 222.608695c-14.84058-22.26087-42.048309-32.154589-69.256039-32.154589-46.995169 0-86.570048 24.7343-96.463768 74.202898-2.47343 9.89372-9.89372 22.26087-22.260869 22.26087l-118.724638-12.36715c-9.89372-2.47343-19.78744-9.89372-17.31401-24.734299 27.207729-143.458937 155.826087-185.507246 272.077295-185.507247 59.362319 0 136.038647 14.84058 183.033816 59.362319 59.362319 54.415459 54.415459 128.618357 54.415459 210.241546v190.454106c0 56.888889 24.7343 81.623188 46.995169 113.777778 7.42029 9.89372 9.89372 24.7343 0 32.15459-24.7343 19.78744-69.256039 59.362319-93.990338 81.623188-7.42029 7.42029-19.78744 7.42029-29.681159 2.47343-39.574879-34.628019-46.995169-49.468599-69.256039-81.623188-66.782609 66.782609-113.777778 89.043478-200.347826 89.043478-101.410628 0-183.033816-64.309179-183.033816-190.454106 0-98.937198 54.415459-165.719807 128.618357-197.874397 66.782609-29.681159 158.299517-34.628019 227.555556-42.048309v-14.84058c2.47343-34.628019 4.94686-69.256039-12.36715-93.990338z m284.444444 601.043479c-91.516908 66.782609-222.608696 103.884058-336.386473 103.884058-160.772947 0-304.231884-59.362319-413.062802-158.299517-7.42029-7.42029 0-17.31401 9.89372-12.36715 116.251208 69.256039 262.183575 108.830918 413.062802 108.830918 101.410628 0 212.714976-19.78744 314.125604-64.309179 14.84058-4.94686 27.207729 12.36715 12.367149 22.26087z m24.7343 66.782608c-7.42029 7.42029-14.84058 2.47343-12.36715-4.94686 9.89372-27.207729 34.628019-89.043478 24.7343-103.884058-12.36715-14.84058-76.676329-7.42029-106.357488-2.47343-9.89372 0-9.89372-7.42029-2.47343-12.367149 51.942029-37.101449 138.512077-27.207729 148.405797-14.84058 9.89372 12.36715-2.47343 96.463768-51.942029 138.512077z" fill="#283C64" p-id="4809"></path><path d="M578.782609 440.270531c-89.043478 0-180.560386 19.78744-180.560387 121.198068 0 51.942029 27.207729 89.043478 74.202899 89.043478 34.628019 0 64.309179-19.78744 84.096618-54.415459 24.7343-42.048309 22.26087-81.623188 22.26087-128.618357v-27.20773z" fill="#283C64" p-id="4810"></path></svg>