<?xml version="1.0" standalone="no"?><!DOCTYPE svg PUBLIC "-//W3C//DTD SVG 1.1//EN" "http://www.w3.org/Graphics/SVG/1.1/DTD/svg11.dtd"><svg class="icon" style="" viewBox="0 0 3712 1024" version="1.1" xmlns="http://www.w3.org/2000/svg" p-id="3705" xmlns:xlink="http://www.w3.org/1999/xlink" width="725" height="200"><defs><style type="text/css"><![CDATA[

]]></style></defs><path d="M0 2.47343l2.47343-2.47343c37.101449 2.47343 59.362319 2.47343 74.202899 2.47343l145.932367-2.47343c42.048309 0 76.676329 4.94686 101.410628 12.36715 27.207729 7.42029 49.468599 22.26087 71.729468 39.574879 19.78744 19.78744 37.101449 42.048309 46.995169 66.782609 9.89372 24.7343 17.31401 51.942029 17.31401 81.623188 0 27.207729-4.94686 56.888889-14.84058 84.096618-9.89372 27.207729-24.7343 51.942029-42.048309 74.202899-17.31401 22.26087-39.574879 39.574879-61.835749 51.942029-22.26087 12.36715-46.995169 22.26087-69.256038 27.207729-22.26087 4.94686-46.995169 7.42029-71.729469 7.42029-17.31401 0-46.995169 0-91.516908-2.47343h-29.68116c-14.84058 0-32.154589 0-51.942029 2.47343l-2.473429-2.47343v-9.893719l2.473429-2.47343c12.36715-7.42029 19.78744-9.89372 22.26087-12.36715 2.47343-2.47343 2.47343-19.78744 4.94686-54.415459 0-34.628019 2.47343-61.835749 2.47343-79.149759v-185.507246-37.101449c0-9.89372 0-17.31401-2.47343-19.78744 0-4.94686-2.47343-7.42029-2.47343-9.89372-2.47343-2.47343-2.47343-2.47343-7.42029-4.94686-2.47343 0-7.42029-2.47343-14.84058-2.473429l-24.734299-2.47343-2.47343-2.47343v-17.31401h-2.47343z m116.251208 408.115942c22.26087 4.94686 44.521739 7.42029 74.202898 7.42029 49.468599 0 86.570048-7.42029 116.251208-24.7343 29.681159-17.31401 51.942029-39.574879 64.309179-71.729468 14.84058-32.154589 22.26087-66.782609 22.260869-108.830918 0-59.362319-14.84058-103.884058-46.995169-136.038647-32.154589-32.154589-81.623188-49.468599-148.405797-49.4686-27.207729 0-54.415459 2.47343-81.623188 7.42029-2.47343 34.628019-2.47343 71.729469-2.47343 116.251208v190.454106c0 14.84058 2.47343 39.574879 2.47343 69.256039zM1241.661836 395.748792l-9.89372 22.26087c-22.26087 14.84058-42.048309 22.26087-56.888889 27.207729-17.31401 4.94686-32.154589 7.42029-44.521739 7.42029-24.7343 0-49.468599-4.94686-71.729469-14.84058-22.26087-9.89372-39.574879-27.207729-54.415459-49.468599-14.84058-22.26087-22.26087-51.942029-22.260869-84.096618 0-22.26087 2.47343-42.048309 7.42029-59.362319 4.94686-17.31401 9.89372-29.681159 17.314009-39.574879 4.94686-7.42029 14.84058-17.31401 29.68116-29.681159 14.84058-9.89372 29.681159-19.78744 44.521739-24.7343 14.84058-7.42029 32.154589-9.89372 51.942029-9.89372 24.7343 0 46.995169 4.94686 66.782609 17.31401 19.78744 12.36715 32.154589 27.207729 39.574879 44.521739 7.42029 17.31401 12.36715 37.101449 12.36715 59.362319v19.787439l-2.47343 2.47343c-14.84058 2.47343-32.154589 4.94686-56.888889 7.42029-24.7343 0-39.574879 2.47343-46.995169 2.47343h-101.410628c0 42.048309 12.36715 74.202899 32.154589 96.463768 22.26087 19.78744 46.995169 29.681159 79.149758 29.68116 14.84058 0 29.681159-2.47343 42.04831-7.42029 12.36715-4.94686 27.207729-12.36715 42.048309-19.78744l2.47343 2.47343z m-200.347826-128.618357c4.94686 0 17.31401 2.47343 42.048309 2.47343s44.521739 2.47343 56.888889 2.47343c29.681159 0 46.995169 0 51.942029-2.47343v-12.36715c0-32.154589-7.42029-56.888889-19.78744-71.729469-12.36715-14.84058-32.154589-24.7343-54.415459-24.734299-24.7343 0-44.521739 9.89372-56.888889 27.207729-12.36715 19.78744-19.78744 44.521739-19.787439 79.149759zM1761.082126 2.47343l2.47343-2.47343c37.101449 2.47343 59.362319 2.47343 74.202898 2.47343l145.932367-2.47343c42.048309 0 76.676329 4.94686 101.410628 12.36715 27.207729 7.42029 49.468599 22.26087 71.729469 39.574879 19.78744 19.78744 37.101449 42.048309 46.995169 66.782609 9.89372 24.7343 14.84058 51.942029 14.84058 81.623188 0 27.207729-4.94686 56.888889-14.84058 84.096618-9.89372 27.207729-24.7343 51.942029-42.048309 74.202899-17.31401 22.26087-39.574879 39.574879-61.835749 51.942029-22.26087 12.36715-46.995169 22.26087-69.256039 27.207729-22.26087 4.94686-46.995169 7.42029-71.729468 7.42029-17.31401 0-46.995169 0-91.516908-2.47343h-29.68116c-14.84058 0-32.154589 0-51.942029 2.47343l-2.47343-2.47343v-9.893719l2.47343-2.47343c12.36715-7.42029 19.78744-9.89372 22.26087-12.36715 2.47343-2.47343 2.47343-19.78744 4.94686-54.415459 0-34.628019 2.47343-61.835749 2.47343-79.149759v-185.507246-37.101449c0-9.89372 0-17.31401-2.47343-19.78744 0-4.94686-2.47343-7.42029-2.47343-9.89372-2.47343-2.47343-2.47343-2.47343-7.42029-4.94686-2.47343 0-7.42029-2.47343-14.84058-2.473429l-24.734299-2.47343-2.47343-2.47343v-17.31401z m116.251207 408.115942c22.26087 4.94686 44.521739 7.42029 74.202899 7.42029 49.468599 0 86.570048-7.42029 116.251208-24.7343 29.681159-17.31401 51.942029-39.574879 64.309178-71.729468 14.84058-32.154589 22.26087-66.782609 22.26087-108.830918 0-59.362319-14.84058-103.884058-46.995169-136.038647-32.154589-32.154589-81.623188-49.468599-148.405797-49.4686-27.207729 0-54.415459 2.47343-81.623189 7.42029-2.47343 34.628019-2.47343 71.729469-2.47343 116.251208v190.454106c0 14.84058 2.47343 39.574879 2.47343 69.256039zM3005.217391 395.748792l-9.89372 22.26087c-22.26087 14.84058-42.048309 22.26087-56.888888 27.207729-17.31401 4.94686-32.154589 7.42029-44.52174 7.42029-24.7343 0-49.468599-4.94686-71.729468-14.84058-22.26087-9.89372-39.574879-27.207729-54.415459-49.468599-14.84058-22.26087-22.26087-51.942029-22.26087-84.096618 0-22.26087 2.47343-42.048309 7.42029-59.362319 4.94686-17.31401 9.89372-29.681159 17.31401-39.574879 4.94686-7.42029 14.84058-17.31401 29.681159-29.681159 14.84058-9.89372 29.681159-19.78744 44.521739-24.7343 14.84058-7.42029 32.154589-9.89372 51.942029-9.89372 24.7343 0 46.995169 4.94686 66.782609 17.31401 19.78744 12.36715 32.154589 27.207729 39.574879 44.521739 7.42029 17.31401 12.36715 37.101449 12.36715 59.362319v19.787439l-2.47343 2.47343c-14.84058 2.47343-32.154589 4.94686-56.888889 7.42029-24.7343 0-39.574879 2.47343-46.995169 2.47343h-101.410628c0 42.048309 12.36715 74.202899 32.15459 96.463768 22.26087 19.78744 46.995169 29.681159 79.149758 29.68116 14.84058 0 29.681159-2.47343 42.048309-7.42029 12.36715-4.94686 27.207729-12.36715 42.048309-19.78744l2.47343 2.47343z m-200.347826-128.618357c4.94686 0 17.31401 2.47343 44.521739 2.47343 24.7343 0 44.521739 2.47343 56.888889 2.47343 29.681159 0 46.995169 0 51.942029-2.47343v-12.36715c0-32.154589-7.42029-56.888889-19.787439-71.729469-12.36715-14.84058-32.154589-24.7343-54.415459-24.734299-24.7343 0-44.521739 9.89372-56.888889 27.207729-17.31401 19.78744-22.26087 44.521739-22.26087 79.149759zM3712.618357 2.47343v14.84058l-2.473429 2.47343c-14.84058 0-24.7343 0-34.62802 2.47343-7.42029 0-12.36715 2.47343-17.314009 4.946859-2.47343 2.47343-4.94686 7.42029-7.42029 17.31401 0 7.42029-2.47343 19.78744-2.47343 34.628019v296.811595c0 32.154589-2.47343 59.362319-9.89372 81.623188-4.94686 19.78744-14.84058 39.574879-29.681159 56.888889-14.84058 17.31401-29.681159 32.154589-44.52174 39.574879-14.84058 7.42029-29.681159 12.36715-46.995169 12.36715-4.94686 0-9.89372 0-12.367149-2.47343v-24.7343-22.260869l4.946859-4.94686c9.89372 7.42029 22.26087 12.36715 34.62802 12.36715 9.89372 0 19.78744-2.47343 24.734299-4.94686 7.42029-4.94686 12.36715-9.89372 14.84058-14.84058 2.47343-7.42029 4.94686-19.78744 4.94686-37.101449v-378.434783c0-24.7343 0-39.574879-2.47343-46.995169 0-7.42029-2.47343-12.36715-4.94686-14.84058-2.47343-2.47343-4.94686-4.94686-12.36715-4.946859-4.94686-2.47343-19.78744-2.47343-42.048309-2.47343l-2.47343-2.47343v-14.84058l2.47343-2.47343c51.942029 2.47343 81.623188 2.47343 89.043478 2.47343h96.463768z" fill="#F57800" p-id="3706"></path><path d="M840.966184 1021.52657l-22.26087-61.835749h-86.570048l-22.26087 61.835749h-14.84058l76.676329-200.347826h12.36715l74.202898 200.347826h-17.314009z m-59.362319-168.193237c0-2.47343-2.47343-4.94686-2.47343-7.42029 0-2.47343-2.47343-4.94686-2.47343-7.420289-2.47343 4.94686-2.47343 12.36715-4.94686 14.840579l-34.628019 93.990338h76.676328l-32.154589-93.990338zM1085.835749 1021.52657l-27.20773-59.362319c-4.94686-12.36715-9.89372-19.78744-17.314009-24.734299-4.94686-4.94686-12.36715-7.42029-19.78744-7.42029h-24.734299v89.043478h-14.84058v-200.347826h56.888889c17.31401 0 32.154589 4.94686 42.048309 14.84058 9.89372 9.89372 14.84058 22.26087 14.84058 37.101449s-4.94686 27.207729-12.36715 37.101449c-7.42029 9.89372-19.78744 14.84058-34.628019 19.78744 7.42029 2.47343 14.84058 12.36715 22.260869 29.681159l29.68116 64.309179h-14.84058z m-89.043478-187.980676v86.570048h34.628019c14.84058 0 27.207729-4.94686 37.101449-12.36715 9.89372-7.42029 12.36715-19.78744 12.36715-32.154589s-4.94686-22.26087-12.36715-29.68116c-7.42029-7.42029-19.78744-9.89372-34.628019-9.893719h-37.101449zM1365.333333 1014.10628c-17.31401 7.42029-32.154589 9.89372-51.942029 9.89372-27.207729 0-49.468599-9.89372-66.782608-27.207729-17.31401-17.31401-24.7343-42.048309-24.7343-71.729469 0-32.154589 9.89372-59.362319 27.20773-79.149759 19.78744-19.78744 42.048309-29.681159 71.729468-29.681159 14.84058 0 29.681159 2.47343 44.521739 7.42029v14.84058c-14.84058-7.42029-29.681159-9.89372-44.521739-9.89372-24.7343 0-44.521739 7.42029-61.835749 24.734299-14.84058 17.31401-24.7343 39.574879-24.734299 69.256039 0 27.207729 7.42029 49.468599 22.260869 64.309179 14.84058 14.84058 34.628019 24.7343 56.888889 24.734299 17.31401 0 34.628019-2.47343 49.468599-9.89372v12.36715zM1625.043478 1021.52657v-96.463768h-113.777778v96.463768h-12.367149v-202.821256h12.367149v93.990338h113.777778v-93.990338h14.84058v202.821256zM1785.816425 818.705314h14.84058v200.347826h-14.84058zM1996.057971 833.545894v187.980676h-12.36715V833.545894h-59.362319v-14.84058h131.091788v14.84058zM2181.565217 1021.52657v-202.821256h91.516909v14.84058h-79.149759v79.149758h74.202899v12.36715h-74.202899v81.623188h84.096619v14.84058zM2545.15942 1014.10628c-17.31401 7.42029-32.154589 9.89372-51.942029 9.89372-27.207729 0-49.468599-9.89372-66.782608-27.207729-17.31401-17.31401-24.7343-42.048309-24.7343-71.729469 0-32.154589 9.89372-59.362319 27.20773-79.149759 19.78744-19.78744 42.048309-29.681159 71.729468-29.681159 14.84058 0 29.681159 2.47343 44.521739 7.42029v14.84058c-14.84058-7.42029-29.681159-9.89372-44.521739-9.89372-24.7343 0-44.521739 7.42029-61.835749 24.734299-14.84058 17.31401-24.7343 39.574879-24.734299 69.256039 0 27.207729 7.42029 49.468599 22.260869 64.309179 14.84058 14.84058 34.628019 24.7343 56.888889 24.734299 17.31401 0 34.628019-2.47343 49.468599-9.89372v12.36715zM2738.086957 833.545894v187.980676h-12.36715V833.545894h-59.362319v-14.84058h131.091787v14.84058zM2913.700483 1014.10628v-14.84058c14.84058 9.89372 29.681159 14.84058 44.521739 14.84058 14.84058 0 27.207729-2.47343 34.62802-9.89372 7.42029-7.42029 12.36715-14.84058 12.367149-27.207729 0-9.89372-2.47343-17.31401-7.42029-24.7343-4.94686-4.94686-17.31401-14.84058-34.628019-24.734299-19.78744-12.36715-32.154589-22.26087-39.574879-29.68116-4.94686-7.42029-7.42029-17.31401-7.42029-27.207729 0-14.84058 4.94686-27.207729 17.31401-37.101449 9.89372-9.89372 24.7343-14.84058 44.521739-14.84058 12.36715 0 24.7343 2.47343 34.628019 4.94686v14.84058c-12.36715-4.94686-24.7343-7.42029-37.101449-7.42029-14.84058 0-24.7343 2.47343-32.154589 9.89372-7.42029 7.42029-12.36715 14.84058-12.36715 27.207729 0 9.89372 2.47343 17.31401 7.42029 24.7343 4.94686 4.94686 17.31401 14.84058 34.628019 24.734299 19.78744 9.89372 32.154589 19.78744 37.101449 27.20773 4.94686 7.42029 9.89372 17.31401 9.89372 27.207729 0 14.84058-4.94686 27.207729-14.84058 37.101449-9.89372 9.89372-24.7343 14.84058-44.521739 14.84058-7.42029 0-14.84058 0-24.734299-2.47343s-17.31401-4.94686-22.26087-7.42029z" fill="#696969" p-id="3707"></path></svg>