<?xml version="1.0" standalone="no"?><!DOCTYPE svg PUBLIC "-//W3C//DTD SVG 1.1//EN" "http://www.w3.org/Graphics/SVG/1.1/DTD/svg11.dtd"><svg class="icon" style="" viewBox="0 0 1024 1024" version="1.1" xmlns="http://www.w3.org/2000/svg" p-id="4072" xmlns:xlink="http://www.w3.org/1999/xlink" width="200" height="200"><defs><style type="text/css"><![CDATA[

]]></style></defs><path d="M957.217391 66.782609v890.434782h-257.236715v-230.028985h138.512078V487.2657h-140.985508v-46.995169-7.420289H838.492754v-239.922706h-180.560387c-111.304348 0-200.347826 89.043478-200.347826 200.347826v93.990338h-138.512077v239.922706h138.512077v230.028985h-393.275362v-890.434782h892.908212m49.468599-49.468599h-989.37198v989.37198h492.21256v-328.966183h-138.512077V536.7343h138.512077v-143.458938c0-84.096618 66.782609-150.879227 150.879227-150.879227h131.091788v140.985508h-84.096619c-42.048309 0-56.888889 14.84058-56.888889 56.888888v96.463769h140.985508v140.985507h-138.512078V1006.68599h356.173913v-989.37198h-2.47343z" fill="" p-id="4073"></path></svg>