<?xml version="1.0" standalone="no"?><!DOCTYPE svg PUBLIC "-//W3C//DTD SVG 1.1//EN" "http://www.w3.org/Graphics/SVG/1.1/DTD/svg11.dtd"><svg class="icon" style="" viewBox="0 0 1024 1024" version="1.1" xmlns="http://www.w3.org/2000/svg" p-id="3950" xmlns:xlink="http://www.w3.org/1999/xlink" width="200" height="200"><defs><style type="text/css"><![CDATA[

]]></style></defs><path d="M702.454106 623.304348h111.304348c12.36715 0 17.31401-2.47343 17.31401-14.84058 4.94686-42.048309 9.89372-84.096618 17.314009-126.144927v-12.36715h-145.932367c0-42.048309-2.47343-84.096618 0-123.671498 2.47343-27.207729 27.207729-39.574879 64.309179-42.048309h89.043478V165.719807c-24.7343-2.47343-46.995169-4.94686-71.729468-4.94686-37.101449 0-74.202899 0-108.830918 7.42029-79.149758 19.78744-128.618357 86.570048-128.618358 168.193236v131.091788c-7.42029 0-14.84058 2.47343-22.260869 2.47343h-91.516908c-12.36715 0-17.31401 2.47343-17.31401 14.84058v121.198067c0 12.36715 4.94686 17.31401 17.31401 17.31401h111.304347v380.908212h-526.840579V17.31401h989.37198v986.89855h-286.917874c-12.36715 0-19.78744-2.47343-19.78744-17.314009v-356.173913c2.47343 0 2.47343-2.47343 2.47343-7.42029z" fill="#0D3D84" p-id="3951"></path></svg>