<?xml version="1.0" standalone="no"?><!DOCTYPE svg PUBLIC "-//W3C//DTD SVG 1.1//EN" "http://www.w3.org/Graphics/SVG/1.1/DTD/svg11.dtd"><svg class="icon" style="" viewBox="0 0 1024 1024" version="1.1" xmlns="http://www.w3.org/2000/svg" p-id="3828" xmlns:xlink="http://www.w3.org/1999/xlink" width="200" height="200"><defs><style type="text/css"><![CDATA[

]]></style></defs><path d="M724.714976 17.31401h-422.956522c-155.826087 0-284.444444 126.144928-284.444444 284.444444v422.956522c0 155.826087 126.144928 284.444444 284.444444 284.444444h422.956522c155.826087 0 284.444444-126.144928 284.444444-284.444444v-422.956522c-2.47343-158.299517-128.618357-284.444444-284.444444-284.444444z m-210.241546 746.975845c-140.985507 0-254.763285-113.777778-254.763285-254.763285 0-140.985507 113.777778-254.763285 254.763285-254.763285 140.985507 0 254.763285 113.777778 254.763285 254.763285 0 140.985507-113.777778 254.763285-254.763285 254.763285z m262.183575-460.057971c-32.154589 0-59.362319-27.207729-59.362319-59.362319 0-32.154589 27.207729-59.362319 59.362319-59.362319 32.154589 0 59.362319 27.207729 59.362319 59.362319 0 32.154589-27.207729 59.362319-59.362319 59.362319z m-262.183575 42.048309c-91.516908 0-163.246377 74.202899-163.246377 163.246377 0 91.516908 74.202899 163.246377 163.246377 163.246377 91.516908 0 163.246377-74.202899 163.246377-163.246377s-74.202899-163.246377-163.246377-163.246377z" fill="#E4007F" p-id="3829"></path></svg>