<?xml version="1.0" standalone="no"?><!DOCTYPE svg PUBLIC "-//W3C//DTD SVG 1.1//EN" "http://www.w3.org/Graphics/SVG/1.1/DTD/svg11.dtd"><svg class="icon" style="" viewBox="0 0 1024 1024" version="1.1" xmlns="http://www.w3.org/2000/svg" p-id="6653" xmlns:xlink="http://www.w3.org/1999/xlink" width="200" height="200"><defs><style type="text/css"><![CDATA[

]]></style></defs><path d="M761.816425 314.125604c-46.995169 0-86.570048-39.574879-86.570048-86.570048s39.574879-86.570048 86.570048-86.570049 86.570048 39.574879 86.570048 86.570049-37.101449 86.570048-86.570048 86.570048z m0-123.671498c-19.78744 0-37.101449 17.31401-37.101449 37.10145s17.31401 37.101449 37.101449 37.101449 37.101449-17.31401 37.101449-37.101449-14.84058-37.101449-37.101449-37.10145z" fill="" p-id="6654"></path><path d="M957.217391 66.782609v890.434782h-890.434782v-890.434782h890.434782m49.468599-49.468599h-989.37198v989.37198h989.37198v-989.37198z" fill="" p-id="6655"></path><path d="M514.47343 326.492754c108.830918 0 197.874396 89.043478 197.874396 197.874396s-89.043478 197.874396-197.874396 197.874396-197.874396-89.043478-197.874396-197.874396 89.043478-197.874396 197.874396-197.874396m0-49.468599c-136.038647 0-247.342995 111.304348-247.342995 247.342995s111.304348 247.342995 247.342995 247.342995 247.342995-111.304348 247.342995-247.342995-108.830918-247.342995-247.342995-247.342995z" fill="" p-id="6656"></path></svg>