<?xml version="1.0" standalone="no"?><!DOCTYPE svg PUBLIC "-//W3C//DTD SVG 1.1//EN" "http://www.w3.org/Graphics/SVG/1.1/DTD/svg11.dtd"><svg class="icon" style="" viewBox="0 0 1024 1024" version="1.1" xmlns="http://www.w3.org/2000/svg" p-id="6284" xmlns:xlink="http://www.w3.org/1999/xlink" width="200" height="200"><defs><style type="text/css"><![CDATA[

]]></style></defs><path d="M650.512077 254.763285h-118.724637v512h118.724637c118.724638 0 217.661836-113.777778 217.661836-254.763285-2.47343-140.985507-98.937198-257.236715-217.661836-257.236715z" fill="#C91523" p-id="6285"></path><path d="M17.31401 17.31401v989.37198h989.37198v-989.37198h-989.37198z m336.386473 593.623188c0 131.091787-106.357488 234.975845-234.975845 234.975845h-39.57488v-79.149758h39.57488c86.570048 0 158.299517-69.256039 158.299517-158.299517v-432.850241h79.149758V610.937198z m296.811594 234.975845h-197.874396V175.613527h197.874396c163.246377 0 294.338164 150.879227 294.338165 333.913043s-131.091787 336.386473-294.338165 336.386473z" fill="#C91523" p-id="6286"></path></svg>