<?xml version="1.0" standalone="no"?><!DOCTYPE svg PUBLIC "-//W3C//DTD SVG 1.1//EN" "http://www.w3.org/Graphics/SVG/1.1/DTD/svg11.dtd"><svg class="icon" style="" viewBox="0 0 1024 1024" version="1.1" xmlns="http://www.w3.org/2000/svg" p-id="5422" xmlns:xlink="http://www.w3.org/1999/xlink" width="200" height="200"><defs><style type="text/css"><![CDATA[

]]></style></defs><path d="M17.31401 17.31401v989.37198h989.37198v-989.37198h-989.37198z m200.347826 160.772947c42.048309 0 76.676329 34.628019 76.676328 76.676328 0 42.048309-34.628019 76.676329-76.676328 76.676329s-76.676329-34.628019-76.676329-76.676329c-2.47343-42.048309 32.154589-76.676329 76.676329-76.676328z m64.309178 432.850241c-19.78744 64.309179-14.84058 39.574879-96.463768 217.661836l-118.724637-74.202899s131.091787-118.724638 158.299517-175.613526c29.681159-56.888889-32.154589-89.043478-32.15459-89.043479l-91.516908-56.888888 49.468599-74.202899c69.256039 49.468599 74.202899 54.415459 118.724638 101.410628 37.101449 37.101449 34.628019 86.570048 12.367149 150.879227z m640.618358 84.096618c-22.26087 215.188406-304.231884 136.038647-304.231884 136.038648l14.84058-61.835749 64.309178 14.84058c121.198068 7.42029 108.830918-96.463768 108.830918-96.463768v-306.705314c0-116.251208-108.830918-128.618357-306.705314-56.888889l46.995169 12.367149c-4.94686 12.36715-19.78744 34.628019-37.101449 56.888889h264.657005v54.415459h-148.405797v66.782609h148.405797v54.415459h-148.405797v111.304348c22.26087-7.42029 42.048309-17.31401 61.835749-29.68116l-12.36715-49.468599 69.256038-22.260869 59.362319 143.458937-86.570048 34.628019-14.84058-56.888889c-39.574879 29.681159-118.724638 71.729469-257.236715 69.256039-148.405797 4.94686-111.304348-168.193237-111.304348-168.193237l4.94686-2.47343h103.884058c0 22.26087-9.89372 59.362319 2.47343 76.676329 9.89372 14.84058 37.101449 19.78744 51.942029 19.787439h4.94686v-128.618357h-150.879227V512h150.879227v-66.782609h-39.574879c-34.628019 37.101449-64.309179 66.782609-64.309179 66.782609l-46.995169-39.574879c32.154589-34.628019 64.309179-89.043478 84.096618-123.671498-17.31401 7.42029-32.154589 14.84058-49.468599 22.26087-17.31401 22.26087-37.101449 44.521739-59.362318 64.309178 0 2.47343-74.202899-42.048309-74.202899-42.048309 79.149758-66.782609 121.198068-210.241546 121.198068-210.241546l108.830918 29.68116s-9.89372 22.26087-27.20773 54.415459c435.323671-123.671498 462.531401 76.676329 462.531401 76.676328s29.681159 133.565217 4.94686 351.227053z" fill="#FC6420" p-id="5423"></path></svg>