<?xml version="1.0" standalone="no"?><!DOCTYPE svg PUBLIC "-//W3C//DTD SVG 1.1//EN" "http://www.w3.org/Graphics/SVG/1.1/DTD/svg11.dtd"><svg class="icon" style="" viewBox="0 0 1024 1024" version="1.1" xmlns="http://www.w3.org/2000/svg" p-id="5299" xmlns:xlink="http://www.w3.org/1999/xlink" width="200" height="200"><defs><style type="text/css"><![CDATA[

]]></style></defs><path d="M964.637681 648.038647c-9.89372 2.47343-19.78744 4.94686-27.207729 9.89372-7.42029 4.94686-14.84058 9.89372-19.78744 14.84058l-12.36715 12.36715c-14.84058 14.84058-29.681159 32.154589-44.521739 49.468599-14.84058 17.31401-32.154589 32.154589-49.468599 46.995169-17.31401 14.84058-37.101449 24.7343-59.362319 34.628019-22.26087 9.89372-46.995169 12.36715-74.202898 12.36715h-336.386474c-27.207729 0-51.942029-4.94686-74.202898-12.36715-22.26087-9.89372-42.048309-19.78744-59.362319-34.628019-17.31401-14.84058-34.628019-29.681159-49.468599-46.995169s-29.681159-32.154589-44.521739-49.468599c-2.47343-2.47343-2.47343-4.94686-7.42029-7.42029l-9.89372-9.89372c-2.47343-2.47343-9.89372-7.42029-14.84058-9.89372-4.94686-2.47343-12.36715-4.94686-17.314009-7.42029s-12.36715-2.47343-19.78744-2.47343c-7.42029 0-14.84058 2.47343-19.787439 7.42029-4.94686 2.47343-7.42029 4.94686-9.89372 7.42029V1006.68599h66.782608c-4.94686-7.42029-7.42029-17.31401-9.893719-24.734299-2.47343-9.89372-2.47343-17.31401-2.47343-27.20773 0-14.84058 2.47343-29.681159 9.893719-44.521739 4.94686-14.84058 14.84058-27.207729 24.7343-37.101449 9.89372-9.89372 22.26087-19.78744 34.628019-24.7343 12.36715-7.42029 27.207729-9.89372 42.048309-9.893719-4.94686 2.47343-9.89372 7.42029-12.367149 14.840579-4.94686 7.42029-7.42029 14.84058-9.89372 27.20773-2.47343 9.89372-4.94686 22.26087-7.42029 34.628019-2.47343 12.36715-2.47343 27.207729-2.47343 42.048309v27.20773c0 7.42029 2.47343 17.31401 2.47343 24.734299h69.256039c2.47343-14.84058 4.94686-34.628019 4.94686-51.942029 0-14.84058 0-29.681159-2.47343-42.048309s-4.94686-24.7343-7.42029-34.628019c-2.47343-9.89372-7.42029-19.78744-9.89372-27.20773-4.94686-7.42029-7.42029-12.36715-12.36715-14.840579 14.84058 0 29.681159 4.94686 44.521739 9.893719 12.36715 7.42029 24.7343 14.84058 34.62802 24.7343 9.89372 9.89372 17.31401 22.26087 24.734299 37.101449 4.94686 14.84058 9.89372 29.681159 9.89372 44.521739 0 19.78744-4.94686 37.101449-12.36715 54.415459h133.565218c0-46.995169 37.101449-86.570048 86.570048-86.570048s86.570048 37.101449 86.570048 86.570048h133.565218c-7.42029-17.31401-12.36715-34.628019-12.36715-54.415459 0-14.84058 2.47343-29.681159 9.89372-44.521739 4.94686-14.84058 14.84058-27.207729 24.734299-37.101449 9.89372-9.89372 22.26087-19.78744 34.62802-24.7343 12.36715-7.42029 27.207729-9.89372 42.048309-9.893719-4.94686 2.47343-9.89372 7.42029-12.36715 14.840579-4.94686 7.42029-7.42029 14.84058-9.89372 27.20773-2.47343 9.89372-4.94686 22.26087-7.42029 34.628019-2.47343 12.36715-2.47343 27.207729-2.47343 42.048309v27.20773c0 7.42029 2.47343 17.31401 2.47343 24.734299h69.256039c2.47343-7.42029 2.47343-17.31401 2.47343-24.734299V957.217391c0-14.84058 0-29.681159-2.47343-42.048309s-4.94686-24.7343-7.42029-34.628019c-2.47343-9.89372-7.42029-19.78744-9.89372-27.20773-4.94686-7.42029-7.42029-12.36715-12.367149-14.840579 14.84058 0 29.681159 4.94686 42.048309 9.893719 12.36715 7.42029 24.7343 14.84058 34.628019 24.7343 9.89372 9.89372 17.31401 22.26087 24.7343 37.101449 4.94686 14.84058 9.89372 29.681159 9.893719 44.521739 0 9.89372 0 19.78744-2.47343 27.20773-2.47343 9.89372-4.94686 17.31401-9.893719 24.734299h66.782608v-343.806763c-2.47343-2.47343-7.42029-7.42029-9.89372-7.42029-14.84058-7.42029-24.7343-9.89372-34.628019-7.42029z" fill="#C20003" p-id="5300"></path><path d="M17.31401 17.31401v588.676328c9.89372-2.47343 17.31401-4.94686 27.207729-7.42029h9.89372c9.89372 0 17.31401 0 27.207729 2.47343 9.89372 2.47343 19.78744 7.42029 29.68116 12.36715l22.260869 14.84058c4.94686 4.94686 9.89372 9.89372 14.84058 12.367149 2.47343 4.94686 7.42029 7.42029 7.42029 9.89372 14.84058 14.84058 27.207729 32.154589 42.048309 49.468599 12.36715 14.84058 27.207729 27.207729 42.048309 39.57488 14.84058 9.89372 29.681159 19.78744 46.995169 27.207729 14.84058 7.42029 34.628019 9.89372 54.415459 9.89372h336.386474c19.78744 0 39.574879-2.47343 54.415459-9.89372 17.31401-7.42029 34.628019-17.31401 49.468599-27.207729 14.84058-12.36715 29.681159-24.7343 42.048309-39.57488 14.84058-17.31401 29.681159-32.154589 44.521739-49.468599 2.47343-2.47343 7.42029-7.42029 12.36715-14.840579 9.89372-9.89372 19.78744-17.31401 32.154589-24.7343 12.36715-7.42029 27.207729-12.36715 44.521739-14.84058h12.36715c12.36715 0 24.7343 2.47343 37.101449 7.42029V17.31401h-989.37198z m670.299517 212.714976h-106.357488V512c0 39.574879-32.154589 71.729469-71.729469 71.729469-39.574879 0-71.729469-32.154589-71.729469-71.729469v-281.971014h-106.357487c-19.78744 0-34.628019-14.84058-34.62802-34.62802 0-19.78744 14.84058-34.628019 34.62802-34.628019h353.700483c19.78744 0 34.628019 14.84058 34.628019 34.628019 4.94686 17.31401-12.36715 34.628019-32.154589 34.62802z" fill="#C20003" p-id="5301"></path></svg>