<?xml version="1.0" standalone="no"?><!DOCTYPE svg PUBLIC "-//W3C//DTD SVG 1.1//EN" "http://www.w3.org/Graphics/SVG/1.1/DTD/svg11.dtd"><svg class="icon" style="" viewBox="0 0 1024 1024" version="1.1" xmlns="http://www.w3.org/2000/svg" p-id="5055" xmlns:xlink="http://www.w3.org/1999/xlink" width="200" height="200"><defs><style type="text/css"><![CDATA[

]]></style></defs><path d="M690.086957 351.227053c12.36715 0 22.26087 0 34.628019 2.47343-29.681159-140.985507-180.560386-247.342995-353.700483-247.342995-192.927536 0-351.227053 131.091787-351.227053 299.285024 0 96.463768 51.942029 175.613527 140.985507 237.449275l-34.628019 106.357488 123.671497-61.835748c44.521739 9.89372 79.149758 17.31401 123.671498 17.314009 9.89372 0 22.26087 0 32.154589-2.47343-7.42029-22.26087-9.89372-46.995169-9.89372-74.202898-4.94686-153.352657 126.144928-277.024155 294.338165-277.024155z m-192.927537-101.410628c29.681159 0 54.415459 24.7343 54.415459 54.415459 0 29.681159-24.7343 54.415459-54.415459 54.415459-29.681159 0-54.415459-24.7343-54.415459-54.415459s24.7343-54.415459 54.415459-54.415459z m-244.869565 108.830918c-29.681159 0-54.415459-24.7343-54.415459-54.415459 0-29.681159 24.7343-54.415459 54.415459-54.415459 29.681159 0 54.415459 24.7343 54.415459 54.415459 0 29.681159-24.7343 54.415459-54.415459 54.415459z m754.396135 267.130435c0-140.985507-140.985507-254.763285-299.285024-254.763285-168.193237 0-299.285024 113.777778-299.285024 254.763285 0 140.985507 131.091787 254.763285 299.285024 254.763285 34.628019 0 69.256039-9.89372 106.357488-17.31401l96.463768 51.942029-27.207729-86.570048c71.729469-51.942029 123.671498-123.671498 123.671497-202.821256z m-390.801932-39.574879c-22.26087 0-39.574879-17.31401-39.574879-39.57488 0-22.26087 17.31401-39.574879 39.574879-39.574879s39.574879 17.31401 39.574879 39.574879c0 22.26087-17.31401 39.574879-39.574879 39.57488z m192.927536 2.47343c-22.26087 0-39.574879-17.31401-39.574879-39.57488 0-22.26087 17.31401-39.574879 39.574879-39.574879 22.26087 0 39.574879 17.31401 39.574879 39.574879 0 22.26087-17.31401 39.574879-39.574879 39.57488z" fill="#3CB035" p-id="5056"></path></svg>