<?xml version="1.0" standalone="no"?><!DOCTYPE svg PUBLIC "-//W3C//DTD SVG 1.1//EN" "http://www.w3.org/Graphics/SVG/1.1/DTD/svg11.dtd"><svg class="icon" style="" viewBox="0 0 1024 1024" version="1.1" xmlns="http://www.w3.org/2000/svg" p-id="5177" xmlns:xlink="http://www.w3.org/1999/xlink" width="200" height="200"><defs><style type="text/css"><![CDATA[

]]></style></defs><path d="M994.318841 452.637681c-7.42029 19.78744-27.207729 32.154589-46.99517 24.7343-19.78744-7.42029-29.681159-27.207729-24.734299-46.995169 19.78744-61.835749 7.42029-131.091787-39.574879-183.033817-46.995169-51.942029-113.777778-71.729469-178.086957-56.888889-19.78744 4.94686-39.574879-9.89372-44.521739-29.681159-4.94686-19.78744 9.89372-39.574879 29.68116-44.521739 89.043478-19.78744 185.507246 9.89372 249.816425 81.623188 64.309179 71.729469 81.623188 168.193237 54.415459 254.763285z m-262.183575-140.985507c-17.31401 4.94686-34.628019-7.42029-39.57488-24.7343-4.94686-17.31401 7.42029-34.628019 24.7343-39.574879 42.048309-9.89372 89.043478 4.94686 121.198068 39.574879 32.154589 34.628019 39.574879 84.096618 27.207729 126.144928-4.94686 17.31401-24.7343 27.207729-42.048309 22.260869-17.31401-4.94686-27.207729-24.7343-19.78744-42.048309 7.42029-19.78744 2.47343-44.521739-12.367149-61.835748s-39.574879-24.7343-59.362319-19.78744z m-207.768116 59.362319c101.410628-42.048309 187.980676-44.521739 220.135265 2.47343 17.31401 24.7343 14.84058 59.362319 0 98.937198-7.42029 17.31401 2.47343 22.26087 17.31401 24.734299 56.888889 17.31401 118.724638 59.362319 118.724638 136.038648 0 123.671498-178.086957 281.971014-447.690821 281.971014-205.294686 0-415.536232-98.937198-415.536232-264.657005 0-86.570048 54.415459-185.507246 148.405797-279.497584 123.671498-126.144928 269.603865-183.033816 324.019323-126.144928 24.7343 24.7343 27.207729 66.782609 9.89372 116.251208-7.42029 24.7343 24.7343 9.89372 24.7343 9.89372z m-128.618358 93.990338c-163.246377 17.31401-286.917874 116.251208-277.024154 225.082126 9.89372 108.830918 150.879227 183.033816 316.599033 165.719806 163.246377-17.31401 286.917874-116.251208 277.024155-225.082125-12.36715-108.830918-153.352657-183.033816-316.599034-165.719807z m-69.256038 343.806763c-79.149758-24.7343-111.304348-103.884058-76.676329-173.140096s121.198068-108.830918 200.347826-86.570049c81.623188 19.78744 121.198068 96.463768 89.043478 170.666667-34.628019 74.202899-131.091787 116.251208-212.714975 89.043478z m44.521739-148.405797c-24.7343-9.89372-59.362319 0-74.202899 24.7343-14.84058 24.7343-7.42029 54.415459 17.31401 66.782608s59.362319 0 74.202898-24.734299c17.31401-27.207729 9.89372-54.415459-17.314009-66.782609z m64.309178-24.734299c-9.89372-4.94686-22.26087 0-27.207729 9.893719-4.94686 9.89372-2.47343 19.78744 7.42029 24.7343 9.89372 4.94686 22.26087 0 27.207729-9.89372 4.94686-9.89372 2.47343-22.26087-7.42029-24.734299z" fill="#D52C2A" p-id="5178"></path></svg>