<?xml version="1.0" standalone="no"?><!DOCTYPE svg PUBLIC "-//W3C//DTD SVG 1.1//EN" "http://www.w3.org/Graphics/SVG/1.1/DTD/svg11.dtd"><svg class="icon" style="" viewBox="0 0 1024 1024" version="1.1" xmlns="http://www.w3.org/2000/svg" p-id="4439" xmlns:xlink="http://www.w3.org/1999/xlink" width="200" height="200"><defs><style type="text/css"><![CDATA[

]]></style></defs><path d="M274.550725 420.483092c-46.995169 0-86.570048-39.574879-86.570049-86.570049s39.574879-86.570048 86.570049-86.570048 86.570048 39.574879 86.570048 86.570048-37.101449 86.570048-86.570048 86.570049z m0-123.671498c-19.78744 0-37.101449 17.31401-37.10145 37.101449s17.31401 37.101449 37.10145 37.10145 37.101449-17.31401 37.101449-37.10145-14.84058-37.101449-37.101449-37.101449zM596.096618 420.483092c-46.995169 0-86.570048-39.574879-86.570048-86.570049s39.574879-86.570048 86.570048-86.570048 86.570048 39.574879 86.570049 86.570048-39.574879 86.570048-86.570049 86.570049z m0-123.671498c-19.78744 0-37.101449 17.31401-37.101449 37.101449s17.31401 37.101449 37.101449 37.10145 37.101449-17.31401 37.10145-37.10145-17.31401-37.101449-37.10145-37.101449zM598.570048 601.043478c-27.207729 0-49.468599 22.26087-49.468599 49.468599s22.26087 49.468599 49.468599 49.468599 49.468599-22.26087 49.468599-49.468599-22.26087-49.468599-49.468599-49.468599zM784.077295 601.043478c-27.207729 0-49.468599 22.26087-49.468599 49.468599s22.26087 49.468599 49.468599 49.468599 49.468599-22.26087 49.468599-49.468599-22.26087-49.468599-49.468599-49.468599z" fill="" p-id="4440"></path><path d="M435.323671 66.782609c210.241546 0 316.599034 153.352657 348.753624 242.396135 12.36715 37.101449 12.36715 54.415459 14.840579 86.570048v19.78744l2.47343 27.207729 24.7343 12.36715c84.096618 46.995169 133.565217 118.724638 133.565217 192.927536 0 64.309179-32.154589 126.144928-91.516908 168.193237l-29.681159 22.26087 12.367149 34.628019 12.36715 37.101449-76.676328-39.574879-14.84058-7.42029-17.31401 2.47343c-19.78744 4.94686-39.574879 4.94686-59.362319 4.94686-116.251208 0-217.661836-61.835749-252.289855-155.826087l-12.367149-32.154589h-37.10145c-14.84058 0-19.78744 0-39.574879-2.47343l-14.84058-2.47343-14.840579 7.42029-136.038648 69.256038 27.20773-86.570048 12.36715-34.628019-29.68116-22.26087c-81.623188-59.362319-128.618357-145.932367-128.618357-234.975845-2.47343-170.666667 163.246377-309.178744 366.067632-309.178744m0-49.468599c-230.028986 0-418.009662 160.772947-418.009661 361.120773 0 111.304348 56.888889 207.768116 148.405797 274.550724l-66.782609 197.874396 244.869565-121.198067c22.26087 2.47343 29.681159 2.47343 49.468599 4.94686 42.048309 108.830918 160.772947 187.980676 299.285024 187.980676 24.7343 0 46.995169-2.47343 69.256039-7.42029l183.033817 91.516908-49.468599-150.879227c69.256039-49.468599 111.304348-123.671498 111.304347-207.768116 0-101.410628-66.782609-185.507246-158.299517-234.975845-2.47343-44.521739-2.47343-69.256039-17.314009-118.724638-39.574879-116.251208-165.719807-277.024155-395.748793-277.024154z" fill="" p-id="4441"></path><path d="M395.748792 744.502415c-17.31401-34.628019-17.31401-79.149758-17.314009-98.937198v-4.94686c4.94686-148.405797 140.985507-262.183575 311.652174-262.183574 14.84058 0 32.154589 0 49.468599 2.47343 29.681159 4.94686 74.202899 12.36715 106.357487 32.154589l-24.734299 42.048309c-27.207729-17.31401-71.729469-22.26087-86.570048-24.734299-14.84058-2.47343-29.681159-2.47343-42.04831-2.47343-143.458937 0-257.236715 93.990338-262.183574 212.714975v4.94686c0 17.31401 0 54.415459 12.367149 79.149759l-46.995169 19.787439z" fill="" p-id="4442"></path></svg>