<?xml version="1.0" standalone="no"?><!DOCTYPE svg PUBLIC "-//W3C//DTD SVG 1.1//EN" "http://www.w3.org/Graphics/SVG/1.1/DTD/svg11.dtd"><svg class="icon" style="" viewBox="0 0 1024 1024" version="1.1" xmlns="http://www.w3.org/2000/svg" p-id="4931" xmlns:xlink="http://www.w3.org/1999/xlink" width="200" height="200"><defs><style type="text/css"><![CDATA[

]]></style></defs><path d="M479.845411 1019.05314c-140.985507 0-291.864734-37.101449-390.801933-138.512077-89.043478-93.990338-111.304348-234.975845-51.942029-356.173913 66.782609-138.512077 207.768116-259.710145 356.173913-311.652174 27.207729-9.89372 51.942029-14.84058 74.202899-17.31401 24.7343-2.47343 42.048309 0 59.362319 4.94686 14.84058 4.94686 27.207729 12.36715 39.574879 22.26087s19.78744 22.26087 24.734299 37.101449c4.94686 12.36715 7.42029 24.7343 9.89372 34.628019 2.47343 9.89372 2.47343 22.26087 2.47343 32.15459v4.94686c0 4.94686-2.47343 9.89372-4.94686 17.314009 0 4.94686-2.47343 7.42029-2.47343 9.89372 2.47343 0 4.94686-2.47343 7.42029-2.47343l14.84058-7.42029c12.36715-4.94686 29.681159-9.89372 46.995169-14.84058 17.31401-4.94686 37.101449-9.89372 56.888889-12.367149 22.26087-2.47343 44.521739-2.47343 66.782609 0 24.7343 4.94686 44.521739 14.84058 59.362318 29.681159 9.89372 9.89372 17.31401 19.78744 22.26087 29.68116 4.94686 9.89372 7.42029 19.78744 9.89372 29.681159 2.47343 9.89372 2.47343 19.78744 0 29.681159 0 9.89372-2.47343 17.31401-4.94686 24.7343l-7.42029 22.260869c-2.47343 4.94686-4.94686 9.89372-4.94686 12.36715h2.47343c12.36715 2.47343 24.7343 4.94686 42.048309 12.36715 14.84058 7.42029 32.154589 17.31401 49.468599 32.154589 17.31401 14.84058 32.154589 32.154589 42.048309 51.942029 12.36715 19.78744 17.31401 46.995169 17.31401 79.149759 0 29.681159-9.89372 61.835749-24.734299 96.463768-27.207729 54.415459-71.729469 103.884058-133.565218 143.458937-61.835749 39.574879-128.618357 66.782609-200.347826 81.623189-51.942029 14.84058-113.777778 22.26087-178.086956 22.260869z m7.420289-776.657005h-14.840579c-17.31401 2.47343-39.574879 7.42029-61.835749 14.84058-138.512077 46.995169-267.130435 160.772947-328.966184 286.917874-49.468599 101.410628-32.154589 220.135266 42.04831 299.285025 118.724638 126.144928 348.753623 143.458937 524.367149 106.357487 64.309179-14.84058 128.618357-39.574879 183.033817-74.202898s93.990338-76.676329 116.251207-123.671498c12.36715-27.207729 19.78744-51.942029 19.78744-76.676328 0-22.26087-2.47343-39.574879-9.89372-51.942029-7.42029-14.84058-19.78744-27.207729-32.154589-37.101449-12.36715-12.36715-24.7343-19.78744-37.101449-24.7343-12.36715-4.94686-22.26087-7.42029-29.68116-9.89372-19.78744-4.94686-34.628019-9.89372-42.048309-22.260869-9.89372-12.36715-9.89372-29.681159-2.47343-42.04831l4.94686-9.893719c0-2.47343 2.47343-4.94686 4.94686-9.89372s2.47343-7.42029 4.94686-12.36715c0-4.94686 2.47343-9.89372 2.47343-17.31401v-17.314009c0-4.94686-2.47343-12.36715-4.94686-17.31401-2.47343-4.94686-7.42029-12.36715-12.36715-17.31401-7.42029-7.42029-19.78744-14.84058-34.628019-17.314009-17.31401-2.47343-34.628019-2.47343-49.468599 0-17.31401 2.47343-37.101449 7.42029-51.942029 9.89372-17.31401 4.94686-29.681159 9.89372-39.574879 12.367149l-19.78744 7.42029c-9.89372 2.47343-17.31401 4.94686-24.7343 4.94686-9.89372 2.47343-19.78744 0-27.207729-2.47343-4.94686-2.47343-9.89372-4.94686-12.36715-7.42029-4.94686-4.94686-12.36715-14.84058-12.36715-29.681159 0-4.94686 0-9.89372 2.47343-12.36715 0-4.94686 2.47343-9.89372 2.47343-19.787439 2.47343-4.94686 2.47343-9.89372 2.47343-14.84058 0-7.42029 0-14.84058-2.47343-22.26087 0-7.42029-2.47343-14.84058-7.42029-24.734299-2.47343-7.42029-7.42029-12.36715-12.367149-17.31401-4.94686-4.94686-14.84058-9.89372-22.26087-12.36715 0 4.94686-7.42029 2.47343-17.31401 2.47343z" fill="" p-id="4932"></path><path d="M462.531401 934.956522c-175.613527 0-316.599034-101.410628-316.599034-227.555556s143.458937-227.555556 316.599034-227.555555 316.599034 101.410628 316.599034 227.555555-140.985507 227.555556-316.599034 227.555556z m0-403.169082c-148.405797 0-267.130435 79.149758-267.130435 178.086956s121.198068 178.086957 267.130435 178.086957 267.130435-79.149758 267.130435-178.086957-118.724638-178.086957-267.130435-178.086956z" fill="" p-id="4933"></path><path d="M462.531401 793.971014c-46.995169 0-84.096618-37.101449-84.096618-84.096618s37.101449-84.096618 84.096618-84.096618 84.096618 37.101449 84.096618 84.096618-37.101449 84.096618-84.096618 84.096618z m0-118.724637c-19.78744 0-34.628019 14.84058-34.628019 34.628019s14.84058 34.628019 34.628019 34.628019 34.628019-14.84058 34.628019-34.628019-14.84058-34.628019-34.628019-34.628019zM853.333333 277.024155c-19.78744-29.681159-49.468599-46.995169-84.096618-54.415459-34.628019-4.94686-69.256039 2.47343-96.463768 22.260869l-27.20773-39.574879c81.623188-56.888889 192.927536-37.101449 249.816426 44.521739l-42.04831 27.20773zM974.531401 170.666667c-86.570048-123.671498-254.763285-153.352657-378.434783-66.782609l-27.207729-39.574879c145.932367-101.410628 346.280193-66.782609 447.690821 79.149758l-42.048309 27.20773z" fill="" p-id="4934"></path></svg>