<?xml version="1.0" encoding="utf-8"?>
<!-- Generator: Adobe Illustrator 19.0.0, SVG Export Plug-In . SVG Version: 6.00 Build 0)  -->
<svg version="1.0" id="图层_1" xmlns="http://www.w3.org/2000/svg" xmlns:xlink="http://www.w3.org/1999/xlink" x="0px" y="0px"
	 viewBox="-320 198.3 200 200" enable-background="new -320 198.3 200 200" xml:space="preserve">
<g>
	<path d="M-170.7,335.3c11.5-14.2,18.3-32.3,18.3-52c0-45.9-37.2-83.1-83.1-83.1s-83.1,37.2-83.1,83.1c0,45.9,37.2,83.1,83.1,83.1
		c22.7,0,43.3-9.1,58.3-23.9l48.3,53.6l7.2-6.5L-170.7,335.3z M-235.5,356.7c-40.6,0-73.4-32.9-73.4-73.4s33.3-73.4,73.4-73.4
		c40.6,0,73.4,32.9,73.4,73.4S-194.9,356.7-235.5,356.7z"/>
	<polygon points="-230.6,247.1 -240.3,247.1 -240.3,278.5 -271.7,278.5 -271.7,288.1 -240.3,288.1 -240.3,319.5 -230.6,319.5 
		-230.6,288.1 -199.2,288.1 -199.2,278.5 -230.6,278.5 	"/>
</g>
</svg>
