<?xml version="1.0" standalone="no"?><!DOCTYPE svg PUBLIC "-//W3C//DTD SVG 1.1//EN" "http://www.w3.org/Graphics/SVG/1.1/DTD/svg11.dtd"><svg class="icon" style="" viewBox="0 0 1024 1024" version="1.1" xmlns="http://www.w3.org/2000/svg" p-id="5913" xmlns:xlink="http://www.w3.org/1999/xlink" width="200" height="200"><defs><style type="text/css"><![CDATA[

]]></style></defs><path d="M957.217391 66.782609v685.140096h-343.806763l-12.36715 7.42029-289.391304 163.246377v-170.666667h-247.342995V66.782609h892.908212m49.468599-49.468599h-989.37198V801.391304h247.342995v205.294686l361.120773-205.294686h380.908212V17.31401z" fill="" p-id="5914"></path><path d="M252.289855 363.594203c19.78744 0 37.101449 17.31401 37.101449 37.101449s-17.31401 37.101449-37.101449 37.101449-37.101449-17.31401-37.101449-37.101449 17.31401-37.101449 37.101449-37.101449m0-49.468599c-46.995169 0-86.570048 39.574879-86.570048 86.570048s39.574879 86.570048 86.570048 86.570048 86.570048-39.574879 86.570048-86.570048-39.574879-86.570048-86.570048-86.570048zM512 363.594203c19.78744 0 37.101449 17.31401 37.101449 37.101449s-17.31401 37.101449-37.101449 37.101449-37.101449-17.31401-37.101449-37.101449 17.31401-37.101449 37.101449-37.101449m0-49.468599c-46.995169 0-86.570048 39.574879-86.570048 86.570048s39.574879 86.570048 86.570048 86.570048 86.570048-39.574879 86.570048-86.570048-39.574879-86.570048-86.570048-86.570048zM771.710145 363.594203c19.78744 0 37.101449 17.31401 37.101449 37.101449s-17.31401 37.101449-37.101449 37.101449-37.101449-17.31401-37.101449-37.101449 17.31401-37.101449 37.101449-37.101449m0-49.468599c-46.995169 0-86.570048 39.574879-86.570048 86.570048s39.574879 86.570048 86.570048 86.570048 86.570048-39.574879 86.570048-86.570048-39.574879-86.570048-86.570048-86.570048z" fill="" p-id="5915"></path></svg>