<?xml version="1.0" standalone="no"?><!DOCTYPE svg PUBLIC "-//W3C//DTD SVG 1.1//EN" "http://www.w3.org/Graphics/SVG/1.1/DTD/svg11.dtd"><svg class="icon" style="" viewBox="0 0 1024 1024" version="1.1" xmlns="http://www.w3.org/2000/svg" p-id="5789" xmlns:xlink="http://www.w3.org/1999/xlink" width="200" height="200"><defs><style type="text/css"><![CDATA[

]]></style></defs><path d="M1006.68599 774.183575H272.077295l-128.618358-707.400966h-126.144927v-49.468599h168.193236l128.618358 707.400966h692.560386z" fill="" p-id="5790"></path><path d="M272.077295 633.198068l-9.89372-49.468599 692.560386-113.777778v-309.178744H371.014493v-49.468599h633.198067V512zM422.956522 883.014493c19.78744 0 37.101449 17.31401 37.101449 37.101449s-17.31401 37.101449-37.101449 37.101449-37.101449-17.31401-37.10145-37.101449 17.31401-37.101449 37.10145-37.101449m0-49.468599c-46.995169 0-86.570048 39.574879-86.570049 86.570048s39.574879 86.570048 86.570049 86.570048 86.570048-39.574879 86.570048-86.570048-39.574879-86.570048-86.570048-86.570048z" fill="" p-id="5791"></path><path d="M818.705314 883.014493c19.78744 0 37.101449 17.31401 37.101449 37.101449s-17.31401 37.101449-37.101449 37.101449-37.101449-17.31401-37.101449-37.101449 17.31401-37.101449 37.101449-37.101449m0-49.468599c-46.995169 0-86.570048 39.574879-86.570048 86.570048s39.574879 86.570048 86.570048 86.570048 86.570048-39.574879 86.570048-86.570048-39.574879-86.570048-86.570048-86.570048z" fill="" p-id="5792"></path></svg>